<?xml version="1.0" encoding="UTF-8"?>
<svg width="60px" height="40px" viewBox="0 0 60 40" version="1.1" xmlns="http://www.w3.org/2000/svg" xmlns:xlink="http://www.w3.org/1999/xlink">
    <!-- Generator: Sketch 51.3 (57544) - http://www.bohemiancoding.com/sketch -->
    <title>pmx-logo-atm-momo</title>
    <desc>Created with Sketch.</desc>
    <defs>
        <polygon id="path-1" points="0.152053691 0.243624161 14.536349 0.243624161 14.536349 13.9501208 0.152053691 13.9501208"></polygon>
        <polygon id="path-3" points="0.388308725 0.243624161 11.2293826 0.243624161 11.2293826 13.9500805 0.388308725 13.9500805"></polygon>
    </defs>
    <g id="pmx-logo-atm-momo" stroke="none" stroke-width="1" fill="none" fill-rule="evenodd">
        <rect fill="#F3F6F9" x="0" y="0" width="60" height="40"></rect>
        <polygon id="Fill-1" fill="#AE2070" points="0 39.9979866 60 39.9979866 60 22 0 22"></polygon>
        <g id="Group" transform="translate(9.000000, 4.000000)">
            <g id="Group-12" transform="translate(0.859060, 0.159060)">
                <mask id="mask-2" fill="white">
                    <use xlink:href="#path-1"></use>
                </mask>
                <g id="Clip-11"></g>
                <path d="M7.23769128,4.23173154 L5.5725906,8.49092617 L8.92212081,8.49092617 L7.23769128,4.23173154 Z M6.07594631,0.243543624 L8.57339597,0.243543624 L14.536349,13.9501208 L11.1288322,13.9501208 L9.94775839,11.0463624 L4.62426846,11.0463624 L3.48185235,13.9501208 L0.152053691,13.9501208 L6.07594631,0.243543624 Z" id="Fill-10" fill="#4B7FD1" mask="url(#mask-2)"></path>
            </g>
            <g id="Group-15" transform="translate(13.342282, 0.159060)">
                <mask id="mask-4" fill="white">
                    <use xlink:href="#path-3"></use>
                </mask>
                <g id="Clip-14"></g>
                <polygon id="Fill-13" fill="#4B7FD1" mask="url(#mask-4)" points="4.29877852 2.91531544 0.388308725 2.91531544 0.388308725 0.243503356 11.2293826 0.243503356 11.2293826 2.91531544 7.31891275 2.91531544 7.31891275 13.9500805 4.29877852 13.9500805"></polygon>
            </g>
            <polygon id="Fill-16" fill="#4B7FD1" points="26.1011812 0.402684564 30.6700403 0.402684564 33.8254765 9.34671141 33.8641342 9.34671141 37.0388993 0.402684564 41.5884295 0.402684564 41.5884295 14.1092617 38.568698 14.1092617 38.568698 3.59718121 38.5296376 3.59718121 34.9288322 14.1092617 32.6250738 14.1092617 29.1599732 3.59718121 29.1209128 3.59718121 29.1209128 14.1092617 26.1011812 14.1092617"></polygon>
        </g>
        <g id="Group-2" transform="translate(15.000000, 24.000000)" fill="#FFFFFF">
            <path d="M38.7453423,2.14861745 C38.0474899,2.14861745 37.4788993,2.71640268 37.4788993,3.4150604 C37.4788993,4.11291275 38.0474899,4.68110067 38.7453423,4.68110067 C39.4435973,4.68110067 40.0117852,4.11291275 40.0117852,3.4150604 C40.0117852,2.71640268 39.4435973,2.14861745 38.7453423,2.14861745 M38.7453423,6.5874094 C36.9960805,6.5874094 35.5725906,5.16391946 35.5725906,3.4150604 C35.5725906,1.66539597 36.9960805,0.242308725 38.7453423,0.242308725 C40.4950067,0.242308725 41.918094,1.66539597 41.918094,3.4150604 C41.918094,5.16391946 40.4950067,6.5874094 38.7453423,6.5874094" id="Fill-2"></path>
            <path d="M38.7453423,9.54561074 C38.0474899,9.54561074 37.4788993,10.1137987 37.4788993,10.8120537 C37.4788993,11.509906 38.0474899,12.078094 38.7453423,12.078094 C39.4435973,12.078094 40.0117852,11.509906 40.0117852,10.8120537 C40.0117852,10.1137987 39.4435973,9.54561074 38.7453423,9.54561074 M38.7453423,13.9844027 C36.9960805,13.9844027 35.5725906,12.5609128 35.5725906,10.8120537 C35.5725906,9.06238926 36.9960805,7.63930201 38.7453423,7.63930201 C40.4950067,7.63930201 41.918094,9.06238926 41.918094,10.8120537 C41.918094,12.5609128 40.4950067,13.9844027 38.7453423,13.9844027" id="Fill-4"></path>
            <path d="M32.6012617,0.242147651 C32.0556242,0.242147651 31.5518658,0.424966443 31.1471678,0.73261745 C30.7428725,0.424966443 30.2391141,0.242147651 29.6926711,0.242147651 C28.3654228,0.242147651 27.2854228,1.32214765 27.2854228,2.64939597 L27.2854228,6.58765101 L29.1917315,6.58765101 L29.1917315,2.64939597 C29.1917315,2.37315436 29.4168322,2.14845638 29.6926711,2.14845638 C29.9693154,2.14845638 30.1936107,2.37315436 30.1936107,2.64939597 L30.1936107,6.58765101 L32.1003221,6.58765101 L32.1003221,2.64939597 C32.1003221,2.37315436 32.3250201,2.14845638 32.6012617,2.14845638 C32.877906,2.14845638 33.1022013,2.37315436 33.1022013,2.64939597 L33.1022013,6.58765101 L35.0089128,6.58765101 L35.0089128,2.64939597 C35.0089128,1.32214765 33.9289128,0.242147651 32.6012617,0.242147651" id="Fill-6"></path>
            <path d="M32.6012617,7.63914094 C32.0556242,7.63914094 31.5518658,7.82195973 31.1471678,8.12961074 C30.7428725,7.82195973 30.2391141,7.63914094 29.6926711,7.63914094 C28.3654228,7.63914094 27.2854228,8.71914094 27.2854228,10.0467919 L27.2854228,13.9846443 L29.1917315,13.9846443 L29.1917315,10.0467919 C29.1917315,9.77014765 29.4168322,9.54544966 29.6926711,9.54544966 C29.9693154,9.54544966 30.1936107,9.77014765 30.1936107,10.0467919 L30.1936107,13.9846443 L32.1003221,13.9846443 L32.1003221,10.0467919 C32.1003221,9.77014765 32.3250201,9.54544966 32.6012617,9.54544966 C32.877906,9.54544966 33.1022013,9.77014765 33.1022013,10.0467919 L33.1022013,13.9846443 L35.0089128,13.9846443 L35.0089128,10.0467919 C35.0089128,8.71914094 33.9289128,7.63914094 32.6012617,7.63914094" id="Fill-8"></path>
            <path d="M3.01220134,4.31739597 C3.01220134,4.75833557 2.92401342,5.08652349 2.75005369,5.29350336 C2.57569128,5.50008054 2.37273826,5.60075168 2.12991946,5.60075168 C1.89072483,5.60075168 1.69260403,5.50330201 1.52347651,5.30397315 C1.35515436,5.10504698 1.26938255,4.78934228 1.26938255,4.36531544 C1.26938255,3.94088591 1.36119463,3.61471141 1.542,3.39524832 C1.72240268,3.17578523 1.92334228,3.06907383 2.15528859,3.06907383 C2.38965101,3.06907383 2.58616107,3.1689396 2.75609396,3.37471141 C2.92602685,3.58048322 3.01220134,3.89739597 3.01220134,4.31739597 M3.00736913,2.74934228 C2.77743624,2.59471141 2.50884564,2.51618792 2.20965101,2.51618792 C1.98012081,2.51618792 1.78079195,2.56209396 1.6177047,2.6522953 C1.49327517,2.72195973 1.37730201,2.81820134 1.27260403,2.94061745 L1.27260403,2.59350336 L0.64642953,2.59350336 L0.64642953,7.40357047 L1.32414765,7.40357047 L1.32414765,5.8270604 C1.40991946,5.91283221 1.51139597,5.98692617 1.62696644,6.04813423 C1.78683221,6.13310067 1.96884564,6.17578523 2.1681745,6.17578523 C2.43958389,6.17578523 2.70132886,6.0984698 2.94656376,5.94544966 C3.19260403,5.79202685 3.38226846,5.56853691 3.51112752,5.28222819 C3.63837584,4.9975302 3.70280537,4.6741745 3.70280537,4.32061745 C3.70280537,3.99041611 3.64441611,3.68236242 3.52884564,3.40491275 C3.4124698,3.12424161 3.23689933,2.90357047 3.00736913,2.74934228" id="Fill-18"></path>
            <path d="M5.73012081,5.60055034 C5.45428188,5.60055034 5.232,5.49987919 5.04998658,5.29249664 C4.86877852,5.08591946 4.77696644,4.76739597 4.77696644,4.34618792 C4.77696644,3.92457718 4.86877852,3.60685906 5.04958389,3.40148993 C5.232,3.19491275 5.45428188,3.0946443 5.73012081,3.0946443 C5.99790604,3.0946443 6.22502013,3.19853691 6.4058255,3.40310067 C6.58783893,3.60967785 6.68005369,3.92055034 6.68005369,4.32685906 C6.68005369,4.75853691 6.58824161,5.08310067 6.40703356,5.29088591 C6.22502013,5.49947651 6.00354362,5.60055034 5.73012081,5.60055034 M5.73012081,2.51638926 C5.29884564,2.51638926 4.92757047,2.64766443 4.62636242,2.90699329 C4.26595973,3.21907383 4.08314094,3.70310067 4.08314094,4.34618792 C4.08314094,4.93209396 4.23616107,5.38833557 4.5381745,5.70202685 C4.8405906,6.01612081 5.24166443,6.17598658 5.73012081,6.17598658 C6.03414765,6.17598658 6.31884564,6.10350336 6.57696644,5.9613557 C6.83548993,5.818 7.03522148,5.61424161 7.17092617,5.35531544 C7.30542282,5.098 7.37387919,4.74202685 7.37387919,4.29826846 C7.37387919,3.7465906 7.21884564,3.30685906 6.91401342,2.99155705 C6.60837584,2.67625503 6.21012081,2.51638926 5.73012081,2.51638926" id="Fill-20"></path>
            <path d="M10.9203624,5.08225503 L10.2764698,2.59326174 L9.606,2.59326174 L9.05391946,4.62561074 C8.99673826,4.85232215 8.95324832,5.02386577 8.92385235,5.14144966 L8.2207651,2.59326174 L7.51808054,2.59326174 L8.59083221,6.09863087 L9.2693557,6.09863087 L9.9164698,3.6406443 L10.003047,4.02238926 L10.5547248,6.09863087 L11.2300268,6.09863087 L12.3257315,2.59326174 L11.6584832,2.59326174 L10.9203624,5.08225503 Z" id="Fill-22"></path>
            <path d="M13.2322953,3.9685906 C13.2588725,3.7104698 13.352698,3.50026846 13.5125638,3.34322148 C13.6849128,3.17369128 13.8918926,3.09154362 14.1459866,3.09154362 C14.425047,3.09154362 14.6465235,3.19463087 14.822094,3.40684564 C14.9267919,3.53208054 14.9940403,3.7209396 15.0230336,3.9685906 L13.2322953,3.9685906 Z M14.1391409,2.51651007 C13.6571275,2.51651007 13.2584698,2.68161074 12.9548456,3.00697987 C12.6524295,3.33114094 12.4990067,3.79181208 12.4990067,4.37489933 C12.4990067,4.9390604 12.6508188,5.3852349 12.9504161,5.70013423 C13.2504161,6.01583893 13.6611544,6.1757047 14.1713557,6.1757047 C14.575651,6.1757047 14.913906,6.07503356 15.1764564,5.87691275 C15.438604,5.67879195 15.6206174,5.39691275 15.7172617,5.03852349 L15.7321611,4.98295302 L15.0383356,4.89718121 L15.025047,4.93503356 C14.9408859,5.16818792 14.8269262,5.33932886 14.6863893,5.44362416 C14.5466577,5.54791946 14.3743087,5.60067114 14.1745772,5.60067114 C13.9059866,5.60067114 13.6788725,5.5052349 13.4992752,5.31838926 C13.3273289,5.13798658 13.2266577,4.87825503 13.1992752,4.54402685 L15.7333691,4.54402685 L15.7349799,4.49530201 C15.7369933,4.42604027 15.7382013,4.37449664 15.7382013,4.33986577 C15.7382013,3.76724832 15.588,3.31583893 15.2920268,2.99731544 C14.9948456,2.67798658 14.6070604,2.51651007 14.1391409,2.51651007 Z" id="Fill-24"></path>
            <path d="M17.6433423,2.51630872 C17.4991812,2.51630872 17.3650872,2.55818792 17.2446846,2.64073826 C17.1528725,2.70355705 17.0578389,2.81308725 16.9563624,2.97416107 L16.9563624,2.59322148 L16.3362282,2.59322148 L16.3362282,6.0985906 L17.014349,6.0985906 L17.014349,4.26597315 C17.014349,4.02879195 17.0457584,3.80691275 17.1077718,3.60798658 C17.1472349,3.48395973 17.2136779,3.38610738 17.3050872,3.31684564 C17.5011946,3.1690604 17.7621342,3.18395973 18.0122013,3.33134228 L18.063745,3.36234899 L18.2981074,2.73134228 L18.2630738,2.70959732 C18.0544832,2.58154362 17.8462953,2.51630872 17.6433423,2.51630872" id="Fill-26"></path>
            <path d="M19.0704161,3.9685906 C19.0969933,3.7104698 19.1908188,3.50026846 19.3506846,3.34322148 C19.5230336,3.17369128 19.7300134,3.09154362 19.9841074,3.09154362 C20.2635705,3.09154362 20.4846443,3.19463087 20.6598121,3.40684564 C20.7649128,3.53167785 20.8325638,3.72053691 20.8611544,3.9685906 L19.0704161,3.9685906 Z M21.0141745,5.87691275 C21.2767248,5.67919463 21.4587383,5.39731544 21.5557852,5.03852349 L21.5706846,4.98295302 L20.8768591,4.89718121 L20.8635705,4.93463087 C20.7790067,5.16818792 20.665047,5.33932886 20.5245101,5.44362416 C20.3847785,5.54791946 20.2124295,5.60067114 20.012698,5.60067114 C19.7441074,5.60067114 19.5169933,5.5052349 19.337396,5.31838926 C19.1654497,5.13798658 19.0647785,4.87825503 19.037396,4.54402685 L21.5714899,4.54402685 L21.5731007,4.49530201 C21.5755168,4.42604027 21.5763221,4.37449664 21.5763221,4.33986577 C21.5763221,3.76724832 21.4261208,3.31543624 21.1301477,2.99731544 C20.8329664,2.67798658 20.4451812,2.51651007 19.9772617,2.51651007 C19.4952483,2.51651007 19.0965906,2.68161074 18.7929664,3.00697987 C18.4905503,3.33114094 18.3371275,3.79181208 18.3371275,4.37489933 C18.3371275,4.9390604 18.4889396,5.3852349 18.7885369,5.70013423 C19.0885369,6.01583893 19.4992752,6.1757047 20.0094765,6.1757047 C20.4141745,6.1757047 20.7524295,6.07503356 21.0141745,5.87691275 Z" id="Fill-28"></path>
            <path d="M23.5424295,5.60055034 C23.3052483,5.60055034 23.1051141,5.50068456 22.9299463,5.29451007 C22.7551812,5.08873826 22.6661879,4.77061745 22.6661879,4.3494094 C22.6661879,3.91289933 22.7491409,3.59034899 22.9130336,3.39061745 C23.0765235,3.19169128 23.2738389,3.0946443 23.5170604,3.0946443 C23.7663221,3.0946443 23.9704832,3.19571812 24.1412215,3.40350336 C24.3123624,3.61128859 24.3993423,3.94551678 24.3993423,4.39732886 C24.3993423,4.80605369 24.3143758,5.11289933 24.1472617,5.30860403 C23.9793423,5.50511409 23.7816242,5.60055034 23.5424295,5.60055034 M22.7116913,5.9432349 C22.9468591,6.09746309 23.2082013,6.17598658 23.4876644,6.17598658 C23.8669933,6.17598658 24.1698121,6.04068456 24.3896779,5.77410738 L24.3896779,6.09867114 L25.0259195,6.09867114 L25.0259195,1.29786577 L24.3514228,1.29786577 L24.3514228,2.89491275 C24.2620268,2.79947651 24.1561208,2.71813423 24.0345101,2.65209396 C23.8677987,2.56189262 23.6749128,2.51638926 23.4622953,2.51638926 C23.1739732,2.51638926 22.9090067,2.59330201 22.675047,2.74591946 C22.4406846,2.89853691 22.262698,3.12041611 22.1463221,3.40551678 C22.0311544,3.68699329 21.9727651,4.00430872 21.9727651,4.3494094 C21.9727651,4.70336913 22.0375973,5.02189262 22.1648456,5.29531544 C22.293302,5.57155705 22.4773289,5.7894094 22.7116913,5.9432349" id="Fill-30"></path>
            <path d="M21.2576376,10.5845369 C21.2576376,11.0041342 21.1686443,11.3226577 20.9938792,11.531651 C20.8183087,11.7406443 20.6169664,11.8421208 20.3781745,11.8421208 C20.0846174,11.8421208 19.8571007,11.704 19.6835436,11.4205101 C19.5780403,11.2477584 19.5244832,10.9590336 19.5244832,10.5619866 C19.5244832,10.1617181 19.6134765,9.85285906 19.7886443,9.64346309 C19.9638121,9.43487248 20.1647517,9.33339597 20.4039463,9.33339597 C20.6407248,9.33339597 20.8368322,9.43124832 21.0047517,9.6325906 C21.1726711,9.8335302 21.2576376,10.1540671 21.2576376,10.5845369 M21.5511946,9.2597047 C21.4259597,9.10104698 21.2644832,8.97661745 21.0703893,8.88883221 C20.8775034,8.80185235 20.6701208,8.75795973 20.4554899,8.75795973 C20.1075705,8.75795973 19.8111946,8.88359732 19.5724027,9.13285906 L19.5724027,7.53943624 L18.8946846,7.53943624 L18.8946846,12.3402416 L19.5309262,12.3402416 L19.5309262,12.0128591 C19.759651,12.2814497 20.0600537,12.417557 20.4264966,12.417557 C20.8436779,12.417557 21.2052886,12.2512483 21.5020671,11.9230604 C21.7980403,11.5964832 21.9482416,11.1297718 21.9482416,10.5366174 C21.9482416,10.286953 21.9128054,10.0485638 21.8431409,9.82869799 C21.7730738,9.60762416 21.6748188,9.41634899 21.5511946,9.2597047" id="Fill-32"></path>
            <path d="M24.7803624,8.83499329 L24.0402282,10.852443 C23.968953,11.047745 23.9053289,11.2486846 23.848953,11.4516376 C23.788953,11.2394228 23.7221074,11.0344564 23.6504295,10.8399597 L22.9425101,8.86841611 L22.9304295,8.83499329 L22.2003624,8.83499329 L23.5115034,12.2964698 C23.4909664,12.3504295 23.4756644,12.3923087 23.466,12.4204966 C23.3862685,12.6455973 23.3290872,12.7865369 23.2952617,12.8396913 C23.2509664,12.908953 23.1933826,12.9637181 23.1241208,13.0027785 C23.0033154,13.0700268 22.8051946,13.0881477 22.5233154,13.0108322 L22.4516376,12.9915034 L22.527745,13.6386174 L22.5575436,13.6486846 C22.6992886,13.6974094 22.8297584,13.7223758 22.9461342,13.7223758 C23.1394228,13.7223758 23.3085503,13.6748591 23.4486846,13.5802282 C23.5876107,13.4880134 23.7120403,13.3410336 23.8171409,13.1445235 C23.8956644,13.0015705 24.0055973,12.7390201 24.1445235,12.3657315 L25.4653289,8.83499329 L24.7803624,8.83499329 Z" id="Fill-34"></path>
        </g>
    </g>
</svg>