<svg width="60" height="40" viewBox="0 0 60 40" fill="none" xmlns="http://www.w3.org/2000/svg">
<rect width="60" height="40" fill="#F3F6F9"/>
<path d="M6 34.8796V27.9014H8.1533C9.71843 27.9014 10.7253 28.4895 10.7253 29.7058C10.7253 30.3936 10.4063 30.8721 9.95768 31.1512C10.6056 31.4503 10.9845 32.0285 10.9845 32.816C10.9845 34.2217 9.95768 34.8796 8.36265 34.8796L6 34.8796ZM7.38568 30.8023H8.4125C9.04052 30.8023 9.30971 30.4933 9.30971 29.9251C9.30971 29.3169 8.82121 29.1176 8.16326 29.1176H7.38568V30.8023ZM7.38568 33.6634H8.24301C9.08041 33.6634 9.56888 33.4541 9.56888 32.7961C9.56888 32.1482 9.1502 31.879 8.36265 31.879H7.38568V33.6634ZM13.6717 34.9992C12.3059 34.9992 11.6181 34.3313 11.6181 33.4341C11.6181 32.4472 12.4256 31.869 13.6218 31.859C13.9191 31.8645 14.2156 31.8911 14.5091 31.9388V31.6995C14.5091 31.0914 14.1601 30.8023 13.4922 30.8023C13.0423 30.7967 12.5955 30.8779 12.1763 31.0416L11.9271 29.965C12.3558 29.7855 13.0436 29.6659 13.6517 29.6659C15.1172 29.6659 15.8449 30.4435 15.8449 31.7893V34.5606C15.4362 34.77 14.6686 34.9992 13.6717 34.9992V34.9992ZM14.5091 33.8728V32.8061C14.2766 32.7544 14.0394 32.7277 13.8013 32.7263C13.3427 32.7263 12.9838 32.9058 12.9838 33.3743C12.9838 33.793 13.2829 34.0123 13.8112 34.0123C14.0515 34.0202 14.2903 33.9724 14.5091 33.8728ZM16.8135 34.8796V30.1045C17.5298 29.8167 18.2944 29.6679 19.0664 29.6659C20.5219 29.6659 21.3593 30.3836 21.3593 31.7095V34.8796H19.9836V31.8092C19.9836 31.1213 19.6646 30.8023 19.0565 30.8023C18.7545 30.7981 18.4552 30.8593 18.1792 30.9818V34.8796L16.8135 34.8796ZM26.1669 29.965L25.9077 31.0515C25.5516 30.8972 25.1692 30.8126 24.7813 30.8023C23.9738 30.8023 23.5351 31.3706 23.5351 32.3077C23.5351 33.3344 23.9937 33.8628 24.851 33.8628C25.2337 33.8523 25.6101 33.7641 25.9576 33.6036L26.1769 34.7102C25.7255 34.911 25.2353 35.0097 24.7414 34.9992C23.0865 34.9992 22.1295 33.9725 22.1295 32.3475C22.1295 30.7325 23.0766 29.6659 24.6616 29.6659C25.1784 29.6633 25.6904 29.765 26.1669 29.965H26.1669ZM29.1389 34.9992C27.6037 34.9992 26.6467 33.9326 26.6467 32.3276C26.6467 30.7325 27.6037 29.6659 29.1389 29.6659C30.6841 29.6659 31.6212 30.7325 31.6212 32.3276C31.6212 33.9326 30.6841 34.9992 29.1389 34.9992H29.1389ZM29.1389 33.8628C29.8467 33.8628 30.2156 33.2746 30.2156 32.3276C30.2156 31.3905 29.8467 30.8023 29.1389 30.8023C28.4411 30.8023 28.0523 31.3905 28.0523 32.3276C28.0523 33.2746 28.4411 33.8628 29.1389 33.8628H29.1389ZM32.4173 34.8796V30.1045C33.1337 29.8167 33.8983 29.6679 34.6703 29.6659C36.1257 29.6659 36.9631 30.3836 36.9631 31.7095V34.8796H35.5874V31.8092C35.5874 31.1213 35.2684 30.8023 34.6603 30.8023C34.3584 30.7981 34.0591 30.8593 33.783 30.9818V34.8796L32.4173 34.8796ZM40.0657 34.9992C38.8794 34.9992 38.2713 34.3513 38.2713 33.0354V30.8821H37.5934V29.7855H38.2713V28.6789L39.647 28.6091V29.7855H40.7536V30.8821H39.647V33.0154C39.647 33.5936 39.8863 33.8628 40.3349 33.8628C40.5126 33.8624 40.6898 33.8423 40.8632 33.803L40.933 34.9096C40.6483 34.9726 40.3573 35.0027 40.0657 34.9992H40.0657ZM43.5381 34.9992C42.1724 34.9992 41.4845 34.3313 41.4845 33.4341C41.4845 32.4472 42.292 31.869 43.4883 31.859C43.7855 31.8645 44.082 31.8911 44.3755 31.9388V31.6995C44.3755 31.0914 44.0266 30.8023 43.3587 30.8023C42.9087 30.7967 42.4619 30.8779 42.0428 31.0416L41.7935 29.965C42.2222 29.7855 42.9101 29.6659 43.5182 29.6659C44.9836 29.6659 45.7113 30.4435 45.7113 31.7893V34.5606C45.3026 34.77 44.535 34.9992 43.5381 34.9992H43.5381ZM44.3755 33.8728V32.8061C44.1431 32.7544 43.9058 32.7277 43.6677 32.7263C43.2091 32.7263 42.8503 32.9058 42.8503 33.3743C42.8503 33.793 43.1493 34.0123 43.6777 34.0123C43.9179 34.0202 44.1567 33.9724 44.3755 33.8728H44.3755ZM50.4181 29.965L50.1589 31.0515C49.8028 30.8972 49.4204 30.8126 49.0325 30.8023C48.225 30.8023 47.7863 31.3706 47.7863 32.3077C47.7863 33.3344 48.2449 33.8628 49.1023 33.8628C49.4849 33.8523 49.8613 33.7641 50.2088 33.6036L50.4281 34.7102C49.9767 34.911 49.4866 35.0097 48.9926 34.9992C47.3377 34.9992 46.3807 33.9725 46.3807 32.3475C46.3807 30.7325 47.3278 29.6659 48.9128 29.6659C49.4296 29.6633 49.9416 29.765 50.4181 29.965H50.4181ZM53.4428 34.9992C52.2565 34.9992 51.6484 34.3513 51.6484 33.0354V30.8821H50.9705V29.7855H51.6484V28.6789L53.0241 28.6091V29.7855H54.1307V30.8821H53.0241V33.0154C53.0241 33.5936 53.2634 33.8628 53.712 33.8628C53.8897 33.8624 54.0669 33.8423 54.2403 33.803L54.3101 34.9096C54.0254 34.9726 53.7344 35.0027 53.4428 34.9992H53.4428Z" fill="#1E3764"/>
<path d="M15.5959 24.4122C22.8755 24.4122 26.5153 19.5592 30.1551 14.7061H6V24.4122H15.5959Z" fill="url(#paint0_linear)"/>
<path d="M44.7142 5C37.4346 5 33.7948 9.85306 30.1551 14.7061H54.3101V5H44.7142Z" fill="url(#paint1_linear)"/>
<defs>
<linearGradient id="paint0_linear" x1="10.8858" y1="20.0073" x2="28.5563" y2="13.444" gradientUnits="userSpaceOnUse">
<stop stop-color="#005AB9"/>
<stop offset="1" stop-color="#1E3764"/>
</linearGradient>
<linearGradient id="paint1_linear" x1="31.6176" y1="15.548" x2="50.3799" y2="9.1467" gradientUnits="userSpaceOnUse">
<stop stop-color="#FBA900"/>
<stop offset="1" stop-color="#FFD800"/>
</linearGradient>
</defs>
</svg>
