<?xml version="1.0" encoding="UTF-8"?>
<svg width="60px" height="40px" viewBox="0 0 60 40" version="1.1" xmlns="http://www.w3.org/2000/svg" xmlns:xlink="http://www.w3.org/1999/xlink">
    <!-- Generator: Sketch 51.3 (57544) - http://www.bohemiancoding.com/sketch -->
    <title>bankaxept</title>
    <desc>Created with Sketch.</desc>
    <defs></defs>
    <g id="bankaxept" stroke="none" stroke-width="1" fill="none" fill-rule="evenodd">
        <g transform="translate(-1.000000, 0.000000)" fill-rule="nonzero">
            <g id="Group">
                <polygon id="Path-3" fill="#6E256B" points="37.7067308 0 11.3076923 40 61 40 61 0"></polygon>
                <path d="M38.4615385,0 C22.9,23.5830769 12.3076923,40 12.3076923,40 L0,40 L0,0 L38.4615385,0" id="Path-2" fill="#048388"></path>
                <path d="M37.5885077,24.9992462 L30.1424923,24.9992462 C30.5144308,27.0900154 31.5558308,28.0627385 33.5321385,27.9024615 C34.8132635,27.7107204 36.0785529,27.4250217 37.3177692,27.0476769 C36.6082615,28.1391538 35.8616308,29.2876769 35.1196462,30.4292154 C33.5063189,30.8493223 31.8155082,30.8744365 30.1904154,30.5024308 C28.0793367,30.079099 26.4710768,28.3602395 26.1888769,26.2257077 C25.594608,23.8424072 26.2449926,21.3202141 27.9176615,19.5214769 C29.7239458,17.7627281 32.3878454,17.2144227 34.7418769,18.1168615 C35.970101,18.6207467 36.8879126,19.6754886 37.2172615,20.9615538 C37.3967626,21.5347496 37.5163759,22.1250052 37.5741846,22.7228615 C37.6351231,23.4212154 37.5885231,24.1291385 37.5885231,24.9992615" id="Fill-6" fill="#FFFFFF"></path>
                <path d="M18.5222769,30.4777231 L14.3986154,30.4777231 C15.8340923,28.3264769 17.1896615,26.2948615 18.5656769,24.2330154 C17.3528075,22.116244 15.9974903,20.0843424 14.5090923,18.1513538 L19.2108769,18.1513538 C19.7681692,19.1717385 20.2974,20.1408308 20.9377538,21.3136154 C21.5614615,20.1744615 22.0875385,19.2138769 22.6766615,18.1379385 L26.5612769,18.1379385 C25.3153538,20.0976154 23.9700462,22.0572923 22.6707846,24.1010154 C23.8849387,26.3171974 25.2780129,28.4305464 26.8361231,30.42 L22.0390308,30.42 C21.5332,29.4530462 21.0512,28.5314154 20.5012923,27.4806" id="Fill-8" fill="#FFFFFF"></path>
                <path d="M2.9112,21.2676923 C3.67175385,20.1053385 4.40424615,18.9857692 5.17427692,17.8091538 C6.80526016,17.6029117 8.45885608,17.6616172 10.0711077,17.983 C11.5998666,18.2768826 12.6661821,19.6691528 12.5515538,21.2216769 C12.5734923,23.0289538 12.5621077,24.8368615 12.5555692,26.6443538 C12.4316762,27.912837 12.6206316,29.192352 13.1058923,30.3708769 L8.86966154,30.3708769 C8.82390769,30.2531692 8.75158462,30.0678 8.67273846,29.8649385 C8.57252513,29.8864373 8.47618343,29.9231166 8.38704615,29.9737077 C6.78257265,31.0647032 4.65366248,30.9794739 3.14153846,29.7637077 C2.4420491,29.0467528 2.08427166,28.0638469 2.15920993,27.0650005 C2.23414821,26.0661542 2.73457972,25.1476353 3.53321538,24.5430769 C4.36832156,24.0317807 5.25333498,23.6068751 6.17455385,23.2749385 C7.00763077,22.9254462 7.87233846,22.6525846 8.69170769,22.3571538 C8.80830769,20.5226308 8.05367692,19.7653231 6.39632308,20.1384308 C5.24781538,20.3968923 4.14443077,20.8597692 2.91115385,21.2678" id="Fill-14" fill="#FFFFFF"></path>
                <path d="M2.26126154,14.4509538 L2.26126154,5.62590769 L4.12496923,5.62590769 L4.12496923,8.50423077 C4.36913846,8.45847692 4.49266154,8.43058462 4.61773846,8.41249231 C5.42998212,8.16294092 6.3128168,8.32307003 6.98567463,8.84199006 C7.65853246,9.36091009 8.03772883,10.174082 8.00275385,11.0230769 C8.04793231,11.8293343 7.90417557,12.6349999 7.58293846,13.3758769 C7.09072754,14.3444721 6.08461293,14.9429027 4.99853846,14.9130615 C4.06154776,14.997226 3.11869764,14.8380591 2.26126154,14.4509692" id="Fill-16" fill="#FBFCFF"></path>
                <path d="M28.1658308,14.7410769 L25.9984615,14.7410769 C25.4354769,13.8137077 24.8577538,12.8618615 24.1484462,11.6939692 L24.1484462,14.7004308 L22.2773692,14.7004308 L22.2773692,5.64 L24.0940769,5.64 L24.0940769,10.8253385 L24.2925385,10.8836615 C24.8390615,10.0833692 25.3858,9.28306154 25.9513077,8.45509231 L27.8614154,8.45509231 C27.1367077,9.47844615 26.4961385,10.3827846 25.8534615,11.2906308 C26.6380769,12.4693692 27.3977538,13.6108615 28.1572308,14.7521692 L28.1658308,14.7410769 Z" id="Fill-18" fill="#FFFFFF"></path>
                <path d="M19.0720308,14.6917077 C19.0720308,13.3507692 19.0872154,12.0468769 19.0676,10.7434 C19.0494615,9.54912308 18.5347692,9.23389231 17.2745077,9.68683077 L17.2745077,14.6929846 L15.3850769,14.6929846 L15.3850769,8.75009231 C16.7610855,8.24481008 18.2588912,8.1733505 19.6767538,8.54533846 C20.4710288,8.72389736 21.020799,9.44917487 20.9781231,10.2621538 C21.0053231,11.7116308 20.9855077,13.1621538 20.9855077,14.6917077 L19.0720308,14.6917077 Z" id="Fill-20" fill="#FFFFFF"></path>
                <path d="M14.2060462,14.4031692 C12.8885316,14.9878639 11.4078901,15.0928387 10.0210615,14.6998769 C9.30778252,14.5404745 8.78077339,13.9361488 8.71989231,13.2078154 C8.54174223,12.4574799 8.89350809,11.6816147 9.57527692,11.3211538 C10.1795273,11.0609574 10.8050442,10.8532324 11.4449077,10.7002769 C11.7090094,10.6401325 11.9769253,10.5981725 12.2467692,10.5746923 C12.2665846,9.36615385 11.6989846,9.20992308 9.5466,9.80823077 C9.45671229,9.68008031 9.37576653,9.54588522 9.30433846,9.4066 C9.23258391,9.21436716 9.17099617,9.01849114 9.11983077,8.81978462 C10.3532407,8.20866016 11.7841497,8.13351673 13.0747846,8.61209231 C13.8104543,8.94073571 14.2584131,9.69808674 14.1920923,10.5010923 C14.2445846,11.7683846 14.2059385,13.0392923 14.2059385,14.4032154" id="Fill-22" fill="#FBFCFF"></path>
                <path d="M33.7584923,22.3486462 L30.1709846,22.3486462 C30.2148462,20.9732615 30.8988615,20.1114154 31.9508,20.0877846 C33.0082154,20.0639538 33.5456769,20.7041846 33.7584923,22.3486462" id="Fill-24" fill="#71286D"></path>
                <path d="M6.58261538,24.8158308 L8.74806154,24.8158308 L8.74806154,27.5564462 C7.77604615,28.2924615 6.89421538,28.2992769 6.23850769,27.5845385 C5.58192308,26.8691538 5.69641538,25.8432462 6.58261538,24.8158308" id="Fill-26" fill="#0E8489"></path>
                <path d="M4.15129231,13.6322154 C4.15129231,12.3723846 4.14875385,11.1810769 4.15466154,9.98976923 C4.16593985,9.8604975 4.1893611,9.73257432 4.22461538,9.60769231 C5.38873846,9.28587692 5.93209231,9.61855385 6.04215385,10.7385538 C6.09483704,11.2634066 6.09448655,11.7922329 6.04110769,12.3170154 C5.92324615,13.4417077 5.46041538,13.7714 4.15124615,13.6322" id="Fill-28" fill="#0E8489"></path>
                <path d="M12.2801385,11.5587538 L12.2801385,13.7440462 C11.7544802,14.0251487 11.1046133,13.9088435 10.7090769,13.4628769 C10.4122732,13.1375262 10.3712448,12.6532961 10.6090769,12.2826462 C10.9428159,11.6962519 11.6240452,11.4011399 12.2800923,11.5587538" id="Fill-30" fill="#17878B"></path>
            </g>
            <path d="M45.5677692,17.3901077 C44.1456858,17.2780774 42.7782762,17.9617793 42.0146462,19.1666615 L42.0146462,18.2784615 L38.4615385,18.2784615 L38.4615385,37.8205077 L42.0146462,31.6025692 L42.0146462,29.826 C48.2326,29.826 50.0091538,26.2728923 50.0091538,23.6080615 C50.0091538,20.9432308 48.2326,17.3901077 45.5677692,17.3901077 Z M42.9029231,27.1611692 L42.9029231,20.9432308 C42.9029231,20.9432308 46.4560462,20.0549385 46.4560462,24.4963385 C46.4560462,28.0494462 42.9029231,27.1611692 42.9029231,27.1611692 Z" id="Shape" fill="#FFFFFF"></path>
            <path d="M55.3388308,12.9487231 L55.3388308,18.2784615 L58.8919385,18.2784615 L57.1153846,20.0549385 L55.3388308,20.0549385 L55.3388308,26.2728923 C55.3388308,26.2728923 56.2271077,29.826 59.7802154,27.1611692 L57.1153846,30.7142923 C57.1153846,30.7142923 51.7857077,31.6025692 51.7857077,28.0494462 L51.7857077,20.9432923 L50.0092308,20.9432923 L55.3388308,12.9487231 Z" id="Shape" fill="#FFFFFF"></path>
        </g>
    </g>
</svg>