<svg width="60" height="40" viewBox="0 0 60 40" fill="none" xmlns="http://www.w3.org/2000/svg">
<rect width="60" height="40" fill="#F3F6F9"/>
<path d="M35.2354 20.302C33.5412 22.341 31.4796 23.9078 29.0208 24.9048C28.4585 25.1297 27.8138 25.2347 27.2066 25.2347H26.7044L26.5544 25.4521C26.5095 25.4971 26.4795 25.5495 26.442 25.6095C27.469 26.644 28.4735 27.6561 29.4556 28.6531C32.1019 25.9993 34.7706 23.3306 37.3869 20.7143C36.9146 20.2345 36.4273 19.7397 35.9401 19.2525C35.7302 19.5823 35.5128 19.9721 35.2354 20.302Z" fill="#DC352A"/>
<path d="M27.7539 20.0396C29.1407 18.158 30.9924 17.0785 32.949 16.2688C31.772 15.0844 30.5801 13.885 29.3656 12.6705C28.646 13.3977 27.9113 14.1398 27.1767 14.882C26.4345 15.6241 25.6923 16.3663 24.9427 17.1085C24.9577 17.1234 24.9652 17.1384 24.9802 17.1459C25.8798 16.6587 26.7793 16.1714 27.7464 15.6541C27.7539 17.1234 27.7539 18.5328 27.7539 20.0396Z" fill="#DC352A"/>
<path d="M31.2173 18.0605C29.5231 18.4503 27.7614 20.152 27.7689 22.4535C27.7914 22.7533 27.7914 23.0532 27.8513 23.3455C27.9938 24.0652 28.4211 24.3201 29.1333 24.1402C31.4272 23.5554 32.9265 21.239 32.5142 18.9151C32.3792 18.2029 31.9295 17.8956 31.2173 18.0605Z" fill="#DC352A"/>
<path d="M24.0731 23.3006C24.0731 21.5614 24.0731 19.7922 24.0731 18.008C23.166 18.9151 22.2889 19.7922 21.4493 20.6243C22.3339 21.5314 23.211 22.4235 24.0731 23.3006Z" fill="#DC352A"/>
<path d="M40.4305 7.46792C40.2881 7.66283 40.1457 7.85774 40.0332 8.01517C40.2131 8.23257 40.3631 8.40499 40.5655 8.64488C39.7483 8.64488 38.4065 8.65237 36.2625 8.65987C36.3074 8.03766 35.3854 7.31799 35.3854 7.31799C35.3854 7.31799 35.1005 7.69282 34.9806 7.89523C35.2129 8.10513 35.5428 8.43498 35.4603 8.65987C34.0435 8.65987 31.832 8.65987 31.3148 8.65987C31.2248 8.65987 31.0974 8.49495 31.0599 8.3825C30.9399 8.04516 30.8949 7.67783 30.76 7.34798C30.3852 6.46339 29.1633 6.31346 28.556 7.05562C28.2187 7.46792 28.2862 7.9402 28.7359 8.21758C28.9384 8.34502 29.1483 8.47246 29.3582 8.5999C28.5485 8.65987 27.7539 8.65237 26.9593 8.66737C26.8843 8.66737 26.7494 8.66737 26.5844 8.66737C26.5545 8.09014 25.8423 7.56538 25.8423 7.56538C25.8423 7.56538 25.5574 7.9402 25.4375 8.14261C25.7074 8.39 25.7823 8.58491 25.7823 8.72734C25.6174 8.74983 25.46 8.78731 25.3175 8.83229C25.2501 8.85478 25.1751 8.87727 25.1001 8.89226C23.6308 9.22211 22.064 9.31956 20.5647 9.10966C19.9425 9.0197 19.0879 8.86228 18.7431 8.26256C18.6156 8.04516 18.6231 7.78278 18.5857 7.54289C18.5782 7.5129 18.2933 7.62535 18.2633 7.64784C18.1659 7.70781 18.0909 7.79027 18.0384 7.88773C17.7461 8.43497 18.1659 8.95973 18.6306 9.22211C18.968 9.40952 19.3578 9.53696 19.7326 9.61943C21.1495 9.93428 22.5813 9.91929 24.0131 9.73937C24.6653 9.65691 25.31 9.42452 25.9622 9.41702C30.3402 9.39453 34.7257 9.40952 39.1036 9.41702C39.7184 9.41702 40.3256 9.43201 40.9403 9.40952C41.0602 9.40203 41.2476 9.28208 41.2851 9.17713C41.48 8.57741 41.0377 7.70032 40.4305 7.46792ZM29.1932 7.34798C29.5006 6.92817 30.2427 7.27301 30.3102 8.24756C30.3102 8.29254 28.8784 7.76779 29.1932 7.34798Z" fill="black"/>
<path d="M26.2771 11.6735L28.5335 10.7439V10.3916L26.2771 11.3286V11.6735Z" fill="black"/>
<path d="M38.0991 11.8834L40.363 10.9538V10.6015L38.0991 11.5385V11.8834Z" fill="black"/>
<path d="M23.5783 7.00314L22.6637 6.62082L22.124 7.07811L23.0536 7.49791L23.5783 7.00314Z" fill="black"/>
<path d="M21.8092 7.04813L20.8946 6.6733L20.3549 7.13059L21.2844 7.5429L21.8092 7.04813Z" fill="black"/>
<path d="M30.1903 5.54132L29.2757 5.159L28.7359 5.61628L29.6655 6.03609L30.1903 5.54132Z" fill="black"/>
<path d="M35.2205 5.96861L34.3059 5.58629L33.7661 6.04358L34.6957 6.46338L35.2205 5.96861Z" fill="black"/>
<path d="M39.2311 9.66439L38.6913 10.1217L39.6209 10.534L40.1456 10.0392L39.2311 9.66439Z" fill="black"/>
<path d="M19.0579 30.0991C19.5527 30.0991 19.6426 30.3015 19.6426 30.7888V32.1157C19.6426 32.4155 19.5602 32.5805 19.3203 32.6479C19.5527 32.7304 19.6426 32.8803 19.6426 33.1802V33.8999C19.6426 34.3272 19.4702 34.5071 19.0579 34.5071H18.5032V32.7079H18.1883V32.5655H18.5032V30.0841H19.0579V30.0991ZM18.6906 32.5805H19.0129C19.3728 32.5805 19.4552 32.4905 19.4552 32.1007V30.7288C19.4552 30.3465 19.3803 30.249 19.0129 30.249H18.6906V32.5805ZM18.6906 34.3721H19.0129C19.3728 34.3721 19.4552 34.2747 19.4552 33.8849V33.2027C19.4552 32.8204 19.3803 32.7154 19.0129 32.7154H18.6906V34.3721Z" fill="black"/>
<path d="M23.5108 34.5154H22.3864V32.7162H22.0715V32.5738H22.3864V30.0924H23.5033V30.2423H22.5738V32.5738H23.5108V32.7162H22.5738V34.3729H23.5108V34.5154Z" fill="black"/>
<path d="M26.1196 30.0999H26.307V30.2274C26.427 30.1074 26.5619 30.0549 26.6969 30.0549C27.1167 30.0549 27.2666 30.2798 27.2666 30.7221V34.5154H27.0792V30.7146C27.0792 30.3698 26.9967 30.2049 26.6969 30.2049C26.5319 30.2049 26.4045 30.2798 26.307 30.4448V34.5154H26.1196V30.0999Z" fill="black"/>
<path d="M31.1123 34.5154H29.9953V32.7162H29.6805V32.5738H29.9953V30.0924H31.1123V30.2423H30.1753V32.5738H31.1123V32.7162H30.1753V34.3729H31.1123V34.5154Z" fill="black"/>
<path d="M33.8036 34.5154V32.7162H33.4887V32.5738H33.8036V30.0924H34.9205V30.2423H33.9835V32.5738H34.9205V32.7162H33.9835V34.5154H33.8036Z" fill="black"/>
<path d="M37.6943 34.5154H37.5144V30.0999H37.7018V34.5154H37.6943Z" fill="black"/>
<path d="M40.2131 30.0999H41.405V30.2498H40.9028V34.5229H40.7153V30.2498H40.2131V30.0999Z" fill="black"/>
<path d="M21.0745 32.8436C21.2029 32.8436 21.3069 32.7396 21.3069 32.6113C21.3069 32.4829 21.2029 32.3789 21.0745 32.3789C20.9462 32.3789 20.8421 32.4829 20.8421 32.6113C20.8421 32.7396 20.9462 32.8436 21.0745 32.8436Z" fill="#DC352A"/>
<path d="M25.0551 32.8436C25.1835 32.8436 25.2875 32.7396 25.2875 32.6113C25.2875 32.4829 25.1835 32.3789 25.0551 32.3789C24.9268 32.3789 24.8228 32.4829 24.8228 32.6113C24.8228 32.7396 24.9268 32.8436 25.0551 32.8436Z" fill="#DC352A"/>
<path d="M28.8859 32.8436C29.0142 32.8436 29.1183 32.7396 29.1183 32.6113C29.1183 32.4829 29.0142 32.3789 28.8859 32.3789C28.7575 32.3789 28.6535 32.4829 28.6535 32.6113C28.6535 32.7396 28.7575 32.8436 28.8859 32.8436Z" fill="#DC352A"/>
<path d="M32.4767 32.8436C32.605 32.8436 32.709 32.7396 32.709 32.6113C32.709 32.4829 32.605 32.3789 32.4767 32.3789C32.3483 32.3789 32.2443 32.4829 32.2443 32.6113C32.2443 32.7396 32.3483 32.8436 32.4767 32.8436Z" fill="#DC352A"/>
<path d="M36.3299 32.8436C36.4582 32.8436 36.5623 32.7396 36.5623 32.6113C36.5623 32.4829 36.4582 32.3789 36.3299 32.3789C36.2015 32.3789 36.0975 32.4829 36.0975 32.6113C36.0975 32.7396 36.2015 32.8436 36.3299 32.8436Z" fill="#DC352A"/>
<path d="M39.5984 32.7537C39.7267 32.7537 39.8308 32.6496 39.8308 32.5213C39.8308 32.393 39.7267 32.2889 39.5984 32.2889C39.47 32.2889 39.366 32.393 39.366 32.5213C39.366 32.6496 39.47 32.7537 39.5984 32.7537Z" fill="#DC352A"/>
<path d="M41.6899 36.8843H18.0834C16.644 36.8843 15.4746 35.7148 15.4746 34.2755V5.60879C15.4746 4.16946 16.644 3 18.0834 3H41.6899C43.1292 3 44.2987 4.16946 44.2987 5.60879V34.2755C44.2987 35.7148 43.1292 36.8843 41.6899 36.8843ZM18.0834 3.14993C16.7265 3.14993 15.6245 4.25192 15.6245 5.60879V34.2755C15.6245 35.6323 16.7265 36.7343 18.0834 36.7343H41.6899C43.0468 36.7343 44.1488 35.6323 44.1488 34.2755V5.60879C44.1488 4.25192 43.0468 3.14993 41.6899 3.14993H18.0834Z" fill="#DC352A"/>
</svg>
