<svg viewBox="13.455 232.275 303.23 169.063" width="303.23" height="169.063">
  <defs>
    <mask id="mask-1" width="12.01" height="12.03" x="14.22" y="3.89" maskUnits="userSpaceOnUse">
      <path fill="#fff" d="M26.23 3.89h-12v12.03h12V3.89z"></path>
    </mask>
    <mask id="b" width="22.84" height="18.11" x="8.88" y="3.89" maskUnits="userSpaceOnUse">
      <path fill="#fff" d="M8.88 22h22.84V3.89H8.88V22z"></path>
    </mask>
  </defs>
  <path fill="#d22028" d="M 13.455 232.275 L 316.685 232.275 L 316.685 401.338 L 13.455 401.338 L 13.455 232.275 Z" style=""></path>
  <path fill="#fff" d="M 227.991 369.866 L 227.839 369.476 L 227.536 369.606 C 226.554 370.046 225.46 370.27 224.352 370.256 C 221.203 370.223 218.721 367.946 218.894 365.249 C 218.894 361.933 221.016 360.047 223.897 360.047 C 225.258 360.033 226.588 360.398 227.687 361.088 C 228.186 359.563 229.008 358.13 230.113 356.861 C 229.466 356.466 228.781 356.118 228.066 355.821 C 226.539 355.243 224.884 354.954 223.215 354.975 C 216.62 354.761 211.293 359.543 211.843 365.184 C 211.288 370.816 216.632 375.584 223.215 375.328 C 225.104 375.337 226.979 375.051 228.749 374.483 L 230.416 373.833 C 229.395 372.614 228.578 371.279 227.991 369.866 L 227.991 369.866 Z M 87.746 359.072 L 90.248 359.072 C 92.522 359.072 94.872 358.552 94.872 356.341 C 94.872 353.935 92.598 353.74 90.324 353.74 L 87.746 353.74 L 87.746 359.072 Z M 87.746 369.931 L 90.4 369.931 C 92.901 369.931 95.555 369.541 95.555 366.94 C 95.555 364.079 92.826 363.819 90.476 363.819 L 87.746 363.819 L 87.746 369.931 Z M 80.772 348.798 L 93.356 348.798 C 97.972 348.271 102.029 351.439 101.847 355.431 C 102.125 358.102 100.251 360.594 97.298 361.478 L 97.298 361.608 C 100.523 362.042 102.807 364.541 102.529 367.33 C 102.529 373.572 96.995 374.873 92.371 374.873 L 80.772 374.873 L 80.772 348.798 Z M 155.518 370.126 C 157.793 370.126 159.688 368.045 159.688 365.184 C 159.688 362.258 158.02 360.112 155.518 360.112 C 152.941 360.112 151.501 362.388 151.501 364.924 C 151.501 368.045 153.017 370.126 155.518 370.126 L 155.518 370.126 Z M 166.359 374.873 L 160.143 374.873 L 160.143 371.947 C 158.836 374.09 156.215 375.404 153.396 375.328 C 147.634 375.328 144.526 370.516 144.526 364.794 C 144.526 360.047 147.483 354.975 152.865 354.975 C 155.545 354.833 158.102 355.955 159.536 357.902 L 159.612 357.902 L 159.612 348.798 L 166.435 348.798 L 166.359 374.873 Z M 246.942 365.184 C 246.942 362.258 245.654 359.657 242.546 359.657 C 239.513 359.657 238.149 362.258 238.149 365.184 C 238.149 368.045 239.437 370.646 242.546 370.646 C 245.654 370.646 246.942 368.045 246.942 365.184 M 231.25 365.184 C 230.536 357.701 239.534 352.361 247.447 355.572 C 251.726 357.309 254.303 361.137 253.917 365.184 C 253.917 372.693 244.441 377.385 236.86 373.631 C 233.342 371.889 231.174 368.669 231.174 365.184 M 134.747 368.696 C 133.915 369.991 132.301 370.772 130.578 370.711 C 129.108 370.826 127.843 369.831 127.849 368.566 C 127.849 366.745 129.592 365.965 131.942 365.965 L 134.823 366.095 L 134.747 368.696 Z M 141.418 374.873 C 141.146 373.367 141.019 371.845 141.039 370.321 L 141.039 362.973 C 141.642 358.376 137.159 354.468 131.791 354.91 C 129.157 354.849 126.541 355.293 124.134 356.211 L 124.134 360.828 C 125.977 359.853 128.11 359.356 130.275 359.397 C 132.7 359.397 134.671 360.047 134.747 362.778 C 133.725 362.587 132.685 362.479 131.639 362.453 C 128 362.453 121.557 363.169 121.557 369.151 C 121.313 372.662 124.747 375.546 128.834 375.263 C 131.334 375.334 133.661 374.172 134.823 372.272 L 134.823 374.873 L 141.418 374.873 Z M 118.297 354.975 C 115.34 354.975 113.748 356.536 112.536 359.007 L 112.46 359.007 L 112.46 355.431 L 106.319 355.431 L 106.319 374.938 L 113.066 374.938 L 113.066 366.68 C 113.066 362.843 114.81 360.568 117.918 360.372 C 118.692 360.364 119.463 360.474 120.192 360.698 L 120.192 355.301 C 119.584 355.108 118.945 354.998 118.297 354.975 M 176.593 363.299 C 176.745 361.088 177.882 359.202 180.383 359.202 C 183.037 359.202 184.022 361.088 184.022 363.299 L 176.593 363.299 Z M 190.087 365.9 C 190.087 360.047 187.509 354.975 180.232 354.975 C 173.907 354.968 169.021 359.74 169.846 365.119 C 169.295 370.76 174.623 375.543 181.217 375.328 C 183.668 375.358 186.098 374.937 188.343 374.093 L 188.343 369.346 C 186.552 370.32 184.475 370.838 182.354 370.841 C 179.095 370.841 177.048 369.801 176.669 367.135 L 190.087 367.135 L 190.087 365.9 Z M 201.458 354.975 C 197.068 354.596 193.229 357.5 193.119 361.283 C 193.119 368.305 202.671 365.965 202.671 369.281 C 202.671 370.581 201.306 370.841 199.942 370.841 C 197.758 370.814 195.608 370.37 193.65 369.541 L 193.65 374.093 C 195.752 374.891 198.022 375.311 200.321 375.328 C 204.718 375.328 209.418 374.028 209.418 368.826 C 209.418 361.413 199.411 363.819 199.411 360.828 C 199.411 359.722 201.079 359.397 202.443 359.462 C 204.376 359.527 206.256 360.02 207.901 360.893 L 207.901 356.146 C 205.843 355.382 203.625 354.984 201.382 354.975" style=""></path>
  <g mask="url(#mask-1)" transform="matrix(7.580758, 0, 0, 6.502424, 13.455047, 232.27475)" style="">
    <path fill="#fff" d="M26.23 15.92h-9.38a2.58 2.58 0 0 1-2.63-2.64v-9.4h9.38a2.58 2.58 0 0 1 2.63 2.64z"></path>
  </g>
  <g mask="url(#b)" transform="matrix(7.580758, 0, 0, 6.502424, 13.455047, 232.27475)" style="">
    <path fill="#d22028" d="M19.1 14.23h.58v-3.04h-.59v3.04z"></path>
  </g>
  <g mask="url(#b)" transform="matrix(7.580758, 0, 0, 6.502424, 13.455047, 232.27475)" style="">
    <path fill="#d22028" d="M20.22 14.23h.97v-4.17h-.97v4.17z"></path>
  </g>
  <g mask="url(#b)" transform="matrix(7.580758, 0, 0, 6.502424, 13.455047, 232.27475)" style="">
    <path fill="#d22028" d="M18.56 7.16a3.04 3.04 0 0 1 2.62-.64 2.8 2.8 0 0 1 1.28.6s.08.08.15.02c0 0 .08-.06-.01-.16a2.93 2.93 0 0 0-1.42-.96 3.73 3.73 0 0 0-2.62.17 2.75 2.75 0 0 0-1.27 1.26 7.35 7.35 0 0 0-1.14.48s-.14.06-.09.17c0 0 .05.08.18.02 0 0 .45-.15.88-.25a3.36 3.36 0 0 0 .93 3.46.13.13 0 0 0 .15.02.1.1 0 0 0 .02-.13 3.86 3.86 0 0 1-.5-1.32 3.17 3.17 0 0 1 .38-2.2 7.19 7.19 0 0 1 3.08.3s2.41.8 1.8 2.26a2.22 2.22 0 0 1-.84.96s-.11.07-.05.16a.13.13 0 0 0 .16.03 2.82 2.82 0 0 0 1.46-1.15s.9-1.37-1.2-2.49a5.77 5.77 0 0 0-1.33-.47 7.7 7.7 0 0 0-2.62-.14"></path>
  </g>
</svg>