<svg width="60" height="40" viewBox="0 0 60 40" fill="none" xmlns="http://www.w3.org/2000/svg">
<path d="M60 0H0V40H60V0Z" fill="#B2FCE4"/>
<path d="M44.0985 18.062L40.8181 24.8363H39.4846L40.7114 22.3026L38.7645 18.062H40.098L41.3382 20.9024L42.6717 18.062H44.0985ZM31.6168 20.4624C31.6168 20.1986 31.5386 19.9408 31.3921 19.7215C31.2456 19.5022 31.0373 19.3313 30.7936 19.2304C30.55 19.1294 30.2818 19.103 30.0232 19.1545C29.7645 19.2059 29.5269 19.3329 29.3404 19.5194C29.1539 19.7059 29.0269 19.9435 28.9754 20.2022C28.924 20.4609 28.9504 20.729 29.0513 20.9727C29.1522 21.2163 29.3232 21.4246 29.5425 21.5711C29.7618 21.7177 30.0196 21.7959 30.2833 21.7959C30.637 21.7959 30.9762 21.6554 31.2263 21.4053C31.4763 21.1552 31.6168 20.816 31.6168 20.4624ZM27.8163 24.823V18.062H29.0031V18.6888C29.1832 18.4632 29.4128 18.2822 29.6741 18.1596C29.9354 18.037 30.2214 17.9763 30.51 17.982C30.827 17.987 31.1397 18.0557 31.4295 18.1842C31.7192 18.3126 31.9802 18.4981 32.1968 18.7296C32.4133 18.9611 32.581 19.2338 32.6899 19.5315C32.7987 19.8292 32.8465 20.1458 32.8303 20.4624C32.8428 20.7809 32.7917 21.0987 32.68 21.3973C32.5683 21.6959 32.3982 21.9692 32.1798 22.2014C31.9613 22.4335 31.6987 22.6198 31.4075 22.7494C31.1162 22.8789 30.8021 22.9492 30.4833 22.956C30.2077 22.9621 29.9342 22.9065 29.6828 22.7935C29.4313 22.6805 29.2083 22.5128 29.0298 22.3026V24.8363L27.8163 24.823ZM37.0976 20.4624C37.0976 20.1087 36.9571 19.7695 36.707 19.5194C36.4569 19.2693 36.1177 19.1288 35.7641 19.1288C35.4104 19.1288 35.0712 19.2693 34.8211 19.5194C34.571 19.7695 34.4306 20.1087 34.4306 20.4624C34.4306 20.816 34.571 21.1552 34.8211 21.4053C35.0712 21.6554 35.4104 21.7959 35.7641 21.7959C36.1177 21.7959 36.4569 21.6554 36.707 21.4053C36.9571 21.1552 37.0976 20.816 37.0976 20.4624ZM37.0976 22.8627V22.2359C36.9135 22.4603 36.6812 22.6403 36.4181 22.7626C36.1549 22.885 35.8676 22.9465 35.5774 22.9427C35.261 22.9378 34.9489 22.869 34.6598 22.7404C34.3707 22.6118 34.1105 22.4261 33.895 22.1944C33.6795 21.9627 33.5131 21.6899 33.4058 21.3922C33.2984 21.0946 33.2524 20.7783 33.2704 20.4624C33.2579 20.1438 33.309 19.826 33.4207 19.5274C33.5324 19.2288 33.7025 18.9555 33.921 18.7234C34.1395 18.4912 34.402 18.3049 34.6933 18.1754C34.9845 18.0458 35.2987 17.9755 35.6174 17.9687C35.9004 17.9654 36.1805 18.0261 36.4368 18.1461C36.6931 18.2662 36.919 18.4426 37.0976 18.6621V18.062H38.2844V22.876L37.0976 22.8627ZM25.6827 18.5421C25.8484 18.2956 26.0954 18.1152 26.3805 18.0323C26.6657 17.9495 26.9709 17.9694 27.2429 18.0887V19.3155C26.9846 19.1664 26.6864 19.1012 26.3895 19.1288C26.1833 19.1709 26.0004 19.2887 25.8769 19.4591C25.7535 19.6295 25.6984 19.84 25.7227 20.049V22.9027H24.5092V18.062H25.6827V18.5421ZM53.2731 17.7953L51.8729 16.9952L50.4594 16.1818C50.2447 16.0609 50.0021 15.9982 49.7557 16C49.5093 16.0018 49.2676 16.068 49.0547 16.192C48.8418 16.316 48.6649 16.4935 48.5417 16.7069C48.4186 16.9203 48.3533 17.1622 48.3525 17.4086V17.582C48.3508 17.6303 48.3624 17.6782 48.3859 17.7205C48.4094 17.7627 48.4439 17.7978 48.4858 17.822L49.1526 18.2087C49.1938 18.2326 49.2406 18.2449 49.2882 18.2445C49.3358 18.2442 49.3825 18.231 49.4233 18.2065C49.4641 18.182 49.4976 18.1471 49.5204 18.1052C49.5431 18.0634 49.5543 18.0163 49.5526 17.9687V17.542C49.548 17.4888 49.5586 17.4355 49.5833 17.3882C49.608 17.3409 49.6456 17.3016 49.6919 17.275C49.7381 17.2484 49.791 17.2355 49.8443 17.2379C49.8976 17.2403 49.949 17.2579 49.9927 17.2886L51.3262 18.0354L52.6597 18.7821C52.7011 18.807 52.7354 18.8422 52.7592 18.8843C52.783 18.9263 52.7955 18.9738 52.7955 19.0222C52.7955 19.0705 52.783 19.118 52.7592 19.1601C52.7354 19.2021 52.7011 19.2373 52.6597 19.2622L51.3262 20.009L49.9927 20.7424C49.9501 20.7686 49.9014 20.7829 49.8514 20.7838C49.8015 20.7848 49.7522 20.7724 49.7087 20.7479C49.6652 20.7234 49.629 20.6878 49.6039 20.6446C49.5788 20.6014 49.5657 20.5523 49.566 20.5024V20.289C49.5551 20.0463 49.4819 19.8106 49.3534 19.6044C49.2249 19.3983 49.0454 19.2287 48.8324 19.1121C48.6193 18.9955 48.3797 18.9358 48.1368 18.9388C47.8939 18.9417 47.6559 19.0072 47.4457 19.1288L45.9921 19.8756L44.6586 20.6891C44.4422 20.8109 44.262 20.9881 44.1367 21.2025C44.0113 21.4169 43.9453 21.6609 43.9453 21.9092C43.9453 22.1576 44.0113 22.4015 44.1367 22.6159C44.262 22.8303 44.4422 23.0076 44.6586 23.1294L46.0588 23.9295L47.4723 24.7429C47.6864 24.8681 47.9299 24.9342 48.1779 24.9345C48.4259 24.9347 48.6695 24.8691 48.8838 24.7443C49.0981 24.6195 49.2754 24.44 49.3976 24.2243C49.5198 24.0085 49.5825 23.7641 49.5793 23.5161V23.3428C49.5809 23.2944 49.5694 23.2465 49.5459 23.2043C49.5224 23.162 49.4878 23.1269 49.4459 23.1027L48.7925 22.716C48.7503 22.6931 48.703 22.6815 48.655 22.6822C48.607 22.6829 48.56 22.6959 48.5185 22.72C48.477 22.7441 48.4424 22.7785 48.418 22.8198C48.3936 22.8612 48.3802 22.9081 48.3791 22.956V23.3828C48.3819 23.4338 48.3706 23.4847 48.3465 23.5298C48.3224 23.5749 48.2864 23.6125 48.2425 23.6386C48.1985 23.6647 48.1482 23.6783 48.0971 23.6779C48.046 23.6774 47.9959 23.663 47.9524 23.6361L46.6189 22.8894L45.2854 22.1426C45.2439 22.1177 45.2097 22.0825 45.1859 22.0405C45.1621 21.9984 45.1496 21.9509 45.1496 21.9026C45.1496 21.8542 45.1621 21.8067 45.1859 21.7647C45.2097 21.7226 45.2439 21.6874 45.2854 21.6625L46.6189 20.9158L47.9524 20.1823C47.9949 20.1562 48.0437 20.1419 48.0936 20.1409C48.1436 20.1399 48.1929 20.1523 48.2364 20.1768C48.2799 20.2013 48.3161 20.237 48.3412 20.2801C48.3663 20.3233 48.3794 20.3724 48.3791 20.4224V20.6357C48.38 20.8821 48.4452 21.124 48.5684 21.3374C48.6916 21.5508 48.8684 21.7284 49.0814 21.8523C49.2943 21.9763 49.536 22.0425 49.7824 22.0443C50.0288 22.0461 50.2714 21.9834 50.4861 21.8626L51.8996 21.0491L53.2998 20.2357C53.5149 20.1115 53.6932 19.9323 53.8162 19.7165C53.9392 19.5007 54.0026 19.2561 53.9999 19.0077C53.9972 18.7593 53.9285 18.5161 53.8007 18.3031C53.673 18.09 53.4909 17.9148 53.2731 17.7953V17.7953ZM10.9207 21.0758C10.7941 21.622 10.4812 22.107 10.0359 22.4477C9.59063 22.7884 9.04063 22.9634 8.48034 22.9427C7.82251 22.9427 7.19163 22.6814 6.72647 22.2162C6.26132 21.7511 6 21.1202 6 20.4624C6 19.8045 6.26132 19.1737 6.72647 18.7085C7.19163 18.2433 7.82251 17.982 8.48034 17.982C9.03082 17.9669 9.56978 18.1415 10.0068 18.4765C10.4438 18.8116 10.7524 19.2867 10.8807 19.8223H9.66717C9.55311 19.6138 9.38542 19.4396 9.18145 19.3177C8.97748 19.1958 8.74463 19.1306 8.50701 19.1288C8.15334 19.1288 7.81415 19.2693 7.56407 19.5194C7.31399 19.7695 7.17349 20.1087 7.17349 20.4624C7.17349 20.816 7.31399 21.1552 7.56407 21.4053C7.81415 21.6554 8.15334 21.7959 8.50701 21.7959C8.75411 21.7992 8.99657 21.7286 9.20328 21.5932C9.40999 21.4577 9.57153 21.2636 9.66717 21.0358L10.9207 21.0758ZM11.4807 22.8627V16.0884H12.6542V22.8627H11.4807ZM14.5078 20.7824C14.5317 21.0925 14.6736 21.3815 14.9044 21.59C15.1351 21.7984 15.4371 21.9103 15.748 21.9026C15.9746 21.903 16.1976 21.8457 16.3959 21.736C16.5943 21.6264 16.7614 21.468 16.8815 21.2758H18.1217C17.9669 21.7828 17.6459 22.223 17.2105 22.5254C16.775 22.8278 16.2505 22.9748 15.7213 22.9427C15.3921 22.958 15.0634 22.9043 14.7563 22.7849C14.4491 22.6655 14.1704 22.4831 13.938 22.2494C13.7056 22.0158 13.5247 21.7361 13.4069 21.4283C13.2892 21.1205 13.2372 20.7915 13.2543 20.4624C13.2451 20.1324 13.3033 19.804 13.4254 19.4973C13.5475 19.1906 13.7308 18.912 13.9642 18.6786C14.1977 18.4452 14.4762 18.2618 14.7829 18.1398C15.0896 18.0177 15.418 17.9595 15.748 17.9687C16.0768 17.9593 16.404 18.0176 16.7093 18.1399C17.0147 18.2623 17.2916 18.4461 17.5229 18.6799C17.7543 18.9137 17.9351 19.1926 18.0541 19.4992C18.1732 19.8059 18.2279 20.1337 18.215 20.4624C18.2287 20.5641 18.2287 20.6673 18.215 20.7691L14.5078 20.7824ZM16.9215 20.0356C16.885 19.7505 16.7428 19.4895 16.523 19.3043C16.3032 19.1191 16.0218 19.0231 15.7347 19.0355C15.4452 19.0254 15.162 19.1215 14.9385 19.3058C14.715 19.49 14.5666 19.7496 14.5212 20.0356H16.9215ZM22.5356 22.8627V22.2493C22.3489 22.4697 22.1159 22.6462 21.8531 22.7661C21.5903 22.8859 21.3042 22.9463 21.0154 22.9427C20.6979 22.9396 20.3843 22.8721 20.0936 22.7443C19.803 22.6165 19.5412 22.4311 19.3243 22.1992C19.1074 21.9673 18.9398 21.6938 18.8316 21.3953C18.7235 21.0968 18.677 20.7794 18.6951 20.4624C18.6826 20.1445 18.7338 19.8273 18.8456 19.5295C18.9575 19.2316 19.1277 18.9592 19.3464 18.7281C19.5651 18.497 19.8277 18.312 20.1189 18.1839C20.4101 18.0557 20.724 17.9871 21.0421 17.982C21.3268 17.9796 21.6086 18.0406 21.8669 18.1605C22.1252 18.2805 22.3536 18.4563 22.5356 18.6755V18.062H23.7091V22.8627H22.5356ZM22.5356 20.4624C22.5356 20.1986 22.4574 19.9408 22.3109 19.7215C22.1643 19.5022 21.9561 19.3313 21.7124 19.2304C21.4687 19.1294 21.2006 19.103 20.9419 19.1545C20.6832 19.2059 20.4456 19.3329 20.2591 19.5194C20.0726 19.7059 19.9456 19.9435 19.8942 20.2022C19.8427 20.4609 19.8691 20.729 19.9701 20.9727C20.071 21.2163 20.2419 21.4246 20.4612 21.5711C20.6805 21.7177 20.9383 21.7959 21.2021 21.7959C21.5534 21.7924 21.8892 21.6503 22.1364 21.4006C22.3836 21.1509 22.5223 20.8137 22.5223 20.4624H22.5356Z" fill="black"/>
</svg>
