<svg version="1.1" xmlns="http://www.w3.org/2000/svg" xmlns:xlink="http://www.w3.org/1999/xlink" x="2000px" y="0px"
	 viewBox="0 0 1918.807 555.403" style="enable-background:new 0 0 1918.807 555.403;" xml:space="preserve">
<g id="dotpay">
	<path id="XMLID_1015_" style="fill:#A01813;" d="M237.49,119.738h-78.486c-44.593,0-78.486,9.296-102.453,27.937
		C20.626,175.612,0,225.531,0,284.069c0,52.582,15.978,96.449,44.593,123.756s58.537,35.926,120.416,35.926h147.675V0H237.49
		V119.738z M237.49,384.536h-72.627c-59.215,0-87.83-33.893-87.83-105.116c0.145-67.204,31.423-100.274,93.302-100.274h67.156
		V384.536z M703.659,119.738h-59.215v59.409h59.215v156.148c0,46.578,6.633,69.189,24.596,87.152
		c17.285,15.978,35.926,21.304,76.5,21.304h63.863v-59.215h-36.604c-45.222,0-53.26-8.667-53.26-59.215V179.147h89.815v-59.409
		h-89.719V0h-75.193L703.659,119.738L703.659,119.738z"/>
	<path id="XMLID_1009_" style="fill:#1D1D1B;" d="M888.229,119.641v435.762h75.29V443.654h69.189
		c61.878,0,90.493-8.667,117.753-34.57c28.615-27.937,45.9-74.515,45.9-125.887c0-56.552-15.978-101.145-47.256-129.712
		c-28.615-25.952-55.197-33.893-117.753-33.893L888.229,119.641z M963.519,178.856h61.878c63.186,0,93.156,31.907,93.156,99.112
		c0,37.911-8.667,67.785-24.596,84.489c-13.315,14.525-37.911,21.933-71.852,21.933h-58.586V178.856z M1332.658,246.157
		c-37.234,0-61.2,3.341-76.5,10.652c-31.181,13.944-50.548,48.563-50.548,89.815c0,32.585,12.637,60.523,35.248,77.856
		c21.304,15.978,39.267,19.367,105.115,19.367h174.305V248.82c0-51.226-6.004-74.515-24.596-96.449
		c-21.304-25.274-45.9-32.585-113.782-32.585h-159.005v59.36h151.694c37.282,0,51.226,4.842,61.2,18.641
		c7.989,11.33,9.296,20.626,9.296,48.418L1332.658,246.157z M1445.084,305.372v79.163h-105.793
		c-40.574,0-56.552-10.652-56.552-38.734c0-17.963,7.989-31.278,21.304-36.604c7.989-3.341,15.3-3.97,35.248-3.97L1445.084,305.372z
		 M1753.023,384.536h-77.759c-46.578,0-59.893-17.285-59.893-79.841V119.738h-75.242v179.631c0,63.863,4.019,83.182,22.611,106.52
		c22.611,27.259,51.904,37.911,105.116,37.911h85.167c-1.307,26.727-3.341,33.893-13.315,40.72
		c-8.667,7.311-18.641,8.667-51.226,8.667h-148.353v59.215h150.338c59.215,0,85.167-7.311,106.52-28.615
		c21.352-21.304,31.278-58.537,31.278-111.894V119.738h-75.242V384.536z"/>
	<path id="XMLID_1004_" style="fill:#1D1D1B;" d="M1874.746,0.775c25.149,0.829,44.865,21.889,44.035,47.038
		s-21.889,44.865-47.038,44.036c-24.612-0.811-44.125-21.032-44.06-45.657c0.263-25.349,21.025-45.685,46.374-45.422
		c0.133,0.001,0.266,0.003,0.398,0.006L1874.746,0.775z M1874.213,9.684c-19.466,0.206-35.08,16.153-34.874,35.619
		c0.002,0.215,0.007,0.431,0.013,0.646c-0.669,19.402,14.517,35.673,33.919,36.342c0.491,0.017,0.983,0.024,1.474,0.02
		c19.948,0.291,34.619-16.075,34.619-36.265c0.722-19.347-14.376-35.616-33.723-36.338c-0.395-0.015-0.791-0.023-1.187-0.024
		H1874.213z M1867.29,69.48h-10.507V24.548c5.741-1.126,11.58-1.678,17.431-1.646c5.51-0.536,11.046,0.72,15.784,3.583
		c2.862,2.396,4.497,5.951,4.455,9.684c-0.297,5.322-4.163,9.766-9.393,10.797v0.533c4.406,1.404,6.924,4.842,8.28,11.088
		c0.375,3.879,1.51,7.647,3.341,11.088h-11.33c-1.751-3.39-2.96-7.033-3.583-10.797c-0.823-4.842-3.583-7.214-9.393-7.214h-4.842
		L1867.29,69.48z M1867.58,44.012h4.842c5.81,0,10.507-1.937,10.507-6.633s-3.05-6.924-9.684-6.924
		c-1.951-0.048-3.901,0.131-5.81,0.533L1867.58,44.012z"/>
	<path id="XMLID_1000_" style="fill:#A01813;" d="M521.268,211.345H464.28c-1.689,0.028-3.289,0.766-4.406,2.034
		c-1.418,1.524-2.198,3.534-2.179,5.616v48.418h70.061v-48.418c0.019-2.082-0.76-4.092-2.179-5.616
		C524.483,212.135,522.924,211.399,521.268,211.345z M492.944,121.917c-88.672,0.08-160.489,72.028-160.409,160.699
		s72.028,160.489,160.699,160.409c88.615-0.08,160.409-71.939,160.409-160.554c0-88.672-71.883-160.554-160.554-160.554
		C493.041,121.917,492.992,121.917,492.944,121.917z M565.232,357.083c-0.053,12.252-9.972,22.171-22.224,22.224H440.217
		c-12.252-0.053-22.171-9.972-22.224-22.224v-66.575c0.019-8.923,5.351-16.977,13.557-20.481v-50.113
		c-0.27-17.639,13.785-32.17,31.423-32.488h56.94c17.638,0.318,31.693,14.849,31.423,32.488v49.871
		c8.402,3.447,13.877,11.641,13.848,20.723L565.232,357.083z"/>
</g>
<g id="&#x421;&#x43B;&#x43E;&#x439;_1">
</g>
</svg>