<?xml version="1.0" encoding="UTF-8"?>
<svg width="60px" height="40px" viewBox="0 0 60 40" version="1.1" xmlns="http://www.w3.org/2000/svg" xmlns:xlink="http://www.w3.org/1999/xlink">
    <!-- Generator: Sketch 51.3 (57544) - http://www.bohemiancoding.com/sketch -->
    <title>eftpos-australia</title>
    <desc>Created with Sketch.</desc>
    <defs></defs>
    <g id="eftpos-australia" stroke="none" stroke-width="1" fill="none" fill-rule="evenodd">
        <g transform="translate(-1.000000, 0.000000)" fill-rule="nonzero">
            <rect id="Rectangle" fill="#7E1336" x="0" y="0" width="61.5384615" height="40"></rect>
            <g id="Eftpos" transform="translate(9.230769, 12.307692)" fill="#FFFFFF">
                <path d="M17.3701231,2.13201538 L14.7685846,2.13201538 L14.7685846,4.36787692 L12.0415385,4.36787692 L12.0415385,3.16667692 C12.0415385,2.54330769 12.2243231,2.2234 12.7567538,2.2234 C12.9657293,2.23455398 13.1713598,2.28063792 13.3651077,2.35973846 L13.3651077,0.336753846 C13.0101618,0.256882657 12.6483702,0.211258149 12.2847077,0.200507692 C10.3985538,0.200507692 9.44009231,1.08349231 9.44009231,2.83212308 L9.44009231,4.36787692 L8.31484615,4.36787692 L8.31484615,6.23898462 L9.44009231,6.23898462 L9.44009231,11.8653692 L12.0415385,11.8653692 L12.0415385,6.23898462 L14.7686,6.23898462 L14.7686,11.8653692 L17.3701385,11.8653692 L17.3701385,6.23898462 L18.4950462,6.23898462 L18.4950462,4.36787692 L17.3701385,4.36787692 L17.3701385,2.13201538 L17.3701231,2.13201538 Z M4.28996923,4.12470769 C3.19668116,4.08061517 2.13484058,4.49611932 1.3618279,5.27050576 C0.588815226,6.0448922 0.1751971,7.10746887 0.221230769,8.20067692 C0.230373415,9.26559791 0.664928287,10.2826567 1.4281358,11.0253912 C2.19134332,11.7681258 3.21983942,12.1748717 4.28461538,12.1550615 C5.70057051,12.174967 7.01758479,11.431021 7.73146154,10.2080308 L5.78443077,9.32681538 C5.49823781,9.88353904 4.90932563,10.217732 4.28461538,10.1779231 C3.39096484,10.2175957 2.62988255,9.53486497 2.57261538,8.64216923 L8.20350769,8.64216923 C8.37333764,7.50574848 8.03806855,6.35185989 7.28570526,5.48338778 C6.53334196,4.61491568 5.43902436,4.11859598 4.29,4.12470769 L4.28996923,4.12470769 Z M2.66273846,7.15126154 C2.76687993,6.34203661 3.45583223,5.73606582 4.27173077,5.73606582 C5.08762931,5.73606582 5.77658161,6.34203661 5.88072308,7.15126154 L2.66273846,7.15126154 Z M40.7267538,7.31858462 C39.6765538,6.99956923 39.0091077,6.96849231 39.0091077,6.45115385 C39.0091077,6.10192308 39.3125846,5.90353846 39.9197231,5.90353846 C40.6978273,5.91977941 41.4521434,6.17475558 42.0805231,6.63393846 L42.6288615,4.80932308 C41.6891933,4.37170455 40.6673921,4.13836513 39.6309077,4.12470769 C37.6692,4.12470769 36.5903846,5.15855385 36.5903846,6.52789231 C36.5903846,7.66869231 37.3052462,8.35333846 38.8556615,8.76207692 C39.8445846,9.02246154 40.4534,9.02246154 40.4534,9.64584615 C40.4534,10.0407846 40.1024923,10.2693077 39.4334,10.2693077 C38.4444262,10.250173 37.4949828,9.8775941 36.7569385,9.21901538 L36.2101077,11.2427846 C37.2405877,11.8656141 38.4271464,12.1820611 39.6309231,12.1550923 C41.6236154,12.1550923 42.8557077,11.0902308 42.8557077,9.58467692 C42.8557077,8.3826 42.1564,7.74456923 40.7267692,7.31861538 L40.7267538,7.31858462 Z M32.1529077,4.11490769 C29.9355889,4.11557038 28.1385522,5.91344498 28.1389232,8.13076388 C28.1392941,10.3480828 29.9369323,12.145356 32.1542512,12.1452767 C34.3715701,12.1451975 36.1690798,10.3477958 36.1692923,8.13047692 C36.1693821,7.06531292 35.7462314,6.0437614 34.9929702,5.29065318 C34.2397091,4.53754495 33.2180717,4.1146016 32.1529077,4.11490769 Z M32.1529077,9.93306154 C31.157472,9.93261976 30.3508287,9.12537961 30.3511232,8.12994383 C30.3514176,7.13450804 31.1585384,6.32774531 32.1539742,6.3278925 C33.1494101,6.3280397 33.9562922,7.13504109 33.9562923,8.13047692 C33.9563904,8.60872078 33.7663974,9.06739349 33.4281529,9.40548794 C33.0899084,9.7435824 32.6311515,9.93337182 32.1529077,9.93306154 Z M23.8753846,4.12629231 C23.0187234,4.08354984 22.1861226,4.41709368 21.5959077,5.03946154 L21.5959077,4.36946154 L19.1616769,4.36946154 L19.1616769,15.1841077 L21.6851231,15.1841077 L21.6851231,12.4105077 C21.6913666,11.971347 21.666174,11.5323026 21.6097385,11.0967385 C22.1438023,11.8046811 22.9947318,12.2009774 23.8802923,12.1541846 C26.0254519,12.055142 27.7145151,10.2885201 27.7172154,8.14107692 C27.7381984,5.9820342 26.0332592,4.20034102 23.8753846,4.12629231 Z M23.4444923,10.0440615 C22.6707165,10.0446901 21.972783,9.57906012 21.6762405,8.86436305 C21.379698,8.14966599 21.5429684,7.32670472 22.089895,6.77934675 C22.6368215,6.23198878 23.4596537,6.06806939 24.1745844,6.36404823 C24.8895151,6.66002707 25.3556953,7.35759319 25.3556769,8.13136923 C25.3557282,9.18715259 24.5002754,10.0432802 23.4444923,10.0440615 Z" id="Fill-1"></path>
            </g>
        </g>
    </g>
</svg>