<svg width="60" height="40" viewBox="0 0 60 40" fill="none" xmlns="http://www.w3.org/2000/svg">
<path d="M60 0H0V40H60V0Z" fill="#F3F6F9"/>
<path d="M49.5081 33.0781C49.4763 31.9318 49.4763 31.1168 49.4763 29.9647C49.4763 28.5277 49.5002 27.0898 49.5081 25.6546H48.4493V29.2107C48.2791 29.0043 48.2394 28.9487 48.1144 28.8334C47.8264 28.5821 47.351 28.2954 46.6531 28.2954C46.4485 28.2954 45.512 28.3077 44.7804 29.1082C43.8947 30.0593 43.9681 31.3456 43.9681 31.5378C43.9822 31.9509 44.0357 32.4111 44.2058 32.8379C44.4907 33.5716 45.1652 34.4767 46.5634 34.4767C46.7141 34.4767 47.5295 34.4767 48.1462 33.8658C48.2589 33.7747 48.3353 33.6732 48.5129 33.4333L48.5588 34.3389H49.5567C49.5294 33.8658 49.5249 33.5468 49.5081 33.0781ZM48.4678 31.4246C48.4678 31.5307 48.4599 31.8877 48.3458 32.2512C48.0689 33.0892 47.4416 33.5468 46.7418 33.5468C46.1773 33.5468 45.6132 33.2381 45.2995 32.5701C45.1259 32.1964 45.0579 31.7688 45.0809 31.3562C45.0809 31.2078 45.0888 30.8627 45.235 30.4417C45.6211 29.3401 46.4967 29.2322 46.7869 29.2322C47.4606 29.2322 48.079 29.6846 48.3458 30.504C48.391 30.6786 48.4811 30.9983 48.4678 31.4246V31.4246ZM43.2295 29.2897C43.5175 29.2897 43.6628 29.3405 43.9487 29.4315V28.3899C43.8947 28.3899 43.5754 28.3404 43.3085 28.3404C42.8787 28.3404 42.3337 28.4442 41.9148 28.9487C41.8437 29.0291 41.7479 29.189 41.6224 29.3979L41.5693 28.4093H40.5688C40.6037 29.1528 40.6218 29.671 40.6218 30.4033C40.6218 31.2625 40.6169 31.8686 40.6169 32.7194V34.3389H41.6913V31.4362C41.7288 30.8739 41.7549 30.1295 42.3337 29.6236C42.7188 29.2897 43.0974 29.2897 43.2295 29.2897V29.2897ZM38.4651 34.3389H39.3712V30.1993C39.2864 29.6789 39.2334 29.4169 39.0744 29.1775C38.7651 28.6598 38.0893 28.2954 37.158 28.2954C36.9862 28.2954 36.3067 28.2954 35.6737 28.5909C35.5408 28.6598 35.4414 28.7278 35.2982 28.7963V29.7284C35.5408 29.5905 36.2215 29.1664 36.9583 29.1664C37.6779 29.1664 38.1215 29.5804 38.2699 29.9678C38.3552 30.2103 38.368 30.5058 38.3769 30.7501C38.1025 30.7364 37.81 30.7254 37.5252 30.7254C36.9403 30.7254 36.24 30.7501 35.6547 31.0369C35.2001 31.2546 34.5777 31.6756 34.5777 32.6258C34.5777 32.7296 34.5906 32.8458 34.6153 32.9651C34.6784 33.3781 34.8808 33.7523 35.1764 34.0027C35.509 34.2846 35.9552 34.3941 36.4083 34.4215C37.0847 34.4414 37.5437 34.2346 37.837 34.0275C38.0893 33.8353 38.2435 33.6507 38.4651 33.3976V34.3389ZM38.4028 31.6677C38.4028 32.059 38.368 32.287 38.3128 32.4689C38.2911 32.5481 38.2231 32.7451 38.0473 32.9757C37.7032 33.4439 37.2508 33.6038 36.8263 33.6038C36.3385 33.6038 35.6896 33.3498 35.6896 32.6536C35.6896 31.9623 36.2957 31.6677 36.8263 31.5378C36.9862 31.5051 37.2384 31.4746 37.606 31.4746C37.8714 31.4746 38.1374 31.4825 38.4028 31.5051V31.6677ZM32.763 34.4299C33.4743 34.4299 33.859 34.2708 34.1913 34.122L34.1117 33.1687C33.9067 33.2589 33.4385 33.4881 32.8747 33.4881C32.7948 33.4881 32.4278 33.4881 32.1224 33.3265C31.2231 32.882 31.0022 31.9755 31.0022 31.301C31.0022 30.3044 31.5022 29.7284 32.0072 29.4523C32.4649 29.196 32.8747 29.2107 33.0395 29.2107C33.4601 29.2318 33.7923 29.3812 33.9607 29.4641L34.0158 28.4999C33.8272 28.4531 33.3859 28.3068 32.8747 28.2954C31.6882 28.26 30.9465 28.8109 30.5123 29.3812C30.0171 30.0279 29.8846 30.8168 29.9058 31.4746C29.9482 33.0507 30.8475 33.9011 31.6356 34.2205C31.8451 34.3151 32.2201 34.4215 32.763 34.4299V34.4299ZM28.3896 33.6865C29.0753 32.9955 29.2723 32.056 29.2621 31.2975C29.2299 29.8406 28.467 28.9712 27.7447 28.5909C27.4929 28.4667 27.0595 28.3068 26.4526 28.3068C25.1224 28.3068 24.2681 28.9959 23.8591 29.7045C23.5684 30.2103 23.4623 30.7947 23.4464 31.3919C23.4354 32.5825 23.8591 33.2835 24.3666 33.7769C24.4894 33.8795 24.6114 33.974 24.7443 34.0531C25.0765 34.2708 25.5531 34.452 26.3377 34.452C26.9394 34.452 27.3356 34.3389 27.591 34.2205C27.8574 34.1074 28.1472 33.9259 28.3896 33.6865V33.6865ZM28.1577 31.3173C28.1577 31.9654 27.9563 32.9147 27.1603 33.364C27.0008 33.4439 26.7269 33.5716 26.3377 33.5716C26.2503 33.5716 25.9282 33.5601 25.6198 33.4108C25.5531 33.375 25.4869 33.3392 25.3292 33.2234C25.1676 33.102 24.944 32.8572 24.7659 32.4443C24.6114 32.0806 24.5588 31.6898 24.5689 31.2975C24.5879 30.4753 24.9303 29.891 25.2876 29.5905C25.5217 29.3948 25.8964 29.1664 26.4526 29.1664C27.3705 29.1775 27.7773 29.8079 27.9789 30.2899C28.0438 30.4634 28.1577 30.8495 28.1577 31.3173V31.3173ZM22.706 29.2897C22.9936 29.2897 23.1403 29.3405 23.4248 29.4315V28.3899C23.3723 28.3899 23.0524 28.3404 22.7865 28.3404C22.3532 28.3404 21.8098 28.4442 21.3896 28.9487C21.3238 29.0291 21.2218 29.189 21.0998 29.3979L21.0464 28.4093H20.0489C20.0807 29.1528 20.1077 29.671 20.1077 30.4033C20.1077 31.2625 20.0913 31.8686 20.0913 32.7194V34.3389H21.1683V31.4362C21.2005 30.8739 21.2332 30.1295 21.8098 29.6236C22.1954 29.2897 22.5735 29.2897 22.706 29.2897ZM17.72 26.9983H18.8619V25.8277H17.72V26.9983ZM15.9756 35.9998C16.4173 35.4164 16.4522 34.8107 16.484 33.568L16.4708 28.4093H15.4776L15.4776 29.3255C15.4436 29.2708 15.2519 28.9712 14.9988 28.7667C14.736 28.5356 14.247 28.2825 13.5807 28.2932C12.9853 28.2932 12.5162 28.5211 12.2851 28.673C11.8999 28.9275 11.698 29.189 11.588 29.3529C11.1233 29.993 11 30.7612 11 31.4136C11 31.5771 11 32.1381 11.1759 32.6642C11.2213 32.8131 11.4206 33.4766 12.0063 33.97C12.331 34.2346 12.8275 34.4988 13.5807 34.463C14.0013 34.4414 14.5783 34.3035 14.9988 33.9484C15.1327 33.8331 15.2117 33.7554 15.3982 33.5013L15.3898 34.3151C15.3663 34.5792 15.3526 34.8434 15.2519 35.1049C15.1989 35.2675 15.1079 35.4164 14.986 35.5546C14.7011 35.8842 14.3366 36.0555 13.6373 36.0803C12.9504 36.0803 12.3863 35.9177 12.1283 35.8285C11.8433 35.7247 11.6654 35.6115 11.5425 35.5431L11.4321 36.5759C11.5991 36.6431 11.7218 36.6885 11.8999 36.7495C12.1849 36.8401 12.8095 37 13.5702 37C14.3901 37 14.9113 36.8127 15.2656 36.6205C15.657 36.3917 15.8425 36.185 15.9756 35.9998V35.9998ZM15.4436 31.4136C15.4436 31.5625 15.4436 32.1505 15.1009 32.6868C14.7461 33.246 14.2138 33.5128 13.7486 33.5128C13.3497 33.5128 12.9398 33.3401 12.6606 33.0781C12.2427 32.6642 12.1208 32.0003 12.1208 31.3664C12.1283 30.4714 12.3863 29.9678 12.8095 29.5804C12.9721 29.4169 13.3042 29.2013 13.7385 29.2013C14.0357 29.2013 14.4117 29.3153 14.7222 29.5658C15.4776 30.1971 15.4436 31.3562 15.4436 31.4136V31.4136ZM18.8328 28.4093H17.7898V34.3397H18.8328V28.4093Z" fill="#004090"/>
<path d="M31.4753 11.6801C31.4605 11.5076 31.3641 11.4529 31.2598 11.4529H29.3099C29.1958 11.4529 29.111 11.4984 29.0939 11.7157L29.0244 13.261C29.0244 13.353 29.0908 13.4875 29.232 13.4875H31.339C31.4722 13.4875 31.5453 13.3586 31.5453 13.2498L31.4753 11.6801ZM30.1664 13.078C30.043 13.078 29.9668 13.0565 29.8256 13.0319C29.8324 12.9804 29.8391 12.9245 29.8403 12.8662C29.9153 12.8993 30.0614 12.9202 30.148 12.9202C30.294 12.9202 30.5065 12.868 30.5065 12.6593C30.5065 12.4279 30.2616 12.3965 30.1301 12.3965C30.1135 12.3965 30.0749 12.3934 29.9841 12.4033C29.9405 12.407 29.8545 12.4365 29.8545 12.4365V11.798H30.6882V11.9269H30.0571V12.2517C30.0632 12.2578 30.1001 12.2492 30.1271 12.2462C30.1676 12.2443 30.2124 12.2424 30.2278 12.2424C30.4635 12.2424 30.746 12.3603 30.746 12.6525C30.746 12.9988 30.3536 13.078 30.1664 13.078Z" fill="#004090"/>
<path d="M34.4511 11.7227C34.4296 11.5772 34.3234 11.4531 34.1957 11.4531H32.244C32.1316 11.4531 32.058 11.5619 32.058 11.6453L32.169 13.2605C32.1857 13.4146 32.3219 13.4877 32.4134 13.4877H34.518C34.6285 13.4798 34.7064 13.3962 34.7064 13.3041C34.7064 13.2857 34.5229 12.2457 34.4511 11.7227ZM33.4165 13.0776C32.9795 13.0776 32.8395 12.6903 32.8395 12.3691C32.8395 12.0099 32.9764 11.7743 33.3932 11.7743C33.4896 11.7743 33.6075 11.7975 33.7002 11.8246C33.6953 11.8701 33.6885 11.9179 33.6854 11.9701C33.6259 11.9351 33.492 11.9161 33.4215 11.9161C33.2134 11.9161 33.063 12.013 33.044 12.2942V12.3691C33.0875 12.2788 33.2803 12.2353 33.3699 12.2353C33.6223 12.2353 33.8709 12.4257 33.8709 12.6958C33.8709 12.9928 33.6223 13.0776 33.4165 13.0776" fill="#004090"/>
<path d="M33.3396 12.3822C33.1805 12.3822 33.0909 12.4909 33.0909 12.6327C33.0909 12.7721 33.2181 12.9354 33.3991 12.9354C33.5354 12.9354 33.6447 12.8452 33.6447 12.6868C33.6447 12.5344 33.5121 12.3822 33.3396 12.3822Z" fill="#004090"/>
<path d="M28.1145 14.0479H25.9737C25.7386 14.0479 25.7214 14.1806 25.7036 14.3149C25.6796 14.4893 25.4009 16.1892 25.3978 16.2077C25.3659 16.4017 25.4678 16.5441 25.5943 16.5441H27.9168C28.1359 16.5374 28.1759 16.3814 28.1961 16.2047L28.3288 14.2671C28.3288 14.1665 28.2471 14.0479 28.1145 14.0479ZM27.5141 14.5747L26.7122 16.0413H26.4403L27.2544 14.6581H26.4538C26.46 14.5833 26.4673 14.5329 26.4753 14.4832H27.5141V14.5747Z" fill="#004090"/>
<path d="M31.5951 14.2808C31.603 14.1586 31.4588 14.0481 31.3588 14.0481H29.2106C29.1209 14.0481 28.9784 14.15 28.976 14.2673L28.8821 16.2779C28.8821 16.389 28.9767 16.5443 29.127 16.5443H31.4502C31.6098 16.5443 31.6865 16.3768 31.6865 16.2706L31.5951 14.2808ZM30.2769 16.041C30.043 16.041 29.7048 15.9188 29.7048 15.594C29.7048 15.392 29.8436 15.2643 30.0775 15.1642C29.8705 15.0703 29.7895 14.9727 29.7895 14.8137C29.7895 14.508 30.1118 14.4472 30.2985 14.4472C30.4679 14.4472 30.8356 14.4944 30.8356 14.8014C30.8356 14.9555 30.7012 15.093 30.5342 15.1698C30.7755 15.2698 30.8706 15.4307 30.8706 15.6007C30.8706 15.955 30.5029 16.041 30.2769 16.041" fill="#004090"/>
<path d="M30.3055 15.0981C30.4086 15.0981 30.5946 14.898 30.5965 14.8102C30.6008 14.6506 30.4222 14.6015 30.3202 14.6015C30.2159 14.6015 30.0286 14.637 30.0286 14.8009C30.0286 14.898 30.2024 15.0981 30.3055 15.0981Z" fill="#004090"/>
<path d="M30.2845 15.2583C30.1452 15.2583 29.9518 15.4904 29.9518 15.5905C29.9518 15.7869 30.1452 15.8668 30.2845 15.8668C30.4171 15.8668 30.6253 15.8054 30.6253 15.6027C30.6253 15.4653 30.4337 15.2583 30.2845 15.2583Z" fill="#004090"/>
<path d="M34.857 14.2604C34.827 14.1113 34.7287 14.0517 34.6029 14.048H32.4559C32.3411 14.048 32.2404 14.1671 32.2404 14.2604C32.2404 14.2788 32.3859 16.1747 32.3859 16.1747C32.4044 16.3729 32.4375 16.5441 32.6598 16.5441H34.9816C35.1057 16.5441 35.191 16.4319 35.191 16.3133C35.191 16.298 34.973 14.8215 34.857 14.2604ZM34.2204 15.4852C34.1621 15.9192 33.9177 16.0414 33.604 16.0414C33.5076 16.0414 33.3333 16.0187 33.2602 15.9837C33.2663 15.8751 33.2731 15.8358 33.2756 15.7922C33.3695 15.8277 33.4892 15.8596 33.5788 15.8596C33.8834 15.8596 33.9956 15.5969 33.9956 15.3765C33.9956 15.3612 33.997 15.3109 33.9859 15.2795C33.8711 15.4269 33.7729 15.433 33.6617 15.433C33.3449 15.433 33.0822 15.2206 33.0822 14.8848C33.0822 14.5662 33.3333 14.4471 33.5855 14.4471C34.0178 14.4471 34.1731 14.7951 34.2204 15.2476C34.2314 15.3428 34.2352 15.3881 34.2204 15.4852Z" fill="#004090"/>
<path d="M33.5992 14.6077C33.4218 14.6077 33.3217 14.7231 33.3217 14.892C33.3217 15.059 33.4611 15.2584 33.6557 15.2584C33.8252 15.2584 33.9264 15.1406 33.9264 14.9773C33.9264 14.8047 33.8252 14.6077 33.5992 14.6077Z" fill="#004090"/>
<path d="M38.372 21.9382L35.1022 8.28336H35.0894L35.0875 8.27532H33.627L33.6282 8.49809H33.6429L33.643 8.50613H34.864L38.019 21.6791L22.6076 21.6724L25.7373 8.50613H26.9778L26.9736 8.28336H26.959L26.9588 8.27532H25.4979L22.2251 21.9247H22.2417L22.2397 21.9327L38.372 21.9382Z" fill="#004090"/>
<path d="M33.2716 3.0536C33.1982 3.02047 33.1182 3 33.0328 3L27.5571 3C27.2324 3 26.9683 3.2646 26.9683 3.58995L26.9695 8.9464H26.9843V8.95444H27.3827L27.3815 3.59799C27.3815 3.49178 27.4668 3.40515 27.5718 3.40515H28.5738V7.30235H27.449L28.9636 8.94024H28.9709L28.9784 8.94827H31.641L33.1536 7.31039H33.1315L33.1389 7.30235H32.0308V3.40515H33.0474C33.0934 3.40515 33.1334 3.42761 33.1666 3.45644C33.2002 3.49145 33.2219 3.53855 33.2219 3.58995V8.9464H33.2365V8.95444H33.6349V3.59799C33.6349 3.35243 33.4844 3.14232 33.2716 3.0536Z" fill="#62C6E9"/>
<path d="M27.9406 17.259C27.9062 17.2406 27.8682 17.2282 27.8257 17.2282H25.4878C25.3172 17.2398 25.1943 17.2987 25.1741 17.489C25.1526 17.7076 24.7506 20.0663 24.7475 20.0847C24.7304 20.1699 24.7868 20.2908 24.8849 20.3429C24.9177 20.3636 24.9549 20.3776 24.9973 20.3776H27.615C27.7827 20.3776 27.9319 20.1535 27.9282 20.0031L28.1044 17.5051C28.1044 17.408 28.0395 17.3034 27.9406 17.259Z" fill="#004090"/>
<path d="M35.3989 17.5259C35.3829 17.3803 35.3151 17.29 35.2019 17.254C35.1603 17.2383 35.1141 17.2282 35.0595 17.2282H32.721C32.535 17.2282 32.4638 17.3804 32.4638 17.5179C32.4638 17.5179 32.6565 20.1221 32.6424 20.0478C32.6601 20.2073 32.7327 20.3092 32.8402 20.3495C32.8788 20.3667 32.9209 20.3776 32.9685 20.3776H35.5714C35.7262 20.3776 35.8078 20.2099 35.8078 20.0927C35.8078 20.0742 35.4923 18.343 35.3989 17.5259Z" fill="#004090"/>
<path d="M30.3825 17.9686C30.3508 17.9533 30.3165 17.943 30.2771 17.943C29.9535 17.9449 29.9228 18.371 29.9149 18.7006C29.9073 19.0012 29.9361 19.3928 30.1668 19.4832C30.2022 19.4999 30.2417 19.511 30.2881 19.511C30.6061 19.511 30.6454 19.0328 30.6454 18.6767C30.6454 18.3996 30.5848 18.049 30.3825 17.9686Z" fill="#004090"/>
<path d="M30.2702 19.7329C30.1489 19.7334 30.0495 19.7103 29.9672 19.6676C29.7222 19.5295 29.6412 19.2035 29.6329 18.7538C29.6293 18.5481 29.6495 18.3252 29.7208 18.1416H29.7164L29.7198 18.1415C29.8112 17.9033 29.9857 17.729 30.3018 17.729C30.4512 17.7274 30.5664 17.764 30.6572 17.8289C30.749 17.8997 30.8131 18.0027 30.8562 18.1323H30.8566C30.91 18.2931 30.9326 18.4893 30.9357 18.7138C30.9473 19.2854 30.7932 19.7329 30.2702 19.7329ZM31.7743 18.1399H31.7731L31.7495 17.5902C31.7636 17.4637 31.6852 17.3267 31.5706 17.2687C31.5317 17.2459 31.4889 17.231 31.4425 17.231H29.0979C28.9831 17.231 28.8333 17.3366 28.8124 17.4852L28.7844 18.1318H28.7827L28.6943 20.0276C28.6943 20.1023 28.7336 20.2627 28.8456 20.3336C28.8817 20.3602 28.9252 20.3781 28.9797 20.3781H31.5901C31.778 20.3781 31.8609 20.1542 31.8609 20.0307L31.7743 18.1399Z" fill="#004090"/>
<path d="M32.6835 10.4741C32.7652 10.4937 32.8333 10.5165 32.9045 10.5213C32.9886 10.5282 33.0089 10.5282 33.0274 10.5282C33.1163 10.5282 33.3158 10.5189 33.3158 10.3507C33.3158 10.2669 33.255 10.2155 33.1842 10.1844C33.1141 10.1495 33.031 10.1358 32.9856 10.1352H32.8173C32.8221 10.0987 32.8173 10.0605 32.818 10.018H32.9727C33.0421 10.018 33.2434 9.96882 33.2434 9.86085C33.2434 9.77808 33.1846 9.73537 33.1177 9.71303C33.0484 9.68551 32.9668 9.68089 32.9309 9.68089C32.8498 9.68089 32.7506 9.70356 32.6546 9.72767C32.647 9.69872 32.64 9.66812 32.635 9.62145C32.6995 9.59867 32.7609 9.58458 32.8413 9.57776C32.9291 9.56862 33.0653 9.57776 33.0653 9.57776C33.1197 9.57776 33.2103 9.59812 33.2899 9.64016C33.369 9.68595 33.4344 9.75485 33.4344 9.85281C33.4344 9.98291 33.3158 10.0412 33.1747 10.0701C33.1821 10.0715 33.1888 10.0746 33.1962 10.0762C33.1938 10.0768 33.1918 10.0777 33.1894 10.0781C33.2334 10.0864 33.2769 10.0984 33.3173 10.1144C33.4314 10.1637 33.5191 10.2459 33.5191 10.371C33.5191 10.6152 33.1305 10.6466 33.0329 10.6466C32.9139 10.6466 32.8009 10.6245 32.6835 10.5983V10.4741ZM34.0569 9.41937C34.049 9.3792 34.015 9.34904 33.9697 9.32791C33.9278 9.30402 33.8745 9.28928 33.8162 9.28928H32.0978C32.0309 9.28928 31.8897 9.33407 31.8897 9.45129L31.98 10.7497C31.9936 10.864 32.0296 10.9202 32.0739 10.9503C32.1119 10.9832 32.1584 10.9904 32.2046 10.9904H34.1386C34.246 10.9862 34.2987 10.9094 34.2987 10.829C34.2987 10.8124 34.1453 9.88781 34.0569 9.41937" fill="#004090"/>
<path d="M29.846 10.4806C29.9025 10.445 30.4852 10.1036 30.4852 9.88205C30.4852 9.80137 30.4348 9.76043 30.3769 9.73918C30.3184 9.71277 30.2487 9.70825 30.2132 9.70825C30.1261 9.70825 30.0193 9.73148 29.916 9.7689C29.9082 9.72829 29.9009 9.69053 29.8958 9.65058C30.0223 9.61437 30.1549 9.59225 30.2733 9.59225C30.3536 9.59225 30.4547 9.60776 30.5383 9.64904C30.6198 9.69384 30.6817 9.76527 30.6817 9.87831C30.6817 10.1491 30.1868 10.378 30.0339 10.5199H30.0587C30.0557 10.5224 30.0513 10.5254 30.0487 10.5278H30.7182C30.7162 10.5595 30.7161 10.5907 30.7184 10.6457H29.846V10.4806ZM31.3693 9.46204C31.3685 9.39963 31.3253 9.35825 31.2737 9.33205C31.2253 9.30321 31.1661 9.28956 31.1255 9.28956H29.4071C29.3223 9.28956 29.1922 9.33502 29.1861 9.47558L29.121 10.7943C29.121 10.8556 29.1672 10.9331 29.2364 10.9656C29.2605 10.9801 29.287 10.9902 29.3168 10.9902H31.2543C31.3214 10.9902 31.4336 10.9079 31.4336 10.8158L31.3693 9.46204Z" fill="#004090"/>
<path d="M27.6314 10.6455H27.4452L27.5504 9.77925C27.5457 9.78145 27.5388 9.78498 27.5337 9.78762L27.5356 9.77122C27.4655 9.8049 27.3285 9.87688 27.3173 9.88271L27.233 9.80446L27.6019 9.60733H27.7441L27.6314 10.6455ZM28.5491 9.31202C28.5208 9.29849 28.4874 9.28924 28.443 9.28924H26.7246C26.5552 9.28924 26.5054 9.33965 26.4901 9.42495C26.4054 9.8848 26.2666 10.8044 26.2641 10.821C26.254 10.8892 26.2774 10.9298 26.3152 10.9541C26.3452 10.9798 26.3893 10.9905 26.4373 10.9905H28.3737C28.4516 10.9905 28.5529 10.9537 28.5738 10.7781C28.5707 10.8505 28.6592 9.50112 28.6592 9.50112C28.6592 9.4124 28.6297 9.3413 28.5491 9.31202Z" fill="#004090"/>
<path d="M27.5282 12.6311L27.5274 12.6392H27.6954C27.6953 12.7036 27.6892 12.7449 27.6956 12.7876H27.5053C27.493 12.8755 27.4795 12.9669 27.4703 13.067H27.2629L27.2904 12.7957H27.2748L27.2757 12.7876H26.6388C26.6454 12.7328 26.6592 12.6342 26.6592 12.6342C26.6592 12.6342 27.1209 12.0823 27.3616 11.8092H27.5953L27.5127 12.6311H27.5282ZM28.5115 11.6317C28.5115 11.5667 28.4567 11.4972 28.3887 11.468C28.3637 11.4545 28.3371 11.4451 28.3095 11.4451H26.3597C26.2259 11.4451 26.1528 11.5181 26.1123 11.6237C26.0466 11.7876 25.8686 13.202 25.8655 13.2205C25.8498 13.3403 25.9095 13.4287 25.9813 13.4628C26.0062 13.4779 26.0326 13.4875 26.0589 13.4875H28.1628C28.2972 13.4875 28.3777 13.4072 28.3991 13.2531C28.3887 13.3286 28.5115 11.6317 28.5115 11.6317Z" fill="#004090"/>
<path d="M27.3845 11.9754L26.8608 12.6373H26.8822L26.8758 12.6454H27.3246L27.3995 11.9836L27.381 12.0069L27.3845 11.9754Z" fill="#004090"/>
</svg>
