<?xml version="1.0" encoding="UTF-8"?>
<svg width="60px" height="40px" viewBox="0 0 60 40" version="1.1" xmlns="http://www.w3.org/2000/svg" xmlns:xlink="http://www.w3.org/1999/xlink">
    <!-- Generator: Sketch 51.3 (57544) - http://www.bohemiancoding.com/sketch -->
    <title>giropay</title>
    <desc>Created with Sketch.</desc>
    <defs></defs>
    <g id="giropay" stroke="none" stroke-width="1" fill="none" fill-rule="evenodd">
        <g transform="translate(-1.000000, 0.000000)" fill-rule="nonzero">
            <g id="Rectangle" fill="#22225F">
                <rect id="path-2" x="0" y="0.00183076923" width="61.4618462" height="39.9981692"></rect>
            </g>
            <g id="Page-1" transform="translate(4.615385, 9.230769)">
                <g id="giropay--65x41--">
                    <g id="Page-1-2">
                        <g id="Group-3" fill="#FFFFFF">
                            <path d="M44.8040615,16.0475692 C45.2284119,16.1380622 45.6611081,16.1836414 46.095,16.1835538 C47.9974769,16.1835538 48.4464462,14.7552 49.0345231,13.2820154 L51.2372615,7.82923077 L49.1615385,7.82923077 L47.9279846,11.6516462 L47.9049077,11.6516462 L46.6135231,7.82923077 L44.3779231,7.82923077 L46.8099692,13.8210462 C46.6963639,14.3057088 46.2581443,14.6440594 45.7605077,14.6313385 C45.4826619,14.6349642 45.2060919,14.5931461 44.9417385,14.5075385 L44.8040615,16.0475692 Z M43.8705077,13.6865385 C43.7867585,13.2305194 43.748269,12.7673415 43.7556,12.3037538 L43.7556,10.1225538 C43.7556,8.33496923 42.4304769,7.69332308 40.8967385,7.69332308 C40.0780527,7.67604586 39.2637703,7.81750211 38.4988769,8.10987692 L38.5341846,9.48218462 C39.1251087,9.17803105 39.7829094,9.02702476 40.4473231,9.043 C41.1955385,9.043 41.8068308,9.25721538 41.8192462,10.0557077 C41.498873,10.0038552 41.1749247,9.97722468 40.8503846,9.97606154 C39.7444615,9.97606154 37.7496615,10.1902769 37.7496615,11.9774923 C37.7496615,13.2486308 38.8098462,13.8210462 39.9973538,13.8210462 C40.7805552,13.8576992 41.5171799,13.4484666 41.8998308,12.7641231 L41.9229077,12.7641231 C41.9229077,13.0687385 41.9568462,13.3709846 41.9692615,13.6864308 L43.8705077,13.6865385 Z M39.6860154,11.8311538 C39.6860154,11.2694462 40.2387846,11.0566462 40.9430154,11.0566462 C41.2540615,11.0566462 41.5543077,11.0778769 41.8192462,11.0900462 C41.8330236,11.443221 41.7058429,11.7873872 41.4657176,12.0467366 C41.2255923,12.306086 40.8922198,12.4593443 40.5390308,12.4727538 C40.0547538,12.4727538 39.6860154,12.2369538 39.6860154,11.8312154 L39.6860154,11.8311538 Z M30.1081846,16.0475538 L32.1825846,16.0475538 L32.1825846,12.8654769 L32.2058,12.8654769 C32.6200331,13.5056821 33.3484674,13.871377 34.1093385,13.8211077 C34.9083364,13.8045364 35.6628851,13.4501368 36.1858255,12.8458143 C36.708766,12.2414918 36.9511071,11.4438619 36.8527385,10.6507692 C36.90839,9.9166128 36.6678397,9.19072921 36.1847667,8.63510049 C35.7016938,8.07947177 35.0163023,7.7403406 34.2815385,7.69338462 C33.3687636,7.62830155 32.4993714,8.09176409 32.0446154,8.88586154 L32.0214154,8.88586154 L32.0214154,7.82923077 L30.1081846,7.82923077 L30.1081846,16.0475538 Z M34.7084615,10.696 C34.7084615,11.6290615 34.2352308,12.2703538 33.4517692,12.2703538 C33.0848419,12.2409876 32.7447133,12.0667127 32.506549,11.7860425 C32.2683846,11.5053723 32.1517925,11.1414143 32.1825385,10.7746 C32.1348413,10.4009079 32.2443611,10.0241794 32.4849668,9.73430064 C32.7255725,9.44442184 33.0756851,9.26739069 33.4517692,9.24544615 C33.8159505,9.25726873 34.1586664,9.4205715 34.3972562,9.695967 C34.6358461,9.97136251 34.7486504,10.33385 34.7084615,10.696 Z M1.06507692,3.44153846 L1.06507692,18.0969231 C1.08790354,19.5618177 2.29344488,20.7311163 3.75835385,20.7092308 L28.3534769,20.7092308 L28.3534769,0.829230769 L3.75835385,0.829230769 C2.29342117,0.807285485 1.08784451,1.97661834 1.06507692,3.44153846 Z" id="Fill-1"></path>
                        </g>
                        <path d="M23.4989538,13.8211231 C24.6896646,13.977861 25.8633469,13.4305465 26.5086281,12.4176443 C27.1539093,11.404742 27.1539093,10.1097195 26.5086281,9.09681727 C25.8633469,8.08391503 24.6896646,7.53660056 23.4989538,7.69333846 C22.3085229,7.53709607 21.1353499,8.08453374 20.4903803,9.09722899 C19.8454106,10.1099242 19.8454106,11.4045373 20.4903803,12.4172325 C21.1353499,13.4299278 22.3085229,13.9773655 23.4989538,13.8211231 Z M23.4989538,12.4049538 C22.5422,12.4049538 22.1506154,11.6290923 22.1506154,10.7638 C22.1506154,9.88670769 22.5422,9.11084615 23.4989538,9.11084615 C24.4567846,9.11084615 24.8486615,9.88670769 24.8486615,10.7638 C24.8486615,11.6290923 24.4567846,12.4049538 23.4989538,12.4049538 Z M19.9260615,7.76116923 C19.6938412,7.72055754 19.4588394,7.69788031 19.2231385,7.69333846 C18.4325736,7.67776757 17.7193382,8.16588164 17.4476154,8.90844615 L17.4244,8.90844615 L17.4244,7.82930769 L15.5340308,7.82930769 L15.5340308,13.6865538 L17.6088,13.6865538 L17.6088,11.2138462 C17.6088,10.0665846 18.1515385,9.38112308 19.1194,9.38112308 C19.3556557,9.36966382 19.5923364,9.39203364 19.8222615,9.44755385 L19.9260615,7.76116923 Z M12.0736,13.6865538 L14.148,13.6865538 L14.148,7.82930769 L12.0736,7.82930769 L12.0736,13.6865538 Z M12.0725231,6.87361538 L14.148,6.87361538 L14.148,5.38967692 L12.0725231,5.38967692 L12.0725231,6.87361538 Z M10.6408462,7.82930769 L8.76153846,7.82930769 L8.76153846,8.88581538 L8.73973846,8.88581538 C8.32208426,8.15120218 7.54323432,7.69627047 6.6982,7.69333846 C4.83096923,7.69333846 3.98906154,8.99884615 3.98906154,10.7412308 C3.90684084,11.4971806 4.15231387,12.252148 4.66339636,12.815189 C5.17447885,13.37823 5.90222829,13.6954264 6.66258462,13.6865538 C7.46147429,13.7163827 8.22113285,13.3396658 8.68090769,12.6856615 L8.70410769,12.6856615 L8.70410769,13.0010462 C8.70410769,14.1473538 8.05864615,14.6982308 6.8604,14.6982308 C6.15412246,14.7098839 5.45625156,14.5437657 4.83096923,14.2151538 L4.72723077,15.8120769 C5.46656922,16.0604945 6.24164709,16.1859651 7.0216,16.1834923 C9.4426,16.1834923 10.6408462,15.4072615 10.6408462,13.0010154 L10.6408462,7.82930769 Z M6.13295385,10.7077692 C6.13295385,9.90930769 6.53701538,9.24535385 7.30943077,9.24535385 C7.67393776,9.23576027 8.02557991,9.38037691 8.27787318,9.64363626 C8.53016645,9.90689562 8.6596998,10.2643691 8.63461538,10.6281385 C8.66954135,11.0061391 8.5472652,11.3818411 8.29654732,11.666876 C8.04582944,11.9519108 7.68879834,12.1211213 7.30943077,12.1347077 C6.95932685,12.1136017 6.63375178,11.9479092 6.41063146,11.6772885 C6.18751114,11.4066679 6.08692705,11.0554757 6.13295385,10.7077692 Z" id="Fill-4" fill="#EC2024"></path>
                    </g>
                </g>
            </g>
        </g>
    </g>
</svg>