<svg width="70" height="70" viewBox="0 0 70 70" fill="none" xmlns="http://www.w3.org/2000/svg">
<path d="M68.9902 62.9968C68.9806 66.1188 66.4444 68.6432 63.3224 68.6383H6.67746C3.55544 68.6432 1.01926 66.1188 1.0097 62.9968V6.64663C1.01926 3.52462 3.55544 1.00017 6.67746 1.00509H63.3224C66.4444 1.00017 68.9806 3.52462 68.9902 6.64663V62.9968Z" fill="#F0B51C"/>
<path d="M6.67749 69.1572C5.03965 69.1617 3.46718 68.515 2.30638 67.3596C1.14557 66.2041 0.491636 64.6346 0.488586 62.9968V6.64665C0.491663 5.00883 1.14561 3.43939 2.30641 2.28396C3.46721 1.12852 5.03967 0.481863 6.67749 0.486382H63.3224C64.9603 0.481863 66.5327 1.12852 67.6935 2.28396C68.8543 3.43939 69.5083 5.00883 69.5113 6.64665V63.0293C69.5083 64.6672 68.8543 66.2366 67.6935 67.392C66.5327 68.5475 64.9603 69.1941 63.3224 69.1896L6.67749 69.1572Z" fill="#F0B51C"/>
<path d="M63.3225 1.0051C66.4445 1.00018 68.9807 3.52463 68.9902 6.64664V63.0293C68.9807 66.1513 66.4445 68.6757 63.3225 68.6708L6.67753 68.6386C3.55542 68.6435 1.0192 66.1189 1.00978 62.9968V6.64664C1.01933 3.52463 3.55551 1.00018 6.67753 1.0051H63.3225ZM63.3225 3.07115e-06H6.67753C3.00024 -0.00348777 0.0135603 2.96937 0 6.64664V62.9968C0.0136543 66.674 3.00031 69.6467 6.67753 69.6432L63.3225 69.6756C66.9997 69.6792 69.9863 66.7064 70 63.0292V6.64664C69.9864 2.96937 66.9998 -0.00348777 63.3225 3.07115e-06Z" fill="white"/>
<path d="M38.9577 35.5675V23.4415L42.1499 22.6958V24.2845C42.6487 23.0752 43.6465 22.1411 44.886 21.7231C45.168 21.6226 45.4718 21.6002 45.7655 21.6582V24.7383C45.1935 24.7454 44.6287 24.8666 44.1043 25.095C42.9042 25.5874 42.1833 26.8232 42.3453 28.1103V34.7893L38.9577 35.5675Z" fill="#1C1601"/>
<path d="M22.2149 39.4906C21.7514 38.3853 21.5722 37.1814 21.6938 35.989V29.9584L20.0651 30.3474V27.851L21.6938 27.4619V24.7709L25.0814 23.9603V26.6838L27.4592 26.1327V28.6292L25.0815 29.1803V35.3081C25.0815 38.0966 25.8307 38.6476 25.8307 38.6476L22.2151 39.4906L22.2149 39.4906Z" fill="#1C1601"/>
<path d="M27.8176 32.2928C27.7134 30.5933 28.05 28.8957 28.7949 27.3646C29.6255 25.8924 31.0716 24.8693 32.7363 24.5761C36.4497 23.7332 37.7852 25.9054 37.72 28.8559C37.6874 29.8934 37.72 30.4122 37.72 30.4122L31.2054 31.9361V32.0333C31.2054 34.0759 31.6288 35.0486 32.9317 34.7892C33.8322 34.6662 34.4935 33.8818 34.4626 32.9736C34.4626 32.8437 34.4952 32.4872 34.4952 32.4872L37.557 31.7739V32.2927C37.5388 34.9148 35.5416 37.0988 32.9316 37.3508C28.8925 38.2585 27.8176 35.8267 27.8176 32.2928ZM32.899 26.8134C31.8241 27.0728 31.2377 28.1103 31.2377 29.8611L34.5276 29.083V28.5642C34.4951 27.2349 34.1042 26.554 32.899 26.8134H32.899Z" fill="#1C1601"/>
<path d="M57.1661 25.1924C57.0357 21.4961 58.013 18.5781 62.1498 17.6379C64.7882 17.0542 65.798 17.7351 66.2866 18.3836C66.8074 19.1675 67.0484 20.1042 66.9706 21.0421V21.2691L63.7459 22.0472V21.5934C63.7459 20.1992 63.355 19.6481 62.3127 19.9074C61.0749 20.1992 60.5863 21.3666 60.5863 23.6684V24.7384C60.5863 27.0728 60.912 28.1427 62.3127 27.8509C63.5505 27.5915 63.7133 26.5216 63.7133 25.5814V24.9653L66.9381 24.2196V24.7059C67.1016 27.5287 65.0784 30.0073 62.2801 30.4123C58.1433 31.385 57.2964 28.9857 57.1661 25.1924Z" fill="#1C1601"/>
<path d="M45.9934 30.3799C45.9934 27.5591 47.6546 26.6837 50.1302 25.6786C52.3778 24.7708 52.4104 24.3169 52.4104 23.5063C52.4104 22.8254 52.1172 22.2419 51.0097 22.5336C50.2471 22.6847 49.6919 23.3452 49.6742 24.1224C49.6416 24.4466 49.6416 24.7384 49.6416 24.7384L46.5146 25.4841C46.5037 24.8604 46.5805 24.2383 46.7426 23.636C47.2313 21.95 48.7296 20.8152 51.3028 20.2316C54.6253 19.4535 55.7328 20.9125 55.7654 23.1821V28.5318C55.7654 31.1256 56.254 31.5147 56.254 31.5147L53.1922 32.228C53.0175 31.8743 52.8757 31.5053 52.7688 31.1256C52.1684 32.2937 51.0625 33.1192 49.7719 33.3627C48.8501 33.7039 47.8172 33.5405 47.0457 32.9315C46.2742 32.3225 45.8755 31.3557 45.9934 30.3799ZM52.4104 26.5217C51.8888 26.8707 51.3447 27.1849 50.7817 27.462C49.8861 27.757 49.2816 28.5941 49.2833 29.537C49.2349 29.9083 49.385 30.2778 49.6786 30.5102C49.9721 30.7427 50.3662 30.804 50.7165 30.6718C51.7965 30.3595 52.5057 29.3279 52.4104 28.2077V26.5217Z" fill="#1C1601"/>
<path d="M4.56027 47.9853C3.48469 47.9846 2.61152 47.1155 2.60588 46.0399C2.59833 45.6578 2.7124 45.2831 2.93161 44.97L2.96417 44.9376H2.99674L7.58944 43.8676V47.3368L7.52431 47.3693C6.48207 47.6287 5.24416 47.888 4.9836 47.9529C4.82104 47.9529 4.69057 47.9853 4.56027 47.9853Z" fill="#1C1601"/>
<path d="M4.56027 52.4272C3.48468 52.4265 2.61152 51.5574 2.60588 50.4818C2.59834 50.0997 2.7124 49.725 2.93161 49.4119L2.96417 49.3795H2.99674L7.58944 48.3095V51.7787L7.52431 51.8111C6.48207 52.0705 5.24416 52.3623 4.9836 52.3948C4.82104 52.3948 4.69057 52.4272 4.56027 52.4272Z" fill="#1C1601"/>
<path d="M4.56027 56.8691C3.4847 56.8684 2.61154 55.9993 2.60588 54.9237C2.59833 54.5416 2.71239 54.1669 2.93161 53.8538L2.96417 53.8213L7.58958 52.7514V56.2205L7.52445 56.2529C6.41694 56.5123 5.21173 56.8041 4.98373 56.8365C4.84412 56.8623 4.70218 56.8732 4.56027 56.8691Z" fill="#1C1601"/>
<path d="M4.03851 43.7375V24.3176L7.58897 23.4736V42.8935L4.03851 43.7375Z" fill="#1C1601"/>
<path d="M12.8991 42.0844C12.8943 40.8825 11.9186 39.9106 10.7166 39.9106C9.5147 39.9106 8.539 40.8825 8.53424 42.0844V60.241C8.54212 63.5074 11.1961 66.1492 14.4626 66.1419L20.6841 66.1419L20.6841 50.0928C20.6856 49.1404 20.2083 48.251 19.4137 47.7259L13.8762 43.9972V52.492C13.8691 52.7585 13.6541 52.9725 13.3876 52.9784C13.2609 52.9796 13.1395 52.9277 13.0528 52.8353C12.9662 52.7429 12.9222 52.6184 12.9315 52.492C12.8991 52.3948 12.8991 43.1868 12.8991 42.0844Z" fill="#1C1601"/>
<path d="M15.8632 28.5318C14.5009 28.8324 13.3429 29.7236 12.7036 30.9635V29.6018L9.51141 30.3475V39.0691C9.89731 38.9254 10.3049 38.8487 10.7166 38.8421C11.5096 38.8325 12.2772 39.1219 12.8665 39.6527V34.0112C12.733 32.8637 13.4079 31.7755 14.4951 31.385C15.2117 31.2229 15.8306 31.4822 15.8306 32.7792V40.9821L19.2183 40.2039V31.5147C19.2183 29.4072 18.3713 27.9482 15.8632 28.5318Z" fill="#1C1601"/>
<path d="M64.8861 16.0816C63.7413 16.0764 62.817 15.145 62.8204 14.0003C62.8239 12.8555 63.7538 11.9298 64.8986 11.9315C66.0434 11.9332 66.9705 12.8617 66.9705 14.0065C66.971 14.5586 66.7512 15.0881 66.3599 15.4776C65.9686 15.8671 65.4382 16.0845 64.8861 16.0816ZM64.8861 12.1909C63.8844 12.1955 63.0757 13.0105 63.0788 14.0121C63.0819 15.0138 63.8956 15.8238 64.8973 15.8222C65.899 15.8207 66.7102 15.0082 66.7102 14.0065C66.7098 13.5236 66.5173 13.0607 66.175 12.72C65.8328 12.3794 65.369 12.189 64.8861 12.1909Z" fill="#1C1601"/>
<path d="M64.1368 12.7743H65.049C65.2273 12.7515 65.4061 12.8123 65.5335 12.9391C65.6608 13.0659 65.7225 13.2444 65.7005 13.4228C65.7005 13.747 65.5702 14.0064 65.277 14.0388C65.5376 14.0712 65.6679 14.2009 65.6679 14.5576V15.0763C65.6608 15.1715 65.7124 15.2614 65.7982 15.3033H65.3422C65.2967 15.2366 65.2738 15.157 65.277 15.0763C65.2813 14.9135 65.2704 14.7507 65.2444 14.59C65.2444 14.2982 65.1467 14.2009 64.8861 14.2009H64.5603V15.3033H64.1369V12.7743H64.1368ZM64.8534 13.9091C65.0738 13.8924 65.2441 13.7087 65.2441 13.4876C65.2441 13.2666 65.0738 13.0829 64.8534 13.0661H64.4951V13.8767L64.8534 13.9091Z" fill="#1C1601"/>
</svg>
