<svg width="40" height="26" viewBox="0 0 40 26" fill="none" xmlns="http://www.w3.org/2000/svg">
<rect width="40" height="26" fill="#FFB3C7"/>
<path d="M33.2028 14.6706C32.7626 14.6706 32.4057 15.0307 32.4057 15.475C32.4057 15.9191 32.7626 16.2793 33.2028 16.2793C33.6431 16.2793 34 15.9192 34 15.475C34 15.0307 33.6431 14.6706 33.2028 14.6706ZM30.5803 14.0487C30.5803 13.4405 30.0651 12.9476 29.4295 12.9476C28.794 12.9476 28.2787 13.4406 28.2787 14.0487C28.2787 14.657 28.7939 15.1501 29.4295 15.1501C30.0651 15.1501 30.5803 14.657 30.5803 14.0487ZM30.5845 11.9085H31.8545V16.1888H30.5845V15.9153C30.2257 16.1621 29.7927 16.3073 29.3255 16.3073C28.0895 16.3073 27.0873 15.2961 27.0873 14.0487C27.0873 12.8013 28.0895 11.7903 29.3255 11.7903C29.7927 11.7903 30.2257 11.9354 30.5845 12.1823V11.9085ZM20.4211 12.4661V11.9086H19.1209V16.1888H20.4241V14.1905C20.4241 13.5162 21.1482 13.1539 21.6507 13.1539C21.6559 13.1539 21.6607 13.1543 21.6658 13.1544V11.9089C21.1501 11.9089 20.6757 12.1318 20.4211 12.4662V12.4661ZM17.1822 14.0488C17.1822 13.4406 16.6669 12.9477 16.0314 12.9477C15.3959 12.9477 14.8806 13.4406 14.8806 14.0488C14.8806 14.657 15.3959 15.1501 16.0314 15.1501C16.667 15.1501 17.1822 14.657 17.1822 14.0488ZM17.1864 11.9086H18.4565V16.1888H17.1864V15.9153C16.8276 16.1622 16.3945 16.3073 15.9275 16.3073C14.6913 16.3073 13.6892 15.2961 13.6892 14.0487C13.6892 12.8013 14.6913 11.7903 15.9275 11.7903C16.3945 11.7903 16.8276 11.9354 17.1864 12.1824V11.9085V11.9086ZM24.8306 11.7935C24.3233 11.7935 23.8431 11.9524 23.5221 12.3909V11.9088H22.2576V16.1889H23.5377V13.9395C23.5377 13.2887 23.9702 12.9699 24.4911 12.9699C25.0492 12.9699 25.3701 13.3064 25.3701 13.9307V16.1889H26.6386V13.467C26.6386 12.4709 25.8537 11.7935 24.8306 11.7935V11.7935ZM11.8393 16.1889H13.1685V10.0012H11.8393V16.1889ZM6 16.1905H7.40753V10H6V16.1905ZM10.9232 10C10.9232 11.3402 10.4056 12.5869 9.48333 13.5136L11.4289 16.1908H9.69047L7.57593 13.2813L8.12167 12.8689C9.02667 12.1848 9.54573 11.1392 9.54573 10H10.9232Z" fill="#0A0B09"/>
</svg>

