<?xml version="1.0" encoding="UTF-8"?>
<svg width="60px" height="40px" viewBox="0 0 60 40" version="1.1" xmlns="http://www.w3.org/2000/svg" xmlns:xlink="http://www.w3.org/1999/xlink">
    <!-- Generator: Sketch 51.3 (57544) - http://www.bohemiancoding.com/sketch -->
    <title>m-pesa</title>
    <desc>Created with Sketch.</desc>
    <defs>
        <polygon id="path-1" points="0 0.0501008949 9.71786024 0.0501008949 9.71786024 6.72727932 0 6.72727932"></polygon>
        <polygon id="path-3" points="0.0184772589 0.0551882092 6.43188213 0.0551882092 6.43188213 6.79265773 0.0184772589 6.79265773"></polygon>
    </defs>
    <g id="m-pesa" stroke="none" stroke-width="1" fill="none" fill-rule="evenodd">
        <rect fill="#F3F6F9" x="0" y="0" width="60" height="40"></rect>
        <g id="Group-23" transform="translate(10.000000, 3.000000)">
            <g id="Group-3" transform="translate(0.000000, 24.719745)">
                <mask id="mask-2" fill="white">
                    <use xlink:href="#path-1"></use>
                </mask>
                <g id="Clip-2"></g>
                <path d="M3.94105247,6.71626046 C3.94105247,6.56565209 3.94105247,6.4506597 3.94105247,6.33560266 C3.94072928,5.24773194 3.92521597,4.15960266 3.94415513,3.07205513 C3.9647749,1.88851901 3.15058479,1.47011217 2.12702966,1.6183289 C1.88288897,1.65368631 1.78832243,1.7693251 1.79039087,2.02684601 C1.80196122,3.47010076 1.7870943,4.91361407 1.8057749,6.35673954 C1.80984715,6.66952662 1.70707148,6.74424905 1.4205924,6.72375856 C1.09907909,6.70087643 0.774721673,6.71735932 0.451592395,6.71761787 C0.00810570342,6.71813498 0.00623117871,6.71852281 0.00590798479,6.25661407 C0.00480912548,4.75945057 0.00519695817,3.26222243 0.00493840304,1.76505894 C0.00493840304,1.50656844 0.0156684411,1.24743156 0.00106007605,0.98971673 C-0.0110920152,0.774922053 0.0787558935,0.653207224 0.266790114,0.562712928 C1.62510951,-0.0910437262 3.00857338,-0.0931768061 4.40632243,0.406998099 C4.63313992,0.488055133 4.8139346,0.51158365 5.04527681,0.397754753 C6.14924259,-0.145534221 8.05589278,0.120971483 8.92147072,0.914865019 C9.41666844,1.36908175 9.67968365,1.94139354 9.69332243,2.60090304 C9.7197597,3.88210837 9.70579772,5.16415399 9.71782053,6.44574715 C9.71982433,6.65911977 9.6462654,6.72808935 9.43618935,6.72130228 C9.03807909,6.70843916 8.63822357,6.7013289 8.24108289,6.72543916 C7.96720837,6.74205133 7.88725019,6.64767871 7.89002966,6.38156084 C7.90147072,5.28302471 7.8995962,4.18429468 7.89196882,3.08569392 C7.89041749,2.86197909 7.88039848,2.62611217 7.81039468,2.41719962 C7.51331483,1.53074335 6.38562662,1.4269981 5.70530342,1.76408935 C5.65785856,1.78761787 5.62301825,1.88664449 5.62372928,1.95011977 C5.64066464,3.42381939 5.66328821,4.89751901 5.68494221,6.37128327 C5.68571787,6.42512738 5.70653156,6.48996008 5.68377871,6.53029468 C5.64428441,6.60029848 5.57932243,6.70675856 5.52263422,6.70824525 C5.00933764,6.72194867 4.49552395,6.71626046 3.94105247,6.71626046" id="Fill-1" fill="#FF0000" mask="url(#mask-2)"></path>
            </g>
            <path d="M16.3058376,28.0536392 L16.3107502,28.0536392 C16.3107502,28.5372665 16.3036399,29.0210878 16.316503,29.504392 C16.3192825,29.6069091 16.3695068,29.7697989 16.4413205,29.7992741 C17.0615297,30.0540802 17.6971875,30.2083084 18.3238605,29.8239662 C18.793138,29.536065 18.9663053,29.0629738 19.0476209,28.5496772 C19.2702369,27.1447532 18.454043,26.2135023 17.0433662,26.2569395 C16.9252065,26.260624 16.8067882,26.274392 16.6890163,26.269738 C16.408484,26.2588141 16.2831494,26.3617837 16.2994384,26.6675251 C16.3240011,27.1283996 16.3058376,27.5915365 16.3058376,28.0536392 M16.3085525,31.307297 L16.3085525,31.6960346 C16.3086171,32.3633008 16.2996323,33.0307608 16.31437,33.6977038 C16.31883,33.8984719 16.2645981,33.9670536 16.0655753,33.9616886 C15.6675943,33.9508939 15.2685144,33.943008 14.8711798,33.9618179 C14.6196703,33.973776 14.5346057,33.9021563 14.5398414,33.6393996 C14.5561951,32.821719 14.5452065,32.0034567 14.5450772,31.1854529 C14.5448833,29.2480992 14.5502483,27.310681 14.5386133,25.3733274 C14.5369973,25.1101829 14.6212863,25.0029471 14.8747996,24.9855593 C15.7960316,24.9223426 16.7165525,24.8013388 17.6377198,24.7974605 C18.6011608,24.7934529 19.5123738,25.0787038 20.1528148,25.8444795 C21.1117958,26.9911068 21.1552977,28.3085099 20.6339859,29.6429776 C20.1195259,30.9599928 18.723716,31.6925441 17.2710886,31.4838901 C16.9667046,31.4402589 16.6655525,31.3734871 16.3085525,31.307297" id="Fill-4" fill="#FF0000"></path>
            <g id="Group-8" transform="translate(33.741445, 24.719745)">
                <mask id="mask-4" fill="white">
                    <use xlink:href="#path-3"></use>
                </mask>
                <g id="Clip-7"></g>
                <path d="M4.6404635,3.19230913 C4.6404635,2.77306198 4.64951293,2.35336236 4.63361179,1.93469696 C4.62999202,1.83961331 4.55488175,1.6794384 4.48772205,1.66489468 C3.77701863,1.51144221 3.07038745,1.45779202 2.48741027,2.01775779 C1.80909087,2.66938137 1.75007567,3.46767034 2.00882471,4.3112711 C2.2241365,5.01324829 2.81519354,5.38091369 3.54509468,5.31478821 C4.26523536,5.24956768 4.63904144,4.84454106 4.64001103,4.12763232 C4.6404635,3.81581483 4.64007567,3.50406198 4.6404635,3.19230913 M4.74459658,6.22929772 C4.29923536,6.4100924 3.88528859,6.66102015 3.44005665,6.74414563 C1.78226578,7.05363612 0.240178327,5.84566654 0.0536954373,4.16518745 C-0.066726616,3.07899734 0.103596578,2.08265513 0.846748669,1.23918365 C1.48402243,0.515875665 2.3028019,0.144202662 3.25241027,0.0732292776 C4.262973,-0.00226882129 5.24587034,0.164951711 6.21041027,0.467073384 C6.45978669,0.545157034 6.42901863,0.728214068 6.42895399,0.906423194 C6.42837224,1.95092129 6.42268403,2.99541939 6.42145589,4.03985285 C6.42055095,4.77214563 6.41182471,5.5047616 6.43128099,6.23653726 C6.43910228,6.53245361 6.37743688,6.6829327 6.04493498,6.64285665 C5.82186654,6.61596692 5.59323916,6.63561711 5.3671327,6.63522928 C4.8666346,6.63438897 4.8666346,6.63458289 4.74459658,6.22929772" id="Fill-6" fill="#FF0000" mask="url(#mask-4)"></path>
            </g>
            <path d="M26.0278856,27.431116 C26.0529654,26.7214468 25.4310757,26.2212072 24.5945205,26.2570171 C23.87257,26.2878498 23.3606308,26.7992072 23.4394255,27.431116 L26.0278856,27.431116 Z M23.3795053,28.7317129 C23.3939844,29.3617471 23.7553152,29.8466027 24.3067487,30.0065837 C25.2537715,30.2813631 26.1830833,30.0875114 27.1104559,29.8827357 C27.1836916,29.866576 27.2554407,29.8438232 27.3286764,29.8279221 C27.3476802,29.8238498 27.3697221,29.8337395 27.4441213,29.8462148 C27.4441213,30.1835 27.4526536,30.5314506 27.4357829,30.878173 C27.4329388,30.936154 27.3288703,31.0092605 27.2565395,31.0408042 C25.9883913,31.5930779 24.6891517,31.6725837 23.3929502,31.1859829 C22.5027449,30.8517357 21.9308209,30.1822719 21.7016764,29.2476597 C21.4299996,28.1393631 21.4784141,27.0571806 22.1154939,26.0784848 C22.8219958,24.9930057 24.1859388,24.5259905 25.5038589,24.8628878 C26.7016802,25.1690817 27.5387525,26.2073745 27.6545205,27.550116 C27.6803114,27.8492643 27.653357,28.1526141 27.6706156,28.4529259 C27.6842544,28.6909259 27.5739806,28.7374658 27.3626118,28.7361084 C26.1463684,28.7285456 24.9300605,28.7319715 23.7137525,28.7317129 C23.6091023,28.7316483 23.5044521,28.7317129 23.3795053,28.7317129 Z" id="Fill-9" fill="#FF0000"></path>
            <path d="M28.4855426,29.8471133 C28.9813867,29.9416798 29.459843,30.0672084 29.9459266,30.1148471 C30.3371852,30.1531133 30.7410483,30.1231856 31.1330825,30.0739954 C31.4077973,30.0396076 31.6432764,29.8913909 31.6775996,29.564965 C31.7119228,29.2390563 31.5120597,29.0562578 31.2529228,28.9497331 C30.9758163,28.8359042 30.6795768,28.7687445 30.3914817,28.68187 C30.1139875,28.5981627 29.8337783,28.5222768 29.5589342,28.4305544 C28.8422194,28.1914555 28.4191586,27.7051779 28.3887783,26.9380449 C28.3558772,26.1059498 28.6707973,25.4452122 29.438189,25.0535011 C30.1539989,24.6881627 30.9201624,24.7292084 31.6827707,24.820349 C32.0335654,24.8622996 32.3802878,24.9520829 32.7220331,25.045292 C32.8074856,25.0686266 32.9235768,25.1856875 32.9280369,25.2651285 C32.949497,25.6493414 32.9376681,26.0353643 32.9376681,26.4323757 C32.4676795,26.3440791 32.030592,26.246927 31.5885274,26.1839042 C31.2809114,26.1400791 30.9665084,26.1271513 30.6552726,26.1292198 C30.2687973,26.1318053 29.9894285,26.3370335 29.9445692,26.6143985 C29.9004209,26.8874327 30.1092042,27.1856114 30.4684665,27.2973719 C30.8888772,27.4281361 31.3207935,27.5214745 31.745535,27.6393757 C32.1852726,27.7614783 32.6099494,27.9224289 32.9053487,28.2948129 C33.6878011,29.28133 33.2626719,30.7716418 32.066919,31.2351665 C30.9041966,31.6858928 29.7629342,31.5286266 28.637573,31.0892122 C28.5733867,31.064197 28.4948506,30.9732502 28.492265,30.9102274 C28.4782384,30.5583338 28.4855426,30.2055354 28.4855426,29.8471133" id="Fill-11" fill="#FF0000"></path>
            <path d="M10.4287243,27.1321616 C11.5356635,27.1321616 12.5870779,27.128154 13.6382985,27.1410817 C13.7083023,27.1419221 13.8331844,27.2678384 13.8366103,27.3401046 C13.8560665,27.7580589 13.8565837,28.1778232 13.8375798,28.5958422 C13.8343479,28.6671388 13.7064278,28.7913099 13.634808,28.7922795 C12.6360095,28.8052719 11.6369525,28.8046901 10.638154,28.7935076 C10.5676977,28.7926673 10.4401654,28.6847205 10.4380323,28.6231198 C10.4212262,28.142789 10.4287243,27.6614886 10.4287243,27.1321616" id="Fill-13" fill="#FF0000"></path>
            <path d="M10.4336498,10.4714506 C12.7821707,10.7333669 14.9583646,9.1786749 16.3157791,7.30415019 C16.3157791,7.30415019 17.0268057,8.85548099 18.3842202,9.24331369 C19.7416346,9.63114639 17.9245738,11.6813593 17.9245738,11.6813593 C17.9245738,11.6813593 14.8614065,11.8611844 10.4336498,10.4714506" id="Fill-15" fill="#55621B"></path>
            <path d="M22.4887829,4.29844677 C21.1960072,7.01327567 17.6130148,10.9186863 12.9310338,11.1348384 C12.9310338,11.1348384 23.9754749,14.058903 28.8880224,7.33646958 L22.4887829,4.29844677 Z" id="Fill-17" fill="#62A623"></path>
            <path d="M22.4887829,4.29844677 C21.9690871,5.38987262 21.082049,6.66196388 19.9032316,7.80729848 L19.9032316,11.6813593 C23.0800338,11.4632034 26.6298019,10.4266559 28.8880224,7.33646958 L22.4887829,4.29844677 Z" id="Fill-19" fill="#62A623"></path>
            <path d="M16.6228133,17.2908422 C16.6228133,17.219481 16.6807297,17.1615646 16.7520909,17.1615646 L17.4631175,17.1615646 C17.5344787,17.1615646 17.5923951,17.219481 17.5923951,17.2908422 L17.5923951,18.0018688 C17.5923951,18.0732947 17.5344787,18.1311464 17.4631175,18.1311464 L16.7520909,18.1311464 C16.6807297,18.1311464 16.6228133,18.0732947 16.6228133,18.0018688 L16.6228133,17.2908422 Z M18.7558932,16.9030095 C18.7558932,16.8316483 18.8138095,16.7737319 18.8851707,16.7737319 L20.307224,16.7737319 C20.3785852,16.7737319 20.4365015,16.8316483 20.4365015,16.9030095 L20.4365015,18.3250627 C20.4365015,18.3964886 20.3785852,18.4543403 20.307224,18.4543403 L18.8851707,18.4543403 C18.8138095,18.4543403 18.7558932,18.3964886 18.7558932,18.3250627 L18.7558932,16.9030095 Z M21.5999996,17.2908422 C21.5999996,17.219481 21.657916,17.1615646 21.7292772,17.1615646 L22.4403038,17.1615646 C22.511665,17.1615646 22.5695814,17.219481 22.5695814,17.2908422 L22.5695814,18.0018688 C22.5695814,18.0732947 22.511665,18.1311464 22.4403038,18.1311464 L21.7292772,18.1311464 C21.657916,18.1311464 21.5999996,18.0732947 21.5999996,18.0018688 L21.5999996,17.2908422 Z M24.9450567,4.72015019 L24.9450567,1.95994487 C24.9450567,0.877439163 24.0675852,-3.23193916e-05 22.9851441,-3.23193916e-05 L16.2396346,-3.23193916e-05 C15.1571289,-3.23193916e-05 14.2796574,0.877439163 14.2796574,1.95994487 L14.2796574,18.0457586 C14.2796574,19.1281996 15.1571289,20.0056711 16.2396346,20.0056711 L22.9851441,20.0056711 C24.0675852,20.0056711 24.9450567,19.1281996 24.9450567,18.0457586 L24.9450567,11.2078156 L23.6199616,11.709154 L23.6199616,15.5779144 L15.5401137,15.5779144 L15.5401137,1.61593726 L23.6199616,1.61593726 L23.6199616,4.05915399 L24.9450567,4.72015019 Z" id="Fill-21" fill="#FF0000"></path>
        </g>
    </g>
</svg>