
<?xml version="1.0"?>
<svg xmlns="http://www.w3.org/2000/svg" viewBox="0 0 1000 192">
  <path d="M-.18 18.86a5.4 5.4 0 0 1 1.21-3.68c.8-.91 2.02-1.37 3.62-1.37h70.04a48.07 48.07 0 0 1 26.52 7.84 49.97 49.97 0 0 1 10.07 8.77 55.52 55.52 0 0 1 14.04 36.66 53.8 53.8 0 0 1-3.57 19.29 53.05 53.05 0 0 1-10.13 16.76 51.68 51.68 0 0 1-15.79 11.9 46.46 46.46 0 0 1-20.38 4.66H42.24v52.17c0 3.14-1.68 4.71-5.05 4.71H4.64a5.17 5.17 0 0 1-3.51-1.15c-.87-.77-1.32-1.96-1.32-3.56v-153Zm82.54 48c0-2.19-.39-4.38-1.15-6.57a17.96 17.96 0 0 0-8.67-10.09 14.9 14.9 0 0 0-7.07-1.64H42.25v36.61h23.22c2.64 0 5.01-.54 7.13-1.59s3.89-2.43 5.31-4.11a18.36 18.36 0 0 0 3.3-5.81 20.57 20.57 0 0 0 1.15-6.8M190.2 18.1c.07-.44.31-.92.7-1.43.4-.51.91-.99 1.5-1.43a7.43 7.43 0 0 1 1.86-1.04 5.09 5.09 0 0 1 1.86-.39h28.07a4.7 4.7 0 0 1 3.18 1.15c.87.77 1.53 1.45 1.98 2.03l2.75 6.25 57.53 148.4c.58 1.46.47 2.65-.33 3.56-.8.91-2.19 1.37-4.16 1.37h-31.46c-1.68 0-2.97-.32-3.89-.94a6.03 6.03 0 0 1-2.14-3.12 928.31 928.31 0 0 1-4.27-11.13l-4.17-11.12h-58.2c-1.39 3.72-2.8 7.44-4.22 11.12-1.42 3.69-2.83 7.4-4.22 11.13-.95 2.7-2.81 4.06-5.6 4.06h-32.32a5.39 5.39 0 0 1-3.46-1.1c-.92-.73-1.08-1.82-.49-3.29L190.2 18.1ZM210.14 65c-1.39 3.73-2.8 7.75-4.22 12.06-1.43 4.32-2.82 8.66-4.23 13.05a993.49 993.49 0 0 1-4.21 12.98 388.74 388.74 0 0 1-4.22 12h33.65L210.14 65Zm128.06 8.88 26.48-56.66c.43-.88.8-1.52 1.1-1.92.29-.41.58-.7.88-.89.28-.18.6-.29.93-.33.32-.03.72-.12 1.15-.27h42.19c.52 0 .93.17 1.27.5.33.33.49.71.49 1.15 0 .81-.51 1.72-1.53 2.74l-51.96 91.95v61.27c0 3.44-1.68 5.15-5.03 5.15h-32.79c-1.47 0-2.6-.46-3.39-1.37a5.5 5.5 0 0 1-1.22-3.78v-61.49L264.94 18.2c-.95-.95-1.43-1.86-1.43-2.74 0-.44.15-.83.44-1.15.3-.33.7-.5 1.21-.5h42.19c.52.15.91.24 1.21.27.3.04.59.15.87.33.3.19.59.48.88.89.29.4.7 1.04 1.2 1.92l26.69 56.66Zm89.82-55.24c0-1.32.4-2.45 1.2-3.4.8-.95 2.02-1.43 3.63-1.43h35.84c1.02 0 2.08.26 3.18.77a6.87 6.87 0 0 1 2.84 2.63 8592.97 8592.97 0 0 0 27.63 44.28c9.13 14.55 18.37 29.3 27.72 44.28V17.99c.3-1.32.88-2.34 1.76-3.07s1.9-1.1 3.07-1.1h31.24c1.55 0 2.82.41 3.83 1.26a4.3 4.3 0 0 1 1.54 3.56V172.3c0 1.47-.44 2.54-1.32 3.24a5.65 5.65 0 0 1-3.62 1.04h-34.97c-.95 0-1.79-.32-2.51-.99a16.6 16.6 0 0 1-2.31-2.63l-28.83-47.67c-9.49-15.71-19.14-31.6-28.93-47.68v94.15c0 1.61-.37 2.81-1.1 3.62-.74.81-2.06 1.21-3.95 1.21h-31.12c-1.68 0-2.91-.45-3.68-1.37a5 5 0 0 1-1.15-3.34V18.64Zm400.72 155.64a58.73 58.73 0 0 1-2.09-3.84 45.39 45.39 0 0 1-1.75-3.95 21444.4 21444.4 0 0 0-28.17-73.87c-9.35-24.41-18.74-49.03-28.16-73.87 0-.37-.06-.7-.17-.99-.1-.29-.16-.58-.16-.88 0-2.05 1.35-3.07 4.06-3.07h35.28c2.79 0 4.69 1.39 5.71 4.17l33.52 99.84 31.02-99.84c1.04-2.78 3.03-4.17 6.04-4.17h35.62c1.69 0 2.87.31 3.56.93.7.63 1.04 1.45 1.04 2.47 0 .59-.03.99-.11 1.21v.33l-19.5 55.9 14.69 43.06 35.51-99.73c1.04-2.78 3.04-4.17 6.04-4.17h34.52c1.67 0 2.86.31 3.57.93a3.22 3.22 0 0 1 1.04 2.47c0 .59-.03.99-.11 1.21v.33a2649.15 2649.15 0 0 1-15.23 38.47c-5.2 12.79-10.41 25.57-15.63 38.36a6420.44 6420.44 0 0 0-15.56 38.41 2646.02 2646.02 0 0 0-15.07 38.41 7.7 7.7 0 0 1-1.98 2.69 5.15 5.15 0 0 1-3.73 1.48H905.7c-1.62 0-2.84-.32-3.68-.94a5.18 5.18 0 0 1-1.82-2.46l-17.31-45.6c-2.49 6.66-4.94 13.17-7.35 19.57-2.41 6.39-4.82 12.92-7.24 19.56a60.1 60.1 0 0 1-1.25 3.23 20.05 20.05 0 0 1-1.7 3.18c-.67.99-1.42 1.81-2.25 2.47-.85.66-1.82.99-2.91.99h-26.85c-2.35 0-3.88-.76-4.6-2.3" style="fill:#91278c"/>
  <path d="M623.35 20.93c-41.41 32.27-48.83 92.19-16.57 133.58a94.62 94.62 0 0 0 75.13 36.67 94.3 94.3 0 0 0 58.45-20.11 94.49 94.49 0 0 0 35.9-63.37 94.44 94.44 0 0 0-19.34-70.21 96.42 96.42 0 0 0-13.54-14.14 5.83 5.83 0 0 0-8.48 1.03l-52.61 72.28-26.38-32.25a5.39 5.39 0 0 0-4.16-2.04c-1.7 0-3.26.83-4.32 2.28l-11.2 15.38a7.05 7.05 0 0 0 .24 8.36l42.81 52.33a5.38 5.38 0 0 0 4.15 2.05c1.69 0 3.26-.84 4.32-2.29l55-75.55a68.42 68.42 0 0 1-18.89 85.02 67.69 67.69 0 0 1-41.97 14.44 68.06 68.06 0 0 1-54.01-26.35 68.06 68.06 0 0 1-13.89-50.45 67.98 67.98 0 0 1 25.8-45.52 67.7 67.7 0 0 1 41.97-14.46c9.38 0 18.46 1.86 26.97 5.48a6.93 6.93 0 0 0 8.06-2.18l8.88-12.2a5.5 5.5 0 0 0-2.04-8.28A94.57 94.57 0 0 0 681.75.81a94.28 94.28 0 0 0-58.44 20.11" style="fill:#95288d"/>
</svg>
