<svg width="90" height="32" viewBox="0 0 90 32" fill="none" xmlns="http://www.w3.org/2000/svg">
<path d="M36.5696 29.5421C36.2555 29.5421 36.0011 29.288 36.0011 28.9747V11.4552C36.0011 7.75746 39.0156 4.74918 42.7211 4.74918L48.1734 4.75726C51.8668 4.76462 54.8714 7.76878 54.8714 11.4543V16.0036C54.8714 19.7014 51.8569 22.7096 48.1512 22.7096H39.593C39.2791 22.7096 39.0245 22.4556 39.0245 22.1423C39.0245 21.829 39.2791 21.5747 39.593 21.5747H48.1512C51.2295 21.5747 53.734 19.0756 53.734 16.0036V11.4543C53.734 8.39323 51.2388 5.89827 48.1714 5.89217L42.7202 5.88409C39.6427 5.88409 37.1384 8.38336 37.1384 11.4552V28.9747C37.1384 29.288 36.8838 29.5421 36.5696 29.5421Z" fill="#97979B"/>
<path d="M60.7141 22.7914C60.4002 22.7914 60.1456 22.5374 60.1456 22.2241V7.8326C60.1456 6.75641 59.2681 5.88094 58.1899 5.88094H55.825C55.5111 5.88094 55.2565 5.62671 55.2565 5.3134C55.2565 5.00009 55.5111 4.74604 55.825 4.74604H58.1899C59.8953 4.74604 61.2829 6.13069 61.2829 7.8326V22.2241C61.2829 22.5374 61.0281 22.7914 60.7141 22.7914Z" fill="#97979B"/>
<path d="M60.2077 3.30096L59.1352 2.23069C58.8693 1.96514 58.8693 1.53459 59.1352 1.26905L60.207 0.199495C60.4737 -0.0664117 60.9056 -0.0664117 61.1719 0.199495L62.2437 1.26905C62.51 1.53459 62.51 1.96514 62.2437 2.23069L61.1714 3.30096C60.9053 3.56651 60.4738 3.56651 60.2077 3.30096Z" fill="#4BB8A9"/>
<path d="M67.5676 22.7097H65.2224C64.9084 22.7097 64.6538 22.4556 64.6538 22.1423C64.6538 21.829 64.9084 21.5748 65.2224 21.5748H67.5676C68.6307 21.5748 69.6304 21.1617 70.3821 20.4115L75.8676 15.0393C76.3185 14.589 76.9182 14.3411 77.5562 14.3411C78.194 14.3411 78.7939 14.589 79.2446 15.0393L84.71 20.3914C85.4617 21.1417 86.4613 21.5549 87.5244 21.5549H89.4314C89.7454 21.5549 90 21.8089 90 22.1224C90 22.4357 89.7454 22.6898 89.4314 22.6898H87.5244C86.1574 22.6898 84.8726 22.1585 83.9059 21.1938L78.4407 15.8417C78.2043 15.606 77.8901 15.476 77.5562 15.476C77.2219 15.476 76.9079 15.606 76.6719 15.8417L71.186 21.2137C70.2194 22.1784 68.9346 22.7097 67.5676 22.7097Z" fill="#97979B"/>
<path d="M67.5676 4.74717H65.2224C64.9084 4.74717 64.6538 5.00123 64.6538 5.31453C64.6538 5.62784 64.9084 5.88208 65.2224 5.88208H67.5676C68.6307 5.88208 69.6304 6.29521 70.3821 7.04535L75.8676 12.4175C76.3185 12.8678 76.9182 13.1158 77.5562 13.1158C78.194 13.1158 78.7939 12.8678 79.2446 12.4175L84.71 7.06528C85.4617 6.31514 86.4613 5.90201 87.5244 5.90201H89.4314C89.7454 5.90201 90 5.64795 90 5.33446C90 5.02116 89.7454 4.7671 89.4314 4.7671H87.5244C86.1574 4.7671 84.8726 5.29837 83.9059 6.26289L78.4407 11.6151C78.2043 11.8509 77.8901 11.9809 77.5562 11.9809C77.2219 11.9809 76.9079 11.8509 76.6719 11.6151L71.186 6.24296C70.2194 5.27844 68.9346 4.74717 67.5676 4.74717Z" fill="#97979B"/>
<path d="M6.60301 24.6556C7.78004 24.6556 8.88709 24.1983 9.71939 23.3681L14.2192 18.8777C14.5349 18.5615 15.0857 18.5624 15.4014 18.8777L19.9176 23.3844C20.7501 24.2146 21.8569 24.6719 23.0341 24.6719H23.9208L18.2218 30.359C16.4419 32.1353 13.5562 32.1353 11.7762 30.359L6.06091 24.6556H6.60301Z" fill="#4BB8A9"/>
<path d="M23.034 8.77216C21.8569 8.77216 20.7499 9.22946 19.9176 10.0597L15.4014 14.5673C15.0761 14.892 14.545 14.8932 14.219 14.567L9.71922 10.076C8.88691 9.24598 7.77986 8.7885 6.60283 8.7885H6.06091L11.7762 3.08524C13.5562 1.309 16.4417 1.309 18.2217 3.08524L23.9204 8.77216H23.034Z" fill="#4BB8A9"/>
<path d="M1.33496 13.5061L4.73921 10.1089H6.60426C7.41606 10.1089 8.21076 10.4375 8.78434 11.0104L13.2841 15.5008C13.7051 15.9209 14.2586 16.1312 14.8113 16.1312C15.3645 16.1312 15.9174 15.9209 16.3384 15.5012L20.855 10.994C21.4287 10.4211 22.2234 10.0925 23.0352 10.0925H25.2448L28.6654 13.5061C30.4454 15.2823 30.4454 18.162 28.6654 19.9383L25.245 23.3516H23.0352C22.2234 23.3516 21.4287 23.023 20.855 22.4501L16.3388 17.9433C15.5225 17.1296 14.0997 17.1293 13.2841 17.9439L8.78434 22.4338C8.21076 23.0067 7.41606 23.3353 6.60426 23.3353H4.73903L1.33496 19.9383C-0.444986 18.162 -0.444986 15.2823 1.33496 13.5061Z" fill="#4BB8A9"/>
</svg>
