<svg xmlns="http://www.w3.org/2000/svg" width="400" height="209.23" viewBox="0 0 400 209.23"><g fill-rule="evenodd"><path fill="#174361" d="M27.95 46.2c-.28 1.12-.13 116.5.15 116.68.34.22 345.76.22 346.1 0 .39-.24.4-116.2 0-116.83l-.25-.42H28.08l-.14.57m342.98 3.39.5.4.05 54.35c.06 62.44.35 55.47-2.3 55.67-4.83.38-337.76.02-338.14-.36-.5-.51-.6-109.5-.09-110.12.48-.58 339.26-.52 339.98.06m-16.06 3.6a3.13 3.13 0 0 1-2.08 1.02c-2.36 0-3.5 3.08-1.53 4.1 1.55.8 3.33-.17 3.43-1.86.04-.73.2-1 1.02-1.75.82-.74.96-.97.84-1.42-.17-.68-1.1-.73-1.68-.1m-90.7.81c-.61.6-.54 1.35.2 2.1.44.47.62.85.62 1.37 0 1.07.51 1.26 2.47.91a6.33 6.33 0 0 0 1.8-.5c.13-.12.67-.52 1.2-.89 2.08-1.42 2.8-3.23 1.34-3.34-.55-.04-.75.11-1.51 1.17-1.1 1.52-2.05 1.63-2.27.27-.2-1.3-.32-1.38-1.94-1.45-1.27-.05-1.55 0-1.92.36m.52 6.52c-1.77.7-3.1 2.11-3 3.21l.07.64 2.65.23c2.94.25 3.12.33 3.73 1.7.58 1.31.15 2.24-1.23 2.63-1.18.33-1.49 1.06-1.07 2.55.27.98.46 1.12 1.67 1.17 1.48.07 1.87-.02 2.5-.55l.64-.54v-6.32l-.78-.73c-.75-.7-.87-.74-2.71-.85-2.16-.14-2.68-.4-1.88-.92a2.5 2.5 0 0 1 2.32-.36c1.67.55 3.76.13 4-.8.16-.66-.46-1.05-1.43-.89-1.13.19-2.7.04-3.3-.32l-.72-.41-1.45.56m16.2.07a5.4 5.4 0 0 0-3.16 2.05l-.43.6.86.8c.98.91 1.01 1.02.42 1.77-.62.8-.69 6.1-.08 6.55.3.21 1.37.28 4.39.28h4l.57-.59c.9-.95 1.39-5.87.84-8.6-.47-2.39-3.78-3.66-7.42-2.86m34 .07c-.92.16-.99.5-1.06 4.94-.1 6.1.26 7.04 2.76 7.04 1.65 0 1.93-.1 2.32-.85.62-1.2.02-2.82-1.09-2.95-1-.12-1.35-1.05-1.36-3.67-.02-3.87-.32-4.73-1.57-4.51m-72.76.58c-1.53 1.04-1.17 2.62.82 3.59l1.22.6.11 3.28c.12 3.75.14 3.8 1.7 3.82h1.07l.68-2.02c.37-1.12.77-2.16.88-2.3.12-.16.38-.77.58-1.38.5-1.55 1.7-1.07 2.18.9.36 1.48 1.52 4.6 1.77 4.75.52.33 2.02.17 2.44-.26.51-.5.67-10.76.17-11.26-1.03-1.03-1.96-.06-2.1 2.2-.13 1.84-.63 3.64-.84 3-.29-.88-.76-2.71-.88-3.4-.4-2.39-2.96-2.72-3.35-.43-.28 1.65-.65 2.4-1.34 2.69l-.66.28v-1.54c0-2.67-2.3-3.98-4.45-2.52m53.17.07c-1.17 1.27-.88 2.37.92 3.5 1.47.93 1.57 2.67.17 2.95-3.15.63-2.2 4.95 1.06 4.83l1.36-.05.62-1.3c.92-1.9 2.53-1.73 3.7.39.44.8.6.91 1.31.97 2.05.17 2 .3 2.06-6.34.04-5.49.03-5.55-1-5.55-1.27 0-1.36.26-1.36 4.1 0 4.32-.1 4.48-2.35 3.39-1.8-.88-2.03-1.35-2.06-4.11-.03-2.8-.34-3.22-2.42-3.33-1.37-.07-1.46-.05-2.01.55m29.85-.4c-1.66.68-1.41 3.28.36 3.8 1.49.45 1.66.87 1.66 4.14 0 3.52.17 3.86 1.78 3.75l1.02-.06.29-1.15c.16-.63.37-1.25.46-1.36.1-.12.24-.54.32-.95.08-.4.42-1.14.76-1.65.33-.51.6-1.04.6-1.18 0-.14.12-.35.26-.47.33-.27 1.2.38 1.2.9 0 .19.23 1.02.51 1.84.28.83.56 1.85.63 2.28a2.26 2.26 0 0 0 2.23 1.84c1.42 0 1.48-.25 1.5-6.01.01-5.51-.06-5.92-1.1-5.92-.81 0-.96.36-1.1 2.62a12.13 12.13 0 0 1-.37 2.5l-.25.64-.27-.9a6.83 6.83 0 0 0-.64-1.46 8.22 8.22 0 0 1-.72-1.82c-.37-1.34-.92-1.76-1.97-1.5-.55.14-.69.42-.96 1.83-.2 1.06-1.23 2.93-1.56 2.83-.12-.03-.3-.84-.42-1.8-.31-2.55-1.98-3.63-4.22-2.73m20.17.26c-1.02.83-1.18 2.66-.44 4.94.22.66.24 1.11.1 1.67-.28 1.04-.27 4.24.01 4.58.17.2 1.18.27 4.1.27 5.98 0 5.92.07 5.92-6.5 0-5-.1-5.43-1.12-5.43-.95 0-.97.11-.97 4.75 0 5.2-.18 5.5-3.23 5.5-1.44 0-1.6-.04-2-.54-.86-1.11-.41-2.8.75-2.8 1.58 0 1.86-1.39.43-2.13l-.6-.3.77-1c1-1.32.98-2.29-.08-3-1-.67-2.82-.67-3.64 0m-101.3.83c.67.86.08 2.05-.7 1.4-.35-.3-.36-.42-.1-1.13.23-.59.48-.67.8-.27m53.55.4c.32.63.32.68-.04.95-.72.52-1.3-.11-.94-1.04.29-.75.56-.72.98.1m29.4-.41c0 .14.04.45.1.68a1 1 0 0 1-.09.71c-.29.44-1.5-.08-1.34-.57.3-.84 1.31-1.47 1.32-.82m20.66.46c.2.64.18.74-.17.85-.75.24-.96-.12-.61-1.04.28-.73.52-.67.78.2m-62.43.19c1.27.83 1.49 7.03.28 8.03-.5.4-3.88.4-4.3-.01-.52-.53.07-1.9.86-2 2.13-.25 1.54-3.98-.64-4-1.77-.02-2.1-1.2-.61-2.14.84-.52 3.54-.46 4.41.12m-3.28 3.9c.08 1.06-.16 1.31-1.02 1.1-1.23-.33-.98-2.03.28-1.9.61.05.69.13.74.8m-13.39 3.8c-.08.56-.5.72-.67.26-.16-.42.01-.72.42-.72.2 0 .3.16.25.46m48.78-.24c.27 0 .23.1-.17.43-.48.4-.53.4-.78.07-.31-.43-.15-.8.29-.63.17.07.46.12.66.13m-269.15 8-.52.27-.05 25.66c-.05 23.68-.03 25.69.29 25.95.38.32 183.14.55 186.9.23l1.87-.15.05-25.75c.03-16-.03-25.86-.15-26.06-.28-.43-187.53-.58-188.39-.14m194.08.07-.47.39v25.52c0 22 .04 25.57.3 25.83.51.51 9.42.64 9.96.14.39-.35.4-.74.41-9.08l.01-8.71.54-.47c.53-.47.56-.47 7.86-.47 8.15 0 8.92-.1 12.64-1.49 2.11-.79 4.92-2.85 5.67-4.17.24-.42.64-1.04.88-1.38 2.84-4 2.64-15.81-.34-19.76-2.52-3.33-6.38-5.72-10.19-6.3-2.8-.44-26.75-.48-27.27-.05M77.97 84.36c3.9.9 6.4 2.81 7.92 6.05.83 1.76.92 7.35.15 8.77a25 25 0 0 0-.82 1.71c-.93 2.2-4.26 4.67-6.68 4.94-.66.08-1.52.27-1.9.42-.55.23-2.19.3-7.17.3-6.16 0-6.46 0-6.67.4-.14.25-.2 2.97-.2 7.45.02 8.32.22 7.7-2.43 7.8-2.24.1-2.73-.02-3.13-.79-.56-1.08-.47-28.33.1-29.26l.41-.68h2.3c2.91 0 2.73-.34 2.8 5.22.02 2.87.12 4.47.27 4.62.28.28 11.23.15 13.06-.15 4.02-.66 5.89-4.72 4.12-8.96-1.23-2.93-2.56-3.24-14.02-3.24-5.27 0-8.06-.08-8.34-.23-1.02-.55-1.35-3.42-.52-4.63.04-.06 17.91-.28 18.45-.23.23.03 1.26.25 2.3.49m220.62-.01c-.7.08-1.87.38-2.62.68l-1.6.6c-1.95.65-5.46 3.97-5.85 5.55-.09.33-.37 1.07-.63 1.64a6.52 6.52 0 0 0-.55 3.78l.18.63 3.97.05c5.07.06 4.74.16 5.63-1.72 1-2.1 1.6-2.76 2.82-3.13.55-.16 1.31-.46 1.7-.65 1.4-.73 6.37.07 7.7 1.24 2.53 2.22 1.17 6.3-2.24 6.71-.54.07-1.45.26-2.02.42-.58.16-2.13.36-3.46.44-1.4.08-2.89.3-3.56.52-.63.21-1.62.45-2.2.53-3.34.47-7.5 3.2-8.82 5.8-2.96 5.83-1.29 12.86 3.72 15.66.33.19.73.45.89.58 2.04 1.7 10.3 1.56 13.2-.21.36-.22.8-.4.97-.4.18 0 .64-.32 1.04-.73.39-.4.82-.73.96-.73.13 0 .56-.3.95-.66 1.37-1.28 1.56-1.34 1.88-.56.16.38.57 1.26.92 1.95l.63 1.26 4.69.06c5.67.06 6.5-.2 5.17-1.64-1.12-1.2-1.07-.6-1.18-15.06-.1-13.44-.1-13.5-.57-14.44a4.58 4.58 0 0 1-.47-1.49c0-.3-.2-.76-.44-1.04-.23-.27-.61-.8-.84-1.17-.72-1.16-4.94-3.63-6.21-3.63-.2 0-.57-.13-.8-.3-.95-.66-9.02-1-12.96-.54m26.58.08c-.37.27-.37.34-.04 1.53.2.69.35 1.44.35 1.68s.14.55.31.69c.17.14.37.6.44 1.02.08.42.59 2.13 1.14 3.8a84.5 84.5 0 0 1 2.2 7.53c.08.4.22.83.3.94.08.12.27.68.41 1.26.15.57.4 1.37.55 1.78.15.4.44 1.3.63 1.99s.43 1.35.53 1.47a7 7 0 0 1 .5 1.36c.16.63.55 1.94.85 2.92.3.98.63 2.16.73 2.62.1.46.33 1.2.52 1.65.53 1.25.1 4.57-.86 6.75-.16.36-.3.96-.3 1.32 0 .37-.17 1.06-.4 1.55-.52 1.14-.78 3.37-.45 3.78.36.42 9.02.35 9.54-.08.5-.42.95-1.37 1.16-2.49a69.6 69.6 0 0 1 1.78-7.14c.27-.87.55-1.9.63-2.3.08-.41.28-1 .44-1.3.16-.32.43-1.27.6-2.1.44-2.2.72-3.27 1.16-4.46.21-.57.45-1.42.53-1.88.12-.75.5-2.23 1.12-4.3a37.78 37.78 0 0 0 1.06-4.61c0-.24.19-.7.4-1.02.23-.3.48-1.08.56-1.7.08-.63.29-1.52.45-1.97.17-.47.43-1.36.59-2 .35-1.46 1.02-3.96 1.46-5.44.72-2.44.74-2.6.37-2.87-.5-.37-9.24-.36-9.69 0-.54.45-.86 1.2-.98 2.31a7.1 7.1 0 0 1-.5 1.85 8.44 8.44 0 0 0-.59 1.99 7.7 7.7 0 0 1-.51 1.83 6.27 6.27 0 0 0-.46 1.67c-.11.85-1.42 4.1-1.65 4.1-.03 0-.5-1.38-1.04-3.08l-1.3-4.03c-.19-.52-.4-1.32-.5-1.78-.1-.46-.36-1.35-.6-1.99-.22-.63-.49-1.52-.59-1.98-.23-1.09-.3-1.1-5.94-1.13-3.51-.02-4.6.04-4.9.26m-104.6 1.94c.89.24 1.08 1.04 1.08 4.44 0 3.62-.16 3.38 2.3 3.38 2.26 0 2.62.3 2.62 2.18 0 1.88-.23 2.07-2.59 2.24-1.02.07-1.96.2-2.09.27-.26.16-.35 16.65-.1 17.9.15.77.83 1.2 2.2 1.38 2.2.3 2.21.3 2.48.94.89 2.15-.89 3.87-4 3.87-.76 0-1.51-.1-1.67-.23-.16-.14-.6-.3-.97-.38a4.86 4.86 0 0 1-2.68-2.04c-.7-1.36-.79-2.44-.92-11.83-.07-5.2-.18-9.5-.25-9.58-.08-.07-.81-.2-1.64-.3-1.66-.17-1.81-.3-2.01-1.63-.3-1.97.12-2.52 2.07-2.76 1.8-.21 1.7.02 1.81-3.76.11-3.43.18-3.72.91-4.02a9.9 9.9 0 0 1 3.44-.07m43.98.28c.42.1 1.1.25 1.52.32 1.24.19 3.2 1.6 4.1 2.95l.78 1.2v6.74l-.62 1.03c-2.04 3.36-3.56 3.86-11.66 3.88-6.83 0-6.24.8-6.24-8.39v-6.9l.52-.52.51-.51h5.17c2.84 0 5.5.09 5.92.2m-142.52 6.9c3.72.99 5.59 2.02 7.57 4.17 1.2 1.29 1.26 1.4 2.28 3.79l.67 1.56v4.61c-.02 5.67-1.29 10.16-3.26 11.48-.25.17-.93.77-1.5 1.34-3.17 3.08-11.46 3.75-15.6 1.26-4.57-2.75-6.38-6.47-6.38-13.13 0-6.34 1.77-10.12 6.14-13.14 2.46-1.7 7.4-2.64 10.08-1.93m78.28.21c.72.23 1.46.42 1.64.42 2.32 0 7.05 4.97 7.48 7.86.09.56.33 1.4.54 1.87.51 1.13.55 6.25.05 7.54-.18.46-.41 1.3-.52 1.88-.27 1.43-1.01 3.47-1.44 3.98-.2.23-.55.75-.8 1.15-.9 1.53-4.1 3.98-5.16 3.98-.14 0-.55.14-.9.32-.88.44-6.64.47-7.14.03a3.5 3.5 0 0 0-.97-.5c-.34-.12-1.1-.5-1.66-.87-1.75-1.1-1.8-1.04-1.8 2.66 0 2.74-.34 3.76-1.3 3.82-2.02.12-3.22-.06-3.67-.57l-.48-.53.06-15.87c.07-18.45-.17-16.75 2.34-16.75 1.89 0 2.5.3 2.64 1.26.16 1.1.92 1.1 2.54.01.7-.47 1.81-1 2.46-1.17l2.12-.6a6.1 6.1 0 0 1 3.97.08m-97.46.03c.75.34 1.03 1.2.94 2.87-.11 1.87-.33 2.13-1.84 2.13-1.02 0-1.49.14-3.07.96-3.91 2.02-4.27 3.17-4.27 13.7 0 5.93-.06 7.47-.3 8.05l-.3.73h-1.7c-3.2 0-2.97 1.1-2.97-14.02 0-15.18-.22-14.03 2.55-14.03 1.88 0 2.22.2 2.39 1.4.08.55.24 1.25.35 1.56l.22.54 1.02-1.08a8.72 8.72 0 0 1 1.61-1.39c.32-.16.64-.38.71-.47.52-.7 3.76-1.36 4.66-.95m52.14.27c1.66.37 3.52 1.5 4.05 2.44.5.87 1.33.83 2.16-.12 2.5-2.84 9.22-3.6 12.88-1.45 1.43.83 2.71 2.62 3.32 4.62l.53 1.7-.06 10.2c-.07 12 .25 10.85-2.93 10.74-2.94-.1-2.67 1.33-2.67-14.16v-7.18l-1-1.04c-2.56-2.67-7.82-1.52-9.52 2.09-.8 1.7-.8 1.53-.85 11.26-.05 9.82.18 9.07-2.74 9.07-3.25 0-3.06.7-3.06-11.4 0-8.58-.04-9.84-.34-10.43-.46-.93-1.13-1.61-1.55-1.61-.2 0-.72-.13-1.17-.28-2.55-.89-5.76.83-7.36 3.94l-.75 1.47-.12 8.8c-.14 10.4.12 9.51-2.69 9.51-3.08 0-2.76 1.6-2.76-14.05V94.84l.46-.32c1.32-.93 4.98-.27 4.98.89.01 1.63.3 1.79 1.4.74a5.08 5.08 0 0 1 1.43-.97c.34-.12.75-.32.9-.44 1.22-.99 4.7-1.3 7.46-.67m-38.55 4.4c-4.84 1.64-6.97 10.76-3.9 16.72 2.67 5.18 12.11 4.55 13.4-.89a12 12 0 0 1 .67-1.69c.53-1.11.55-1.28.55-5.03v-3.87l-.68-1.03a5.5 5.5 0 0 1-.68-1.23c0-.11-.5-.73-1.1-1.38-1.85-1.97-5.25-2.63-8.26-1.6m78.85-.1c-.63.22-1.31.4-1.5.41-.49.02-2.37 1.93-2.95 2.99l-.73 1.3c-.14.24-.26.81-.26 1.27 0 .46-.14 1.4-.31 2.1-.38 1.59-.4 3.2-.03 4.81.16.7.35 1.69.43 2.2.33 2.34 2.59 4.4 5.43 4.93l1.97.37 1.7-.48c2.05-.59 4.49-2.84 4.73-4.36.07-.43.33-1.3.58-1.93.66-1.65.67-6.16.02-7.43a7.57 7.57 0 0 1-.58-1.46c-.79-3.51-5.07-5.88-8.5-4.71m115.3 7.35c.37.58.34 2.61-.05 4.1-.17.67-.37 1.65-.44 2.2a4.75 4.75 0 0 1-.64 1.73c-.28.41-.51.83-.51.92 0 .5-3 2.4-4.54 2.85-1.62.48-5.02.48-5.93 0-3.16-1.65-3.47-7.55-.49-9.14 1.68-.9 2.74-1.18 7.3-1.95.92-.15 2.19-.47 2.82-.7 1.53-.56 2.14-.56 2.48-.01"/><path fill="#f9fbfb" d="M0 104.66V209.3h400V0H0v104.66M374.83 45.2l.68.41v116.33c0 1.57-1.02 2.3-2.68 1.91-.74-.17-1.23-.18-1.56-.04a1.7 1.7 0 0 1-1 .06c-.83-.25-340.85-.23-341.5.02-.47.18-.66.12-1.27-.37l-.72-.58-.03-58.55c-.02-49.09.03-58.6.27-58.9.15-.18.47-.41.7-.5 1.09-.45 346.39-.23 347.11.21M33.28 50.23c-1.47.19-1.82.35-1.96.92-.07.25-.11 24.54-.1 53.98l.02 53.52.76.16c.99.21 337.16.22 337.91 0l.58-.16-.01-53.39c-.01-47.49-.05-53.48-.34-54.2l-.32-.8-5.16-.06a83.86 83.86 0 0 0-5.63.03c-.25.06-2.65.05-5.33-.01-6.97-.18-319.03-.17-320.42 0m324.03 2.23c.75.67.54 1.58-.6 2.64-.86.78-1.05 1.1-1.17 1.92a3.57 3.57 0 0 1-.63 1.54l-.49.56.82 1.02.8 1.03-.02 4.85c-.04 7.48.14 7.3-6.86 7.27-5.74-.03-5.54.09-5.4-3.16.06-1.2.17-2.55.25-2.98.1-.57.06-.86-.17-1.1-1.05-1.04-.25-5.53.98-5.55.13 0 .47-.2.76-.42 2.05-1.6 6.7 1.7 5 3.55-.4.42-.55 1.69-.2 1.69.2 0 .3.27.54 1.4.15.77-.74 1.52-1.8 1.53-.9 0-1.46 1.04-.7 1.34.67.25 2.96.13 3.21-.17.17-.2.27-1.64.3-4.4.04-2.83.14-4.18.3-4.35.42-.41.3-.75-.32-.9-3.74-.84-3-6.6.86-6.6.52 0 .96-.17 1.44-.6 1.06-.91 2.17-.96 3.1-.11m-90.68.17c.31.17.88.42 1.26.56.51.2.81.5 1.09 1.12.2.47.38.69.4.49 0-.2.2-.48.43-.63a.98.98 0 0 0 .42-.74c0-1.24 3.19-1.03 3.68.25.24.62-1.75 3.9-2.37 3.9-.11 0-.62.27-1.13.62-.5.34-1.15.62-1.44.63-.76 0-1.05.26-.91.79.14.55.65.6 1.49.11 1.06-.6 3.45.8 3.24 1.9-.1.57-.95 1.38-1.43 1.38-.63 0-.34 2.62.33 3.04.32.2.23 4.43-.1 4.7-.16.14-.35.62-.43 1.07-.19 1.15-.84 1.45-3.1 1.45-2.44 0-2.72-.14-3.26-1.58-.6-1.62.07-3.02 1.92-3.99.42-.22.57-.46.57-.9 0-.81-.75-1.06-3.35-1.1-3.32-.06-4.11-1.13-2.69-3.64.69-1.21 1.17-1.65 2.1-1.87a1.1 1.1 0 0 0 .67-1.7c-.28-.41-.3-.62-.1-1.04.19-.42.17-.54-.07-.64a2.62 2.62 0 0 1-.77-.88c-1.24-2.06 1.35-4.47 3.55-3.3m19.5 7.4c1.63.77 2.89 1.96 3.03 2.86.24 1.58.31 4.8.15 6.77-.29 3.47-.47 3.57-6.56 3.63-4.46.05-4.5.04-5.19-.46l-.7-.5.14-3.06c.07-1.69.21-3.29.32-3.56.15-.4.09-.58-.35-.93-1.28-1.05-.37-3.27 1.73-4.24l1.26-.58a5 5 0 0 1 3.24-.63 6.4 6.4 0 0 1 2.93.7m-40.64.1c.99.55 1.92 1.52 2.13 2.2l.17.58.02-.52c.05-1.25.43-2.02 1.23-2.46l.79-.45.83.41c2.05 1.02 1.98.95 1.98 2.2 0 .7.1 1.13.24 1.13.16 0 .2-.34.1-1.1-.28-2.43 2.73-3.8 3.63-1.65.38.91.22 11.98-.18 12.46-.4.48-3.97.41-4.22-.08a12.44 12.44 0 0 1-1.25-3.38c-.13-.69-.35-1.24-.53-1.3-.17-.07-.4-.34-.5-.6-.17-.42-.2-.4-.2.27a2.79 2.79 0 0 1-.54 1.45c-.29.4-.52.83-.52.97 0 2.08-.83 2.93-2.99 3.07-1.79.12-2.46-1.25-2.17-4.41.19-2.1-.78-3.81-2.17-3.81-.55 0-.95-2.03-.66-3.34.23-1 .4-1.17 1.53-1.48.41-.12.88-.36 1.02-.53.32-.39 1.17-.25 2.26.36m61.44.15c.37.63.42 1.18.48 5.02.04 2.38.08 4.55.1 4.84.03.6-.35 2.16-.67 2.75-.52.98-3.96.42-4.51-.74-.63-1.3-1.13-1.3-2.15 0l-.88 1.13h-1.97c-4.11 0-5.56-4.4-2-6.09 1.19-.57 1.2-.9 0-1.77-2.45-1.8-2.43-4.07.07-5.23 3.32-1.55 5.41.3 5.47 4.85.02 1.77.4 2.38 1.5 2.38.89 0 .93-.14.93-3.46 0-3.2.15-3.77 1.1-4.19 1.13-.5 2.05-.32 2.53.5m9.34-.5c.8.42.83.57.94 4.4.1 3.48.12 3.6.94 3.7 1.24.17 2.37 2.68 1.8 4.03-.71 1.72-6.06 2.09-6.37.43a8.26 8.26 0 0 0-.48-1.32c-.62-1.36-.5-9.79.14-10.51.85-.95 2.04-1.23 3.03-.72m17.23-.02c.37.16 1.04.63 1.49 1.05l.81.76.37-.82c.62-1.39 1.95-1.6 2.95-.48l.6.67v11.31l-.52.52c-.4.4-.73.51-1.51.51a7.2 7.2 0 0 0-1.46.13c-.79.2-1.93-1.06-2.14-2.37-.1-.6-.26-1.21-.38-1.36a4.53 4.53 0 0 1-.47-1.06c-.14-.43-.32-.78-.4-.77-.56.05-1.5 2.6-1.59 4.31-.05 1.03-3.26 1.6-4.36.78-.67-.5-.79-1.1-.8-4.26l-.01-2.54-.56-.24c-3.23-1.4-3.42-4.84-.31-5.8 1.86-.58 2.3-.54 3.6.3 1.3.86 1.93.94 2.22.27.39-.87 1.56-1.3 2.47-.91m-52.13 3.52c.05.14.38.32.75.4 2.24.45 3.14 4.2 1.26 5.27-.96.54-.94.85.06.94 1.45.12 1.7-.36 1.7-3.16 0-3.55-.09-3.7-2.19-3.7-1.22 0-1.64.06-1.58.25m-44.74 13.65c1.22.29 1.16-1.06 1.15 26.9 0 14.06.04 25.65.1 25.75.06.1-.19.51-.56.93l-.66.75H47.58l-.4-.44c-.39-.43-.4-1.17-.39-26.79.02-29-.07-27.05 1.22-27.23.75-.1 188.17.02 188.62.13m30.68.32c.85.23 1.94.42 2.42.42 1.43 0 2.88.37 4.18 1.03.68.35 1.56.8 1.96.98 1.83.87 5.17 4.52 5.4 5.9.06.43.34 1.2.6 1.7.27.5.5 1.22.5 1.57 0 .36.15 1.31.33 2.12.57 2.46.6 4.82.1 6.77-.24.93-.44 2.14-.44 2.7 0 .65-.15 1.24-.45 1.72-.25.4-.52 1.13-.62 1.62-.25 1.3-3.48 5.3-4.29 5.3-.14 0-.42.15-.6.35a21 21 0 0 1-3.11 1.5l-2.75 1.15-8.4.08-8.41.08-.13.67c-.07.38-.11 4.43-.1 9 .01 4.59-.01 8.36-.05 8.39-1.38 1-1.07.96-6.52.96h-5.14l-.54-.64-.54-.65v-25.7c0-26.76 0-26.75.9-27.18.96-.46 23.9-.32 25.7.16m42.12 6.26c.13.13.46.24.75.24a16 16 0 0 1 3.69.94c.34.15.94.33 1.32.41.38.09.75.28.8.45.07.16.24.29.4.29.15 0 .54.22.86.5.33.27.81.56 1.09.64.3.1.64.5.88 1.05.22.5.54 1 .7 1.15.18.14.38.6.46 1.01.08.41.34 1.09.58 1.5.43.73.44 1 .55 14.35l.1 13.6.5.79c.26.43.56.78.65.78.24 0 .84 1.59.84 2.2 0 1.14-.57 1.24-6.36 1.18l-5.26-.06-.7-.71a2.66 2.66 0 0 1-.8-1.56c-.07-.46-.17-.84-.23-.84-.22 0-2.31 1.28-2.55 1.56-.14.17-.57.41-.97.54-.39.13-.71.31-.71.4 0 1.36-9.94 2.38-13.08 1.34-2.24-.74-6.18-3.62-6.18-4.51 0-.13-.13-.39-.3-.57-2.16-2.4-2.03-11.53.2-13.76.17-.17.31-.43.31-.57 0-.97 3.65-3.52 6.7-4.68 1.9-.72 9.7-1.94 12.44-1.94.75 0 1.17-.1 1.4-.36.18-.2.63-.53 1-.72 1.93-1.06 1.33-4.27-.92-4.85-.23-.06-.8-.25-1.26-.43-1.12-.42-4.04-.44-4.63-.03-.25.17-.97.5-1.62.75-.65.24-1.18.52-1.18.6 0 .1-.23.51-.51.93a4.79 4.79 0 0 0-.65 1.48c-.26 1.36-2.43 2.26-4.3 1.78-.28-.07-1.65-.09-3.05-.04-2.82.1-3.22 0-3.76-1.04-.6-1.16-.08-4.85.86-6.02.13-.17.41-.76.62-1.31.4-1.09 2.66-3.56 3.5-3.83.27-.08.81-.4 1.22-.72 1.25-.97 3.46-1.61 7.22-2.1 1.83-.24 9.1-.09 9.38.2m26.17.02c.84.37.98.53 1.08 1.2.07.44.3 1.18.53 1.66.22.48.55 1.47.74 2.2a7 7 0 0 0 .54 1.56c.1.13.25.74.32 1.36.07.62.29 1.31.5 1.54.2.23.43.89.5 1.46l.16 1.05.32-.63c.17-.34.44-.77.58-.94.14-.17.3-.8.36-1.41.06-.6.24-1.27.42-1.47.17-.2.32-.65.33-1 0-.36.21-1.2.45-1.89.25-.68.54-1.62.66-2.08.79-3.16.52-3.03 6.66-3.03h4.63l.77.7c.7.64.75.77.54 1.21-.39.8-.7 1.88-.7 2.45 0 .29-.14.7-.33.9-.2.21-.4.98-.5 1.83-.1.89-.33 1.75-.6 2.18-.25.4-.45 1.05-.45 1.45 0 .4-.14 1.19-.32 1.75-.18.57-.46 1.5-.62 2.08a47.8 47.8 0 0 1-.6 1.98 27.8 27.8 0 0 0-.65 2.82 10.6 10.6 0 0 1-.52 2.1c-.1.11-.28.77-.4 1.45a6.35 6.35 0 0 1-.52 1.68c-.15.23-.34.93-.4 1.54-.08.61-.32 1.5-.55 2-.23.47-.52 1.53-.65 2.33s-.33 1.58-.45 1.71c-.11.14-.34.89-.5 1.65a6.55 6.55 0 0 1-.51 1.66 9.8 9.8 0 0 0-.55 2.22 11.18 11.18 0 0 1-.6 2.38c-.15.24-.32.98-.39 1.66a3.98 3.98 0 0 1-.4 1.56c-.16.2-.4 1.06-.54 1.92-.22 1.4-.33 1.64-1 2.23l-.74.67-4.51.02c-2.48 0-4.58.06-4.68.12-.33.2-1.23-.32-1.52-.89-.27-.52-.25-.78.18-2.46.27-1.04.5-2.25.5-2.68 0-.44.2-1.05.42-1.36.26-.36.49-1.16.6-2.18.12-.88.36-1.82.54-2.08.46-.66.42-1.9-.08-2.85a3.61 3.61 0 0 1-.42-1.36 6.5 6.5 0 0 0-.51-1.8c-.28-.67-.58-1.73-.66-2.35a7.16 7.16 0 0 0-.53-1.9 6.8 6.8 0 0 1-.52-1.68 4.2 4.2 0 0 0-.5-1.43c-.2-.29-.41-1-.48-1.58a5.6 5.6 0 0 0-.53-1.78 5.87 5.87 0 0 1-.56-1.75 4.69 4.69 0 0 0-.43-1.46 6 6 0 0 1-.52-1.49 8 8 0 0 0-.53-1.6 5.64 5.64 0 0 1-.44-1.57 8.67 8.67 0 0 0-.63-2.1 8.69 8.69 0 0 1-.63-2.2 4.26 4.26 0 0 0-.53-1.65c-.23-.3-.46-.96-.52-1.47a3.01 3.01 0 0 0-.42-1.27c-.65-.74-.6-1.97.1-2.67l.64-.64h4.8c4.38 0 4.9.04 5.77.42M57.87 85.24c-.07.38-.1 1.16-.06 1.73l.06 1.05 8.59.03c8.6.03 9.16.07 11.3.84 2.35.85 3.53 2.47 3.9 5.34.35 2.58-.7 5.62-2.2 6.39a8.2 8.2 0 0 0-1.24.82c-.47.4-.84.5-1.79.5-.7 0-1.37.12-1.62.3-.35.24-1.56.3-6.17.34l-5.73.03-.52-.77c-.5-.74-.52-.94-.59-4.79-.1-4.74 0-4.57-2.35-4.48l-1.58.05-.1 4.19c-.06 2.3-.06 8.7 0 14.23l.1 10.05 1.55.06c2.39.1 2.23.6 2.3-7.3.07-9.23-.9-8.3 8.72-8.4 8.57-.09 9.44-.27 11.92-2.43 1.1-.96 2.41-2.9 2.41-3.58 0-.44.16-.73.53-.98.8-.52.79-5.25 0-6.96a8.02 8.02 0 0 1-.53-1.3c0-.46-3.16-3.52-3.9-3.76-.38-.13-.78-.38-.88-.55-.12-.21-.71-.38-1.8-.5-.9-.1-1.85-.33-2.12-.5-.42-.28-1.73-.33-9.28-.33h-8.8l-.12.68m159.71 2.33c-.28.21-.33.75-.33 3.4v3.14l-.6.36c-.35.2-1.04.35-1.66.35-.96 0-1.09.06-1.38.62-.67 1.29-.31 2.1.93 2.11 2.62.04 2.7.35 2.72 10.34.01 12.26.07 12.5 3.4 13.6 2.82.95 4.77.38 4.77-1.38v-.8h-1.01a3.7 3.7 0 0 1-3.32-1.88c-.48-.9-.48-.92-.48-9.73v-8.82l.65-.67c.66-.68 1.25-.8 3.22-.73.74.03.94-.21.94-1.2 0-1.16-.17-1.26-2.24-1.4l-1.9-.12-.33-.71c-.26-.55-.34-1.36-.34-3.52 0-2.76-.01-2.82-.47-2.92-1.24-.25-2.26-.26-2.57-.04m36.13.31c-.25.45-.34 12.7-.1 13.3.1.3.84.34 6.04.34 6.08 0 6.9-.1 7.76-.87.24-.21.53-.39.66-.39.12 0 .33-.26.46-.59.14-.32.48-.83.76-1.14.79-.84.94-1.45.94-3.8 0-3.39-1.1-5.33-3.7-6.54-1.71-.8-12.42-1.05-12.82-.3m-136.29 6.63a6.5 6.5 0 0 1-1.47.3c-.3 0-.62.08-.73.18-.11.1-.7.35-1.3.54-.6.2-1.1.43-1.1.5 0 .09-.3.33-.68.55a9.7 9.7 0 0 0-1.52 1.27c-.46.47-1 .93-1.2 1a.6.6 0 0 0-.37.53 2 2 0 0 1-.42.94c-.24.3-.54.85-.67 1.23s-.43.96-.67 1.28c-.41.57-.44.86-.44 5.99v5.39l.61.92 1 1.5c.21.3.38.66.38.8 0 .38 3.2 3.34 3.77 3.47.29.07.62.2.73.28 1.6 1.1 8.04 1.34 10.4.38l2-.8a5.87 5.87 0 0 0 1.56-1.16 4 4 0 0 1 1.15-.93c.3 0 2.58-4.22 2.58-4.76 0-.21.2-.76.45-1.21.78-1.45.71-8.32-.1-10.04a31.68 31.68 0 0 1-1.5-3.4c-.07-.26-.28-.47-.45-.47-.18 0-.37-.2-.43-.42-.06-.23-.24-.42-.38-.42-.16 0-.46-.22-.67-.5-.22-.27-.77-.7-1.22-.94l-1.46-.84a4.86 4.86 0 0 0-1.26-.5l-2.5-.56c-2.2-.5-2.8-.5-4.09-.1m78.7.2c-.74.14-1.78.45-2.3.69-.9.4-1.22.64-2.82 1.97-1.33 1.12-2.2.71-2.57-1.2-.19-.93-1.48-1.32-2.82-.84l-.58.2.06 15.6.05 15.6 1.6.06 1.59.06.13-.8c.07-.43.13-1.92.13-3.3 0-3.57.87-4.55 2.46-2.8.4.45.98.88 1.28.95.3.07.7.26.9.43.95.82 7.41.94 8.76.16.4-.24 1.16-.6 1.67-.8.95-.37 3.15-2.65 3.32-3.44.05-.2.26-.6.48-.91.21-.3.39-.69.39-.85 0-.16.15-.5.33-.75a8.2 8.2 0 0 0 .63-2.19c.16-.95.45-2.53.63-3.51.31-1.7.3-1.86-.1-3.49a13.8 13.8 0 0 1-.44-2.21 6.2 6.2 0 0 0-.73-1.85c-.4-.74-.87-1.64-1.04-2.01a18.5 18.5 0 0 0-3.1-3.33c-.75-.61-4.98-1.8-6.12-1.73-.23.01-1.03.14-1.78.29m-95.27.06a5.8 5.8 0 0 0-.7.26c-.23.1-.8.32-1.26.48-.53.19-1.39.84-2.34 1.78-2.05 2.05-3.2 1.97-3.2-.22 0-1.83-.3-2.26-1.57-2.26-1.47 0-1.36-1.03-1.36 13.33 0 14.08-.11 13.04 1.34 13.04 1.9 0 1.78.49 1.86-7.95.08-7.9.44-11.3 1.18-11.3.08 0 .24-.18.34-.4.36-.76 1.6-2.12 1.95-2.12.18 0 .85-.28 1.49-.61a4.35 4.35 0 0 1 2.33-.63c1.7-.02 1.85-.11 1.85-1.16 0-2-.51-2.61-1.91-2.24m49.85-.04a8.33 8.33 0 0 0-4.83 2.25c-.6.53-1.16.97-1.25.97-.1 0-.24.2-.31.44-.18.56-1.13-.85-1.14-1.68-.02-1.16-.84-1.9-2.1-1.9-2.2 0-2.03-1.03-2.07 13.52l-.04 12.59.9.15c1.3.23 1.94.2 2.66-.1l.64-.26v-8.1c0-8.42.14-10.15.86-11.07.22-.28.4-.63.4-.77 0-.15.35-.56.78-.93l1.37-1.17c.31-.28.74-.52.94-.52.2 0 .74-.19 1.2-.41 1.96-.95 5.89-.04 6.42 1.48.12.33.28.61.37.61.56 0 .64 1.38.64 10.95 0 5.43.08 10 .18 10.15.12.2.62.25 1.72.21 1.96-.08 1.81.72 1.84-9.6.02-6.72.08-8.34.32-8.68.16-.23.4-.84.54-1.34.55-2.06 3.44-3.89 6.53-4.14 1.33-.1 4.06.78 4.25 1.4.06.18.31.42.57.53 1 .44 1.14 1.92 1.12 12.07-.02 9.05-.01 9.23.4 9.5a5.4 5.4 0 0 0 2.99.22l.47-.15v-10.01c0-8.67-.04-10.04-.32-10.27-.17-.15-.37-.63-.44-1.09a4.61 4.61 0 0 0-.63-1.55c-.27-.4-.5-.8-.5-.88 0-.22-1.35-1.26-2.02-1.54a4.65 4.65 0 0 1-.96-.56c-.28-.24-1.04-.3-3.45-.3-3.64 0-5.11.49-6.76 2.25-1.49 1.58-2.68 1.54-3.97-.15a4.6 4.6 0 0 0-1.35-1.2 2.76 2.76 0 0 1-.84-.52c-.22-.26-4.13-.56-5.13-.4m-27.65 2.97c.35.25.69.46.77.46.07 0 .44.26.82.57.38.32.93.74 1.21.94.3.2.57.65.65 1.07.08.4.28.85.47 1 .78.65 1.47 4.76 1.14 6.88-.12.75-.27 1.98-.34 2.73a8.94 8.94 0 0 1-.61 2.4c-.27.58-.59 1.36-.71 1.75-.33.98-1.64 2.7-2.19 2.87-.25.08-.6.27-.77.42-.33.28-2.48.89-3.8 1.07-.98.14-4.34-.7-4.9-1.21-.24-.22-.53-.4-.63-.4-.11 0-.53-.38-.93-.85s-.9-1-1.1-1.2c-.2-.19-.37-.43-.37-.53 0-.1-.25-.67-.57-1.26l-.58-1.08v-4.6c0-4.39.02-4.64.47-5.44.26-.46.47-.97.47-1.14 0-.84 2.28-3.51 3.55-4.17 2.02-1.03 6.71-1.2 7.95-.28m76.68-.25c.2.06.36.2.36.3 0 .1.4.29.87.41a3.3 3.3 0 0 1 1.33.75c.26.27.57.5.7.5.12 0 .27.18.34.4.07.22.26.45.41.51.16.06.4.61.53 1.22.14.62.49 1.6.78 2.2.74 1.53.69 7.98-.08 9.38a9.36 9.36 0 0 0-.68 1.72c-.43 1.66-3.4 4.15-5.56 4.66-1.86.45-2.33.47-2.95.16-.33-.17-1-.36-1.49-.44a5.22 5.22 0 0 1-2.82-1.65c-.31-.31-.66-.57-.78-.57-.13 0-.22-.14-.22-.3 0-.17-.14-.39-.31-.48-1.55-.87-2.23-8.27-1.12-12.2.91-3.25 2.73-5.86 4.07-5.86.04 0 .48-.18.97-.4a10.8 10.8 0 0 1 1.3-.52c.47-.11 3.77.05 4.35.21m109.2 8.85c0 .33-1.11.65-2.57.74-.84.05-1.64.23-1.96.44-.29.19-1.22.41-2.06.5-.95.08-1.69.27-1.92.48-.2.19-.66.4-1 .49-2.94.69-3.55 5.27-.99 7.35.95.77 5.05.83 6 .08a5.1 5.1 0 0 1 1.06-.43 5.19 5.19 0 0 0 1.52-.87c.38-.33.82-.6.98-.6.16 0 .35-.27.42-.61.08-.34.34-.88.58-1.19.61-.77.87-6.57.29-6.57-.19 0-.34.08-.34.19"/><path fill="#9ab7c6" d="M27.73 45c-.24.09-.56.32-.71.5-.24.3-.29 9.81-.27 58.9l.03 58.55.72.58c.6.49.8.55 1.27.37.64-.25 340.67-.27 341.5-.02.3.08.74.06 1-.06.33-.14.82-.13 1.56.04 1.66.39 2.68-.34 2.68-1.9V45.61l-.68-.4c-.72-.45-346.02-.67-347.1-.23m346.48 1.06c.39.62.38 116.59 0 116.83-.35.22-345.77.22-346.1 0-.29-.17-.44-115.56-.16-116.68l.14-.57h345.85l.27.42M30.95 49.53c-.5.62-.42 109.61.09 110.12.38.38 333.3.74 338.14.36 2.65-.2 2.36 6.77 2.3-55.67l-.05-54.35-.5-.4c-.72-.58-339.5-.64-339.98-.06m322.75.69c2.68.06 5.08.07 5.34.02.25-.06 2.78-.08 5.62-.04l5.16.06.32.8c.3.72.33 6.71.34 54.2v53.4l-.57.15c-.75.22-336.92.21-337.91 0l-.77-.16-.01-53.52c-.01-29.44.04-53.73.1-53.98.14-.57.49-.73 1.96-.92 1.39-.18 313.45-.19 320.42-.01m1.5 1.65a4.5 4.5 0 0 0-1 .7c-.47.41-.9.6-1.43.6-3.85 0-4.6 5.74-.86 6.6.61.13.74.48.33.89-.17.17-.27 1.53-.3 4.35-.04 2.76-.14 4.2-.3 4.4-.26.3-2.55.42-3.22.17-.76-.3-.2-1.34.7-1.34 1.06 0 1.95-.76 1.8-1.53-.23-1.13-.34-1.4-.54-1.4-.35 0-.2-1.27.2-1.7 1.7-1.84-2.95-5.14-5-3.54a2.1 2.1 0 0 1-.76.42c-1.23.02-2.03 4.51-.98 5.56.23.23.28.52.17 1.1-.08.42-.2 1.76-.24 2.97-.14 3.25-.35 3.13 5.4 3.16 6.99.03 6.81.21 6.85-7.27l.03-4.85-.81-1.02-.81-1.03.48-.56c.27-.31.54-1 .63-1.54.12-.82.31-1.14 1.16-1.92 1.75-1.61.68-3.92-1.5-3.22m-90.98.67c-1.63.66-1.89 3.68-.37 4.26.24.1.26.22.06.64-.19.42-.17.63.11 1.05.44.67.11 1.5-.68 1.69-.92.22-1.4.66-2.09 1.87-1.42 2.52-.63 3.58 2.69 3.64 2.6.04 3.36.29 3.36 1.1 0 .44-.16.68-.58.9-1.85.97-2.53 2.38-1.92 3.99.54 1.44.82 1.58 3.25 1.58 2.27 0 2.92-.3 3.11-1.45.08-.45.27-.94.43-1.07.33-.27.42-4.5.1-4.7-.67-.42-.95-3.04-.33-3.04.48 0 1.32-.8 1.43-1.38.21-1.1-2.18-2.5-3.25-1.9-.83.48-1.34.44-1.48-.11-.14-.53.15-.78.9-.8.3 0 .95-.28 1.45-.62a4.6 4.6 0 0 1 1.13-.63c.62 0 2.6-3.27 2.37-3.89-.49-1.28-3.69-1.5-3.69-.25 0 .27-.18.6-.41.74-.23.15-.43.43-.44.63 0 .2-.18-.02-.4-.49-.27-.62-.57-.93-1.08-1.12-.38-.14-.95-.4-1.26-.56a3.29 3.29 0 0 0-2.41-.08m92.33.74c.12.45-.02.68-.84 1.42-.83.75-.98 1.02-1.02 1.75-.1 1.7-1.88 2.66-3.43 1.86-1.98-1.02-.83-4.1 1.53-4.1.67 0 1.54-.43 2.08-1.02.58-.64 1.51-.59 1.68.1m-88.82.71c.1.18.22.66.3 1.08.2 1.36 1.16 1.25 2.26-.27.76-1.06.96-1.2 1.5-1.17 1.47.11.75 1.92-1.33 3.34-.53.37-1.07.77-1.2.89-.12.12-.93.35-1.8.5-1.95.35-2.47.16-2.47-.91 0-.52-.18-.9-.63-1.36-.73-.76-.8-1.5-.2-2.1.54-.54 3.28-.54 3.57 0m13.48 5.4c-.23.1-.8.34-1.25.55l-1.26.58c-2.1.97-3 3.19-1.73 4.24.44.35.5.52.35.93-.1.27-.25 1.87-.32 3.56l-.13 3.06.7.5c.68.5.72.5 5.18.46 6.09-.06 6.27-.16 6.56-3.63.16-1.97.1-5.2-.15-6.77-.33-2.11-5.5-4.37-7.95-3.47m-37.98.34c-.14.17-.6.41-1.02.53-1.13.31-1.3.48-1.53 1.48-.29 1.3.1 3.34.66 3.34 1.39 0 2.36 1.7 2.17 3.8-.3 3.17.38 4.54 2.17 4.42 2.16-.14 2.99-1 2.99-3.06 0-.15.23-.59.52-.98.31-.42.53-1 .53-1.45.02-.66.04-.7.21-.27.1.26.33.53.5.6.18.06.4.61.53 1.3.2 1.01.55 2 1.25 3.38.25.5 3.82.56 4.22.08.4-.48.56-11.55.18-12.46-.9-2.15-3.9-.78-3.62 1.65.09.76.05 1.1-.1 1.1-.16 0-.25-.43-.25-1.14 0-1.24.07-1.17-1.98-2.19l-.83-.4-.8.44c-.8.45-1.17 1.21-1.22 2.46l-.02.52-.17-.57c-.47-1.55-3.68-3.44-4.39-2.58m61.16 0c-.94.42-1.1 1-1.1 4.2 0 3.3-.03 3.45-.93 3.45-1.09 0-1.47-.6-1.49-2.38-.06-4.55-2.15-6.4-5.47-4.85-2.5 1.16-2.52 3.43-.06 5.23 1.18.88 1.18 1.2-.02 1.77-3.55 1.7-2.1 6.09 2.01 6.09h1.97l.88-1.13c1.01-1.3 1.52-1.3 2.14 0 .56 1.16 4 1.72 4.52.74.32-.6.7-2.16.67-2.75-.02-.29-.06-2.47-.1-4.84-.09-5.68-.6-6.6-3.02-5.53m9.9-.01c-1.43.63-1.45.73-1.53 5.77-.07 4.18-.04 4.64.34 5.48.22.5.44 1.1.48 1.32.31 1.66 5.66 1.3 6.38-.43.56-1.35-.57-3.86-1.81-4.03-.82-.1-.85-.22-.94-3.7-.13-4.58-.67-5.4-2.92-4.41m17.68.07c-.4.2-.82.58-.94.84-.29.67-.93.6-2.23-.26-1.28-.85-1.73-.89-3.6-.31-3.1.96-2.91 4.4.32 5.8l.56.24v2.54c.02 3.16.14 3.77.8 4.26 1.11.82 4.32.25 4.37-.78.08-1.7 1.03-4.26 1.6-4.31.07 0 .25.34.39.77.14.44.35.9.47 1.06.12.15.29.76.38 1.36.2 1.31 1.35 2.58 2.14 2.37.25-.07.9-.13 1.46-.13.78 0 1.11-.11 1.51-.51l.52-.52V60.92l-.6-.67c-1-1.12-2.33-.9-2.95.48l-.37.82-.81-.76c-.65-.6-1.88-1.35-2.23-1.34-.03 0-.38.16-.79.36m-63.2.93 1.4-.06c.95-.16 1.58.23 1.41.9-.23.92-2.32 1.34-4 .79a2.5 2.5 0 0 0-2.3.36c-.81.53-.29.78 1.87.92 1.84.1 1.96.14 2.7.85l.8.73v6.32l-.65.54c-.63.53-1.02.62-2.5.55-1.2-.05-1.4-.19-1.67-1.17-.42-1.48-.11-2.22 1.07-2.55 1.38-.39 1.81-1.32 1.23-2.64-.6-1.36-.79-1.44-3.73-1.7l-2.65-.22-.06-.64c-.11-1.1 1.22-2.52 3-3.2l1.45-.57.71.41c.51.3 1.05.4 1.93.38m16.39-.16c2.61.62 3.26 1.9 3.26 6.48 0 3.32-.15 4.13-.97 4.98l-.57.6h-4c-3.02 0-4.1-.08-4.39-.29-.6-.44-.54-5.75.08-6.55.6-.75.56-.86-.42-1.77l-.86-.8.43-.6c1.4-1.96 4.36-2.78 7.44-2.05m31.13 1.4c.08.5.14 1.94.15 3.18.01 2.62.36 3.55 1.36 3.67 1.48.17 1.83 3.14.44 3.67-1.86.72-3.8-.11-4.27-1.83-.33-1.22-.19-9.19.17-9.62.76-.91 1.96-.4 2.16.93m-70.57-.52c.83.75.83.77.83 2.3v1.53l.66-.28c.69-.29 1.06-1.04 1.34-2.7.39-2.28 2.94-1.95 3.35.45.12.68.6 2.52.88 3.38.21.65.71-1.15.83-2.98.15-2.27 1.08-3.24 2.11-2.2.5.49.34 10.74-.17 11.25-.42.43-1.92.59-2.44.26-.25-.16-1.4-3.27-1.77-4.76-.48-1.96-1.67-2.44-2.18-.89a6.8 6.8 0 0 1-.58 1.37c-.11.15-.51 1.19-.88 2.3l-.68 2.04-1.07-.01c-1.56-.01-1.58-.07-1.7-3.82l-.1-3.29-1.23-.6c-2-.96-2.35-2.54-.82-3.58a2.76 2.76 0 0 1 3.62.23m53.48-.04c.42.53.48.85.5 2.66.03 2.76.27 3.23 2.06 4.1 2.25 1.1 2.35.94 2.35-3.39 0-3.83.09-4.09 1.37-4.09 1.02 0 1.03.06.99 5.55-.06 6.64-.01 6.51-2.06 6.34-.72-.06-.87-.17-1.31-.97-1.17-2.12-2.78-2.3-3.7-.4l-.62 1.3-1.36.06c-3.26.12-4.2-4.2-1.06-4.83 1.4-.28 1.3-2.02-.17-2.95-1.8-1.13-2.1-2.23-.92-3.5.83-.9 3.18-.83 3.93.12m29.2-.12c.68.57.74.73.94 2.34.11.96.3 1.77.41 1.8.34.1 1.37-1.77 1.57-2.83.27-1.41.42-1.69.96-1.83 1.05-.26 1.6.16 1.97 1.5.19.69.51 1.5.72 1.82.2.31.5.97.64 1.46l.27.9.25-.63c.14-.35.3-1.48.37-2.51.14-2.26.29-2.62 1.1-2.62 1.04 0 1.11.4 1.1 5.92-.02 5.76-.08 6.01-1.5 6.01-1.1 0-2.05-.79-2.23-1.84-.07-.43-.35-1.45-.63-2.28-.28-.82-.5-1.65-.5-1.84 0-.52-.88-1.17-1.2-.9-.15.12-.27.33-.27.47 0 .14-.27.67-.6 1.18-.34.5-.68 1.25-.76 1.65-.08.4-.23.83-.32.95-.1.11-.3.73-.46 1.36l-.29 1.15-1.02.06c-1.61.1-1.77-.23-1.78-3.75 0-3.27-.17-3.69-1.66-4.13-1.33-.4-1.93-2.03-1.14-3.14.75-1.07 2.92-1.21 4.06-.27m20.53-.12c1.06.71 1.08 1.68.08 3l-.76 1 .59.3c1.43.74 1.15 2.13-.43 2.13-1.16 0-1.61 1.69-.74 2.8.4.5.55.55 2 .55 3.04 0 3.21-.3 3.22-5.51 0-4.64.02-4.75.97-4.75 1.03 0 1.12.43 1.12 5.43 0 6.57.06 6.5-5.92 6.5-2.92 0-3.93-.06-4.1-.27-.28-.34-.3-3.54-.02-4.58.15-.56.13-1-.09-1.67-1.34-4.13 1.02-6.99 4.08-4.93m-105.73 1.1c-.27.71-.26.84.1 1.13.46.39 1.15-.06 1-.66-.25-1.07-.79-1.29-1.1-.47m53.36.04c-.36.93.22 1.56.94 1.04.36-.27.36-.32.04-.95-.42-.81-.7-.84-.98-.09m29.5-.2c-.62.71-.6 1.04.06 1.32.73.3 1.1 0 .92-.75-.06-.23-.1-.54-.1-.68-.01-.38-.52-.32-.89.1m20.76.17c-.35.92-.14 1.28.61 1.04.35-.1.37-.2.17-.85-.26-.86-.5-.92-.78-.19m-66.06.27c-1.5.95-1.16 2.12.61 2.14 2.18.02 2.77 3.75.64 4-.8.1-1.38 1.47-.85 2 .4.4 3.8.42 4.29.01.7-.58 1.05-5.67.5-7.11-.51-1.3-3.75-1.95-5.19-1.04m4.11 1.1c.16.38.26 1.58.27 3.06 0 2.8-.26 3.28-1.7 3.16-1-.09-1.03-.4-.07-.94 1.88-1.07.98-4.82-1.26-5.28-1.38-.28-.91-.65.83-.65 1.66 0 1.67 0 1.93.64m-4.62 2.63c-.32.85-.17 1.19.62 1.4.86.21 1.1-.04 1.02-1.1-.08-1.02-1.28-1.23-1.64-.3m-12.43 3.83c-.18.29.11.89.38.8.38-.13.42-.99.05-.99-.17 0-.37.09-.43.2m48.37-.03c-.34.53.4.92.92.48.4-.33.44-.43.17-.43-.2 0-.5-.06-.66-.13-.17-.06-.37-.03-.43.08M48 76.78c-1.28.18-1.2-1.77-1.2 27.23-.02 25.62 0 26.36.38 26.79l.4.44h189.08l.66-.75c.37-.42.62-.84.56-.93-.06-.1-.1-11.69-.1-25.75 0-27.96.06-26.61-1.15-26.9-.45-.1-187.87-.24-188.62-.13m193.6.29c-.9.43-.9.42-.9 27.18v25.7l.54.65.54.64h5.14c5.45 0 5.14.05 6.52-.96.04-.03.06-3.8.05-8.38-.01-4.58.03-8.63.1-9l.13-.68 8.4-.08 8.4-.08 2.76-1.15c1.51-.63 2.9-1.31 3.1-1.5.2-.2.47-.36.61-.36.81 0 4.04-3.98 4.3-5.3.09-.48.36-1.2.61-1.6.3-.49.45-1.08.45-1.74 0-.55.2-1.76.44-2.69.5-1.95.47-4.31-.1-6.77-.18-.8-.33-1.76-.33-2.12 0-.35-.23-1.06-.5-1.57a6.7 6.7 0 0 1-.6-1.7c-.23-1.38-3.56-5.03-5.4-5.9a85.1 85.1 0 0 1-1.96-.98 9.35 9.35 0 0 0-4.19-1.03c-.47 0-1.56-.19-2.41-.42-1.8-.48-24.74-.62-25.7-.16m-5.08 1.21c.12.2.18 10.06.15 26.06l-.05 25.75-1.86.15c-3.77.32-186.53.09-186.91-.23-.32-.26-.34-2.27-.3-25.95l.06-25.66.52-.27c.86-.43 188.12-.28 188.39.15m32.96-.03c3.81.6 7.67 2.98 10.19 6.31 2.98 3.95 3.18 15.77.34 19.77-.24.33-.64.95-.88 1.37-.75 1.32-3.56 3.38-5.67 4.17-3.73 1.4-4.49 1.48-12.64 1.48-7.3 0-7.33 0-7.86.48l-.54.47v8.7c-.01 8.34-.03 8.73-.42 9.08-.54.5-9.45.37-9.95-.14-.27-.26-.3-3.83-.3-25.83V78.6l.47-.4c.52-.42 24.45-.38 27.26.05m30.56 5.05c-3.76.49-5.97 1.13-7.22 2.1-.4.31-.95.64-1.21.72-.85.27-3.11 2.74-3.51 3.83a6.6 6.6 0 0 1-.63 1.31c-.93 1.17-1.45 4.86-.85 6.02.54 1.03.94 1.14 3.76 1.04a21.1 21.1 0 0 1 3.04.04c1.88.48 4.05-.42 4.3-1.78.08-.4.38-1.07.66-1.48.28-.42.51-.83.51-.92 0-.1.53-.37 1.18-.6a9.93 9.93 0 0 0 1.62-.76c.59-.41 3.51-.4 4.63.03.46.18 1.03.37 1.26.43 2.25.58 2.85 3.8.91 4.84-.36.2-.8.53-.99.73-.23.26-.64.37-1.4.37-2.73 0-10.55 1.21-12.44 1.93-3.05 1.16-6.7 3.7-6.7 4.68 0 .14-.14.4-.3.57-2.24 2.23-2.37 11.36-.2 13.76.16.19.3.44.3.57 0 .9 3.93 3.77 6.17 4.51 3.14 1.04 13.08.02 13.08-1.34 0-.09.32-.27.71-.4.4-.13.83-.37.97-.54.24-.28 2.33-1.56 2.55-1.56.06 0 .16.38.22.84.08.58.34 1.07.81 1.56l.7.71 5.26.06c5.8.06 6.36-.04 6.36-1.18 0-.61-.6-2.2-.84-2.2-.09 0-.39-.35-.66-.78l-.49-.79-.1-13.6c-.1-13.36-.12-13.62-.55-14.35a5.6 5.6 0 0 1-.58-1.5 2.07 2.07 0 0 0-.45-1 4.16 4.16 0 0 1-.7-1.16c-.25-.55-.59-.95-.9-1.05a3.99 3.99 0 0 1-1.08-.65c-.32-.27-.71-.5-.87-.5a.44.44 0 0 1-.38-.28c-.06-.17-.43-.36-.81-.45a8.7 8.7 0 0 1-1.32-.41c-.9-.39-3.08-.94-3.69-.94-.29 0-.62-.1-.75-.24-.29-.28-7.55-.43-9.38-.2m24.34.45c-.7.7-.75 1.93-.1 2.67.16.2.35.77.42 1.27.06.51.3 1.17.52 1.47.21.3.45 1.04.53 1.66.07.6.35 1.6.63 2.2.28.59.56 1.53.63 2.09.08.56.27 1.26.44 1.57a8 8 0 0 1 .53 1.6 6 6 0 0 0 .52 1.49c.16.24.35.9.43 1.46.08.57.33 1.35.56 1.75.22.39.46 1.2.53 1.78.07.58.28 1.3.48 1.58.2.29.42.93.5 1.43.07.5.31 1.26.52 1.68.21.42.45 1.27.53 1.9.08.62.38 1.68.66 2.35.28.66.5 1.47.5 1.8 0 .32.2.93.43 1.36.5.94.54 2.2.08 2.85-.19.26-.42 1.2-.53 2.08a5.39 5.39 0 0 1-.6 2.18c-.24.31-.42.92-.43 1.36 0 .44-.23 1.64-.5 2.68-.43 1.68-.45 1.94-.19 2.46.3.57 1.2 1.1 1.53.89.1-.06 2.2-.11 4.68-.12l4.5-.02.75-.67c.67-.59.78-.84 1-2.23.14-.86.38-1.73.54-1.92.16-.18.34-.9.4-1.56.07-.68.24-1.42.38-1.66.15-.23.42-1.3.6-2.38a9.8 9.8 0 0 1 .56-2.22c.12-.14.35-.89.5-1.66.17-.76.4-1.5.51-1.65.12-.14.32-.9.45-1.71.13-.8.42-1.86.65-2.34.23-.48.47-1.38.54-1.99.07-.6.26-1.3.41-1.54.16-.24.39-1 .51-1.68.13-.68.31-1.34.41-1.45.1-.12.33-1.07.52-2.1.2-1.03.49-2.3.66-2.82.17-.51.44-1.4.6-1.98.15-.58.43-1.51.6-2.08.19-.56.33-1.35.33-1.75 0-.4.2-1.05.45-1.45.27-.44.5-1.3.6-2.18.1-.85.3-1.62.5-1.83.19-.2.34-.61.34-.9 0-.57.3-1.65.69-2.45.21-.44.16-.57-.54-1.2l-.77-.71h-4.63c-6.14 0-5.87-.13-6.66 3.03-.12.46-.41 1.4-.66 2.08a7.98 7.98 0 0 0-.45 1.89c0 .35-.16.8-.33 1-.18.2-.36.86-.42 1.47-.05.6-.22 1.24-.36 1.41-.14.17-.4.6-.58.94l-.32.63-.15-1.05a3.5 3.5 0 0 0-.52-1.46c-.2-.23-.42-.92-.49-1.54a4.06 4.06 0 0 0-.32-1.36 7 7 0 0 1-.54-1.56 16.6 16.6 0 0 0-.74-2.2 7.85 7.85 0 0 1-.52-1.65c-.23-1.42-1.12-1.63-6.85-1.63h-4.8l-.65.64m-258.14.2c-4.95.06-9.02.13-9.03.16-.83 1.2-.5 4.09.52 4.63.28.15 3.07.23 8.34.23 11.46 0 12.8.3 14.02 3.24 1.77 4.23-.1 8.3-4.12 8.96-1.83.3-12.78.43-13.06.15-.15-.15-.25-1.75-.28-4.62-.06-5.56.12-5.22-2.79-5.22h-2.3l-.4.68c-.58.93-.67 28.18-.1 29.26.39.77.88.9 3.12.8 2.65-.11 2.45.51 2.43-7.8 0-4.5.06-7.2.2-7.47.2-.38.5-.4 6.67-.4 4.98 0 6.62-.06 7.17-.29a8.91 8.91 0 0 1 1.9-.42c2.42-.27 5.75-2.73 6.68-4.94.22-.52.59-1.29.82-1.71.77-1.42.68-7.01-.15-8.77-1.52-3.24-4.02-5.14-7.92-6.05-2.47-.58-1.5-.55-11.72-.42m243.25.43c.9.13 1.81.36 2.05.52.23.17.6.3.8.3 1.27 0 5.49 2.47 6.2 3.63.24.37.62.9.85 1.17.24.28.44.74.44 1.04 0 .3.21.97.47 1.49.46.93.46 1 .57 14.44.11 14.46.06 13.85 1.18 15.06 1.34 1.44.5 1.7-5.17 1.64l-4.69-.06-.63-1.26a38.2 38.2 0 0 1-.92-1.95c-.32-.78-.5-.72-1.88.56-.39.37-.82.66-.95.66-.14 0-.57.33-.96.73-.4.4-.86.74-1.04.74-.18 0-.61.17-.96.39-2.91 1.77-11.17 1.9-13.21.2a7.6 7.6 0 0 0-.9-.57c-5-2.8-6.67-9.83-3.71-15.65 1.32-2.61 5.48-5.34 8.83-5.81.57-.08 1.56-.32 2.2-.53.66-.22 2.16-.44 3.55-.52 1.33-.08 2.88-.28 3.46-.44.57-.16 1.48-.35 2.02-.42 3.41-.42 4.77-4.5 2.24-6.7-1.33-1.18-6.3-1.98-7.7-1.25-.39.2-1.15.5-1.7.66-1.22.36-1.82 1.02-2.81 3.12-.9 1.88-.57 1.78-5.64 1.72l-3.97-.05-.18-.63c-.25-.9-.01-2.58.55-3.78.26-.57.54-1.3.63-1.64.4-1.58 3.9-4.9 5.85-5.54l1.6-.61c2.14-.84 9.6-1.2 13.53-.66m25.72-.04c.52.11.65.27.8.97.1.46.37 1.35.6 1.98.23.64.5 1.53.59 2 .1.45.31 1.25.5 1.77l1.3 4.03a59.7 59.7 0 0 0 1.04 3.09c.23 0 1.54-3.26 1.65-4.1a6 6 0 0 1 .46-1.68c.17-.33.4-1.16.51-1.83.11-.68.38-1.58.58-2 .21-.41.44-1.24.5-1.84.13-1.12.45-1.86 1-2.3.44-.37 9.19-.38 9.68-.01.37.28.35.43-.37 2.87-.44 1.48-1.1 3.98-1.46 5.45a23.5 23.5 0 0 1-.59 1.98 12.1 12.1 0 0 0-.45 1.98c-.08.62-.33 1.4-.55 1.7-.22.32-.4.78-.4 1.02 0 .43-.63 3.12-1.07 4.62-.61 2.05-1 3.54-1.12 4.29-.08.46-.32 1.3-.53 1.88a27.83 27.83 0 0 0-1.16 4.46 11.6 11.6 0 0 1-.6 2.1c-.16.3-.36.89-.44 1.3-.08.4-.36 1.43-.63 2.3a68.79 68.79 0 0 0-1.78 7.14 4.46 4.46 0 0 1-1.16 2.5c-.52.42-9.18.5-9.54.07-.33-.4-.07-2.64.46-3.78.22-.49.4-1.19.4-1.55 0-.36.13-.95.29-1.32.96-2.18 1.38-5.5.86-6.75-.19-.45-.42-1.2-.52-1.65-.1-.46-.43-1.64-.73-2.62-.3-.98-.69-2.29-.86-2.92a6.28 6.28 0 0 0-.5-1.36c-.1-.12-.33-.78-.52-1.47-.2-.7-.48-1.59-.63-2-.16-.4-.4-1.2-.55-1.77a6.2 6.2 0 0 0-.4-1.26 3.4 3.4 0 0 1-.3-.94 84.5 84.5 0 0 0-2.2-7.54 49.06 49.06 0 0 1-1.15-3.8c-.07-.41-.27-.87-.44-1.01a1 1 0 0 1-.3-.7c0-.23-.16-.98-.36-1.67-.51-1.84-.56-1.82 4.95-1.8 2.48.02 4.8.1 5.14.17m-259.15.55c.27.18 1.22.4 2.12.5 1.09.13 1.68.3 1.8.5.1.18.5.43.88.56.74.24 3.9 3.3 3.9 3.76 0 .1.24.69.52 1.3.8 1.71.8 6.44 0 6.96-.36.25-.52.54-.52.98 0 .68-1.3 2.62-2.4 3.58-2.49 2.16-3.36 2.34-11.93 2.43-9.62.1-8.65-.83-8.72 8.4-.07 7.9.09 7.4-2.3 7.3l-1.55-.06-.1-10.05a546.2 546.2 0 0 1 0-14.23l.1-4.19 1.58-.05c2.35-.09 2.26-.26 2.35 4.48.07 3.85.1 4.05.6 4.79l.5.77 5.74-.03c4.61-.03 5.82-.1 6.17-.34.25-.18.92-.3 1.62-.3.95 0 1.32-.1 1.78-.5a8.2 8.2 0 0 1 1.25-.82c1.5-.77 2.55-3.81 2.2-6.39-.37-2.87-1.55-4.49-3.9-5.34-2.15-.77-2.7-.81-11.3-.84l-8.58-.03-.07-1.05a9.3 9.3 0 0 1 .06-1.73l.13-.68h8.79c7.55 0 8.86.05 9.28.32m141.06 1.56c-.73.3-.8.6-.9 4.02-.13 3.78-.02 3.55-1.81 3.76-1.96.24-2.38.8-2.08 2.76.2 1.34.34 1.46 2 1.63.84.1 1.57.23 1.65.3.07.07.18 4.38.25 9.58.13 9.39.22 10.47.92 11.83a4.86 4.86 0 0 0 2.69 2.04c.36.07.8.24.96.38.16.13.91.23 1.67.23 3.11 0 4.89-1.72 4-3.87-.27-.64-.28-.64-2.48-.94-1.37-.18-2.05-.6-2.2-1.38-.25-1.25-.16-17.74.1-17.9.13-.08 1.07-.2 2.09-.27 2.36-.17 2.58-.36 2.59-2.24 0-1.88-.36-2.18-2.62-2.18-2.46 0-2.3.24-2.3-3.38 0-3.4-.2-4.2-1.09-4.44a9.9 9.9 0 0 0-3.44.07m35.82.52-.52.51v6.91c0 9.2-.59 8.4 6.24 8.39 8.1-.02 9.62-.52 11.66-3.88l.63-1.03v-6.74l-.8-1.2c-.9-1.35-2.85-2.76-4.1-2.95a20.3 20.3 0 0 1-1.51-.32c-.42-.11-3.08-.2-5.92-.2h-5.17l-.51.51m-32.8.66c.46.09.47.15.47 2.9 0 2.17.08 2.98.34 3.53l.33.71 1.9.12c2.07.14 2.24.24 2.24 1.4 0 .99-.2 1.23-.94 1.2-1.97-.08-2.56.05-3.22.73l-.65.67v8.82c0 8.8 0 8.82.48 9.73a3.69 3.69 0 0 0 3.32 1.88h1.01v.8c0 1.76-1.95 2.33-4.76 1.39-3.34-1.12-3.4-1.35-3.41-13.61-.02-9.99-.1-10.3-2.72-10.34-1.24-.02-1.6-.82-.93-2.11.3-.56.42-.62 1.38-.62.62 0 1.31-.15 1.66-.35l.6-.36v-3.15c0-3.86.05-3.92 2.9-3.34m46.37.57c2.6 1.21 3.7 3.15 3.7 6.53 0 2.36-.14 2.97-.93 3.81-.28.3-.62.82-.76 1.14-.13.33-.34.6-.46.6-.13 0-.42.17-.66.38-.86.77-1.68.87-7.76.87-5.2 0-5.93-.04-6.04-.33-.24-.61-.15-12.86.1-13.3.4-.75 11.1-.5 12.81.3M115.1 94.05c-6.2 2.05-9.29 6.9-9.29 14.58 0 6.66 1.8 10.38 6.38 13.13 4.14 2.5 12.43 1.82 15.6-1.27.57-.56 1.25-1.16 1.5-1.32 1.97-1.33 3.24-5.82 3.25-11.49l.01-4.61-.67-1.56c-1.02-2.39-1.09-2.5-2.28-3.79-1.98-2.15-3.85-3.18-7.57-4.16-1.66-.44-4.79-.22-6.94.5m81.25-.38c-.52.16-1.47.43-2.12.6-.65.18-1.75.71-2.46 1.18-1.62 1.09-2.38 1.08-2.54 0-.14-.97-.75-1.26-2.64-1.27-2.5 0-2.27-1.7-2.34 16.75l-.06 15.87.48.53c.45.5 1.65.7 3.66.57.97-.06 1.32-1.08 1.32-3.82 0-3.7.04-3.77 1.79-2.66.57.36 1.32.75 1.66.87.35.11.78.34.97.5.5.44 6.26.41 7.14-.03.35-.18.76-.32.9-.32 1.06 0 4.25-2.45 5.17-3.98.24-.4.6-.92.79-1.15.43-.5 1.17-2.55 1.44-3.98.11-.57.34-1.42.52-1.88.5-1.3.46-6.41-.05-7.54a8.57 8.57 0 0 1-.54-1.87c-.43-2.9-5.16-7.86-7.48-7.86-.18 0-.91-.19-1.64-.42a6.1 6.1 0 0 0-3.97-.09m-96.68.4a6.5 6.5 0 0 0-1.47.67c-.07.1-.39.31-.7.47-.33.17-1.05.8-1.62 1.39l-1.02 1.08-.22-.54c-.11-.3-.27-1-.35-1.56-.17-1.2-.51-1.4-2.4-1.4-2.76 0-2.55-1.15-2.54 14.03 0 15.13-.23 14.02 2.97 14.02H94l.3-.73c.24-.58.3-2.13.3-8.05 0-10.53.36-11.68 4.27-13.7 1.58-.82 2.06-.96 3.07-.96 1.51 0 1.73-.26 1.84-2.13.16-2.98-1-3.71-4.13-2.58m49.76-.04c-.88.25-1.73.56-1.88.69a3.7 3.7 0 0 1-.91.44c-.35.12-1 .56-1.43.97-1.1 1.05-1.39.9-1.4-.74 0-.92-.67-1.22-2.72-1.22-1.28 0-1.93.1-2.26.33l-.46.32v13.35c0 15.66-.32 14.05 2.76 14.05 2.8 0 2.55.89 2.69-9.5l.12-8.81.75-1.47c1.6-3.1 4.81-4.83 7.36-3.94.45.15.97.28 1.17.28.42 0 1.09.68 1.55 1.6.3.6.34 1.86.34 10.43 0 12.1-.19 11.4 3.06 11.4 2.92.01 2.69.76 2.74-9.06.06-9.73.04-9.56.85-11.26 1.7-3.6 6.96-4.76 9.52-2.09l1 1.04v7.18c0 15.48-.27 14.06 2.67 14.16 3.18.1 2.86 1.26 2.93-10.75l.06-10.19-.53-1.7c-.61-2-1.9-3.79-3.32-4.62-3.66-2.15-10.39-1.39-12.89 1.45-.82.95-1.65 1-2.15.12-1.24-2.2-6.15-3.45-9.62-2.46m-27.91.57 2.5.55c.35.07.91.3 1.26.51.35.21 1 .59 1.46.83.45.25 1 .68 1.22.95.21.28.51.5.67.5.14 0 .32.19.38.42.06.23.25.42.43.42.17 0 .38.2.46.47.15.5.55 1.42 1.49 3.4.81 1.72.88 8.59.1 10.04-.25.45-.45 1-.45 1.2 0 .55-2.29 4.77-2.58 4.77a4 4 0 0 0-1.15.93 6 6 0 0 1-1.57 1.17l-2 .8c-2.35.95-8.79.7-10.39-.4-.11-.07-.44-.2-.73-.27-.56-.13-3.77-3.1-3.77-3.48 0-.13-.17-.49-.38-.8l-1-1.49-.6-.92v-5.4c0-5.12.02-5.41.43-5.98.24-.32.54-.9.67-1.28s.43-.93.67-1.23a2 2 0 0 0 .42-.94.6.6 0 0 1 .37-.53c.2-.07.74-.53 1.2-1a9.05 9.05 0 0 1 1.52-1.27c.37-.22.68-.46.68-.54 0-.08.5-.31 1.1-.5.6-.2 1.19-.45 1.3-.55.1-.1.44-.18.73-.18.3 0 .96-.14 1.47-.3 1.28-.4 1.9-.4 4.09.1m78.28.08c1.56.31 3.77 1.07 4.24 1.46a18.5 18.5 0 0 1 3.1 3.33c.17.37.64 1.27 1.04 2 .4.74.73 1.58.73 1.86s.2 1.27.43 2.21c.42 1.63.42 1.78.11 3.49-.18.98-.47 2.56-.63 3.51a8.2 8.2 0 0 1-.63 2.2 1.7 1.7 0 0 0-.33.74c0 .16-.18.54-.4.85-.21.3-.42.71-.47.9-.17.8-2.37 3.08-3.32 3.45-.51.2-1.27.56-1.67.8-1.35.78-7.81.66-8.77-.16a2.48 2.48 0 0 0-.88-.43c-.3-.07-.89-.5-1.3-.94-1.58-1.76-2.45-.78-2.45 2.79 0 1.38-.06 2.87-.13 3.3l-.13.8-1.6-.06-1.6-.06-.04-15.6-.06-15.6.58-.2c1.34-.48 2.63-.09 2.82.84.38 1.91 1.24 2.32 2.57 1.2 1.6-1.33 1.93-1.56 2.82-1.97.86-.4 3-.9 4.09-.98.23-.02 1.08.1 1.88.27m-97.14.8c.45 2.25.18 2.66-1.73 2.68-.9 0-1.45.15-2.33.63a5.9 5.9 0 0 1-1.5.61c-.33 0-1.58 1.36-1.94 2.12-.1.22-.26.4-.34.4-.74 0-1.1 3.4-1.18 11.3-.08 8.44.03 7.95-1.86 7.95-1.45 0-1.35 1.04-1.34-13.04 0-14.36-.1-13.33 1.36-13.33 1.27 0 1.56.43 1.56 2.26 0 2.2 1.16 2.27 3.22.22.94-.94 1.8-1.6 2.33-1.78.46-.16 1.03-.37 1.26-.48 1.26-.58 2.32-.38 2.49.45m53.19-.35c.11.14.49.37.84.52.34.15.95.69 1.35 1.2 1.3 1.69 2.48 1.73 3.97.15 1.65-1.76 3.12-2.25 6.76-2.26 2.4 0 3.17.07 3.45.3.2.18.63.43.96.57.67.28 2.03 1.32 2.03 1.55 0 .08.22.47.5.87.26.4.54 1.1.62 1.55.07.46.27.94.44 1.09.28.23.32 1.6.32 10.27v10l-.47.16c-.7.23-2.5.1-2.99-.22-.41-.27-.42-.45-.4-9.5.02-10.15-.12-11.63-1.12-12.07-.26-.11-.51-.35-.57-.54-.2-.6-2.92-1.5-4.25-1.39-3.09.25-5.98 2.08-6.53 4.14-.13.5-.38 1.1-.54 1.34-.24.34-.3 1.96-.32 8.69-.03 10.31.12 9.51-1.84 9.6-1.1.03-1.6-.03-1.72-.22-.1-.15-.18-4.72-.18-10.15 0-9.57-.08-10.95-.64-10.95-.09 0-.25-.28-.37-.61-.53-1.52-4.46-2.43-6.42-1.48-.46.22-1 .4-1.2.41-.2 0-.63.24-.94.52l-1.37 1.17c-.43.37-.78.78-.78.93 0 .14-.18.5-.4.77-.72.92-.86 2.66-.86 11.07v8.1l-.64.27c-.72.3-1.36.32-2.66.1l-.9-.16.04-12.59c.04-14.55-.12-13.51 2.07-13.52 1.26 0 2.08.74 2.1 1.9 0 .83.96 2.24 1.13 1.68.08-.24.22-.44.32-.44s.66-.44 1.25-.97a8.33 8.33 0 0 1 4.83-2.25c1-.16 4.91.14 5.13.4m-39.15 2.18a7.46 7.46 0 0 0-3.26 2c-1 1.14-1.87 2.47-1.87 2.84 0 .17-.2.68-.47 1.14-.45.8-.47 1.05-.47 5.44v4.6l.58 1.08c.31.6.57 1.16.57 1.26 0 .1.17.34.37.53.2.2.7.73 1.1 1.2.4.47.82.85.93.85.1 0 .39.18.63.4.56.52 3.92 1.35 4.9 1.21 1.32-.18 3.47-.8 3.8-1.08.17-.15.52-.33.77-.4.55-.18 1.86-1.9 2.19-2.88.12-.39.44-1.17.7-1.75a8.7 8.7 0 0 0 .62-2.4c.07-.75.22-1.98.34-2.73.33-2.12-.36-6.23-1.14-6.88-.19-.15-.4-.6-.47-1a1.8 1.8 0 0 0-.65-1.07c-.28-.2-.83-.62-1.2-.94a3.57 3.57 0 0 0-.83-.57c-.08 0-.42-.2-.77-.46-.68-.51-5.03-.77-6.37-.39m78.7-.06c-.22.05-.81.28-1.3.5-.49.23-.93.4-.97.4-1.34 0-3.16 2.62-4.07 5.87-1.11 3.93-.43 11.33 1.12 12.2.17.1.3.3.3.47 0 .17.1.3.22.3.13 0 .48.27.79.58.94.95 1.9 1.51 2.82 1.65.49.08 1.16.27 1.49.44 2.14 1.08 7.8-2.13 8.51-4.82.13-.48.43-1.25.68-1.72.77-1.4.82-7.85.08-9.37-.3-.6-.64-1.6-.78-2.2-.14-.62-.37-1.17-.53-1.23-.15-.06-.34-.29-.4-.5-.08-.23-.23-.4-.36-.4-.12 0-.43-.24-.7-.52a3.3 3.3 0 0 0-1.32-.73c-.48-.13-.87-.32-.87-.42 0-.36-3.7-.76-4.7-.5m-73.37 1.17c1.51.45 3.77 2.26 3.77 3.02 0 .11.3.67.68 1.23l.68 1.03v3.88c0 3.74-.02 3.9-.55 5.02a12 12 0 0 0-.67 1.7c-1.09 4.58-8.26 6.08-12.01 2.5-4.8-4.57-3.19-16.41 2.5-18.35 1.77-.6 3.64-.6 5.6-.02m77.61.15a6.4 6.4 0 0 1 4.15 4.5c.08.34.34 1 .58 1.46.65 1.27.64 5.78-.02 7.43a12 12 0 0 0-.58 1.93c-.24 1.52-2.68 3.77-4.72 4.36l-1.7.48-1.98-.37c-2.84-.54-5.1-2.58-5.43-4.92a32.8 32.8 0 0 0-.43-2.2 10.6 10.6 0 0 1 .03-4.82c.17-.7.3-1.64.3-2.1.01-.46.13-1.03.27-1.28l.73-1.3c.58-1.05 2.46-2.96 2.94-2.98.2 0 .88-.19 1.51-.4 1.41-.48 2.61-.42 4.35.21m108.47 7.15c-.63.23-1.9.55-2.82.7-4.56.77-5.62 1.05-7.3 1.95-2.98 1.6-2.67 7.49.5 9.15.9.47 4.3.47 5.92-.01 1.54-.46 4.54-2.34 4.54-2.85 0-.1.23-.5.51-.92.28-.42.57-1.2.64-1.74.07-.54.27-1.52.44-2.18.98-3.77.22-5.06-2.43-4.1m1.43 3.39c-.08 2.66-.14 3.06-.54 3.56-.24.31-.5.85-.58 1.19-.07.34-.26.62-.42.62-.16 0-.6.26-.98.6-.38.32-1.06.71-1.52.86a5.1 5.1 0 0 0-1.05.43c-.96.75-5.06.7-6-.08-2.57-2.08-1.96-6.66.97-7.35.35-.08.8-.3 1.01-.49.24-.21.97-.4 1.92-.49a6.2 6.2 0 0 0 2.06-.5c.31-.2 1.12-.38 1.96-.43 1.46-.1 2.58-.41 2.58-.74 0-.1.15-.19.34-.19.3 0 .33.33.25 3"/></g></svg>