<?xml version="1.0" encoding="UTF-8"?>
<svg width="60px" height="40px" viewBox="0 0 60 40" version="1.1" xmlns="http://www.w3.org/2000/svg" xmlns:xlink="http://www.w3.org/1999/xlink">
    <!-- Generator: Sketch 51.3 (57544) - http://www.bohemiancoding.com/sketch -->
    <title>ratepay</title>
    <desc>Created with Sketch.</desc>
    <defs></defs>
    <g id="ratepay" stroke="none" stroke-width="1" fill="none" fill-rule="evenodd">
        <g transform="translate(-1.000000, 0.000000)" fill-rule="nonzero">
            <rect id="Rectangle-path" fill="#2A3954" x="0" y="0" width="61.5384615" height="40"></rect>
            <g id="Page-1-2" transform="translate(4.615385, 13.846154)">
                <path d="M1.84555385,11.6047077 C1.10458589,11.2178139 0.633198477,10.4580183 0.615646154,9.62230769 C0.579015385,8.85190769 0.611753846,8.07830769 0.614107692,7.30630769 C1.70521538,6.23430769 2.79612821,5.16230769 3.88684615,4.09030769 C4.91176923,3.07830769 5.93382051,2.06364103 6.953,1.04630769 C7.75254996,0.999316285 8.55459399,1.0172417 9.35124615,1.09990769 C9.89835369,1.21210642 10.3829554,1.52666896 10.7081692,1.98070769 C10.8087231,2.10870769 10.8289846,2.19510769 10.6964923,2.33030769 C9.2008,3.85910769 7.70978462,5.39295385 6.22344615,6.93184615 C6.13274347,7.05289662 5.96113145,7.07759949 5.83996923,6.98704615 C5.09173846,6.59584615 4.34038462,6.21184615 3.58824615,5.82784615 C3.19776923,5.62864615 3.12606154,5.67344615 3.12372308,6.10630769 C3.12064615,6.67750769 3.11981538,7.24950769 3.10890769,7.82070769 C3.08646419,8.02278992 3.19970674,8.21553892 3.38715385,8.29430769 C3.76361538,8.48310769 4.12604615,8.70070769 4.49392308,8.90630769 C3.61084615,9.80630769 2.72803077,10.7057949 1.84547692,11.6047692" id="Fill-1" fill="#F7B532"></path>
                <path d="M1.84555385,11.6047077 C2.72863077,10.7055077 3.61144615,9.80602051 4.494,8.90624615 C4.97956923,9.16224615 5.46904615,9.40944615 5.94838462,9.67824615 C6.03899205,9.74383838 6.15212155,9.77034945 6.26243711,9.75184207 C6.37275268,9.73333469 6.47103634,9.67135532 6.53527692,9.57978462 C7.99512308,8.07018462 9.46664615,6.57178462 10.9335077,5.06938462 C10.9997538,5.00138462 11.0558769,4.92138462 11.1268,4.83418462 C11.1839439,4.93598284 11.2037864,5.05452651 11.1829077,5.16938462 C11.1852462,6.58458462 11.1649846,7.99978462 11.1899231,9.41418462 C11.2082345,10.0679148 10.9614612,10.7012781 10.5056996,11.1702982 C10.049938,11.6393183 9.42390956,11.9041474 8.76992308,11.9045846 C6.82530769,11.8621846 4.87915385,11.8917846 2.93367692,11.8941846 C2.55039263,11.9068361 2.17189792,11.8060954 1.84561538,11.6045846" id="Fill-4" fill="#FFFFFF"></path>
                <path d="M14.7290769,4.64678462 C14.7290769,5.07798462 14.7306154,5.50918462 14.7283077,5.94038462 C14.7275231,6.06358462 14.7368769,6.15478462 14.8966615,6.14998462 C15.3943669,6.16733528 15.8926753,6.14861966 16.3876769,6.09398462 C17.1147526,6.02128641 17.6597078,5.39534549 17.6316154,4.66518462 C17.7256419,3.92944645 17.231442,3.24739272 16.5030154,3.10758462 C15.9743754,2.99912689 15.4276709,3.01611475 14.9067846,3.15718462 C14.7703846,3.18918462 14.7228462,3.26678462 14.7259692,3.41318462 C14.7353231,3.82438462 14.7290462,4.23558462 14.7290462,4.64678462 M17.1452308,6.74598462 C17.6925752,7.16232164 18.0987894,7.73677224 18.3088923,8.39158462 C18.6635231,9.20198462 19.0259538,10.0091846 19.4031846,10.8587846 C18.9354923,10.8587846 18.5014,10.8572462 18.0672769,10.8595846 C17.9137231,10.8603846 17.9129538,10.7243846 17.8724154,10.6331846 C17.5248,9.84038462 17.1842,9.04358462 16.8373538,8.24998462 C16.5950554,7.40497517 15.7155966,6.91448409 14.8693385,7.15238462 C14.6713692,7.18198462 14.7321692,7.31638462 14.7313846,7.41958462 C14.7274923,8.46358462 14.7204769,9.50678462 14.7352923,10.5507846 C14.7383692,10.7987846 14.6822923,10.8883846 14.4320923,10.8643846 C14.1787764,10.8411808 13.9238697,10.8411808 13.6705538,10.8643846 C13.4468615,10.8843846 13.3985385,10.8075846 13.3993077,10.5851846 C13.4086615,8.64838462 13.4047692,6.71078462 13.4047692,4.77398462 C13.4047692,4.07158462 13.4078462,3.36918462 13.4024308,2.66678462 C13.4016462,2.52678462 13.411,2.42524615 13.5684462,2.37158462 C14.7959896,1.88109557 16.1560612,1.83357227 17.4148462,2.23718462 C18.0521764,2.47869011 18.5586863,2.97690095 18.810687,3.61015479 C19.0626876,4.24340863 19.0369815,4.95341254 18.7398462,5.56678462 C18.4273192,6.19214244 17.8346509,6.63039702 17.1451692,6.74598462" id="Fill-6" fill="#FFFFFF"></path>
                <path d="M44.2173538,3.28998462 C43.8712923,4.79078462 43.3257077,6.12758462 42.9375538,7.53398462 C43.7364462,7.53398462 44.4979385,7.52678462 45.2602,7.53878462 C45.4823385,7.54278462 45.4979231,7.47638462 45.4332308,7.28118462 C45.1651077,6.47718462 44.9133692,5.66758462 44.6514769,4.86198462 C44.4785855,4.34617875 44.333667,3.82141512 44.2173538,3.28998462 M47.9094154,10.8587846 C47.5017231,10.8587846 47.0926,10.8499846 46.6834,10.8627846 C46.5150615,10.8683846 46.4979077,10.7539846 46.4628308,10.6443231 C46.2625231,10.0283231 46.0575385,9.41312308 45.8689846,8.79312308 C45.8582299,8.71738917 45.8172833,8.64923144 45.7554697,8.60417179 C45.6936562,8.55911215 45.616238,8.54098664 45.5408462,8.55392308 C44.6515436,8.56592308 43.7619744,8.56592308 42.8721385,8.55392308 C42.6906,8.55238462 42.6235077,8.61632308 42.5705077,8.78832308 C42.3803385,9.40752308 42.1628154,10.0187231 41.9734769,10.6387231 C41.9646321,10.7106422 41.926263,10.7756388 41.8675685,10.8181304 C41.808874,10.8606221 41.7351464,10.8767773 41.6640615,10.8627231 C41.3522923,10.8483231 41.0381846,10.8483231 40.7264308,10.8627231 C40.5261077,10.8715231 40.4996154,10.8179231 40.5650923,10.6275231 C40.9633692,9.46752308 41.3499538,8.30272308 41.7412154,7.13952308 C42.2750615,5.55072308 42.8144615,3.96352308 43.3390154,2.37152308 C43.4076,2.16432308 43.4980154,2.09552308 43.7068923,2.10592308 C44.0778923,2.12438462 44.4496769,2.11392308 44.8214462,2.10912308 C44.9304253,2.08883841 45.0355366,2.15969324 45.0576154,2.26832308 C46.0069385,5.10672308 46.9598974,7.94405641 47.9164923,10.7803231 C47.9180114,10.8066794 47.9156476,10.8331159 47.9094769,10.8587846" id="Fill-8" fill="#FFFFFF"></path>
                <path d="M37.2507692,4.74263077 C37.2507692,5.18416923 37.25,5.62583077 37.2515538,6.06743077 C37.2523385,6.16023077 37.2172615,6.26983077 37.3730923,6.28743077 C38.0305541,6.41361067 38.7107955,6.33832499 39.3247538,6.07143077 C39.9064468,5.77987306 40.2294098,5.14252611 40.1205231,4.50103077 C40.1181883,3.89549962 39.7295096,3.35906487 39.1548308,3.16823077 C38.5901877,2.99349342 37.9864037,2.99015254 37.4198615,3.15863077 C37.2834615,3.19383077 37.2444769,3.27623077 37.2475538,3.41783077 C37.2561231,3.85936923 37.2506308,4.30103077 37.2506308,4.74263077 M35.9389846,6.63230769 C35.9389846,5.31710769 35.9389846,4.00190769 35.9389846,2.68670769 C35.9382,2.54670769 35.9187077,2.41790769 36.1010923,2.35470769 C37.310173,1.86631133 38.6552,1.83220951 39.8874769,2.25870769 C40.8813107,2.63466581 41.5168501,3.61137093 41.458,4.67230769 C41.5002633,5.70824963 40.8951188,6.66162721 39.9397077,7.06430769 C39.2062797,7.37534994 38.4027619,7.48365743 37.6131538,7.37790769 C37.2515077,7.33636923 37.2507231,7.33944615 37.2507231,7.71470769 C37.2507231,8.65870769 37.2374769,9.60270769 37.2585231,10.5459077 C37.2647538,10.8267077 37.1782462,10.8851077 36.9327231,10.8635077 C36.6890333,10.8405738 36.443716,10.8408417 36.2000769,10.8643077 C35.9646923,10.8883077 35.9327385,10.7907077 35.9343077,10.5779077 C35.9436615,9.26270769 35.9389231,7.94750769 35.9389231,6.63230769" id="Fill-10" fill="#FFFFFF"></path>
                <path d="M23.5885846,8.66910769 C23.5885846,8.32830769 23.5893538,7.98756923 23.5878,7.64756923 C23.5870154,7.56116923 23.6057231,7.46356923 23.4623077,7.47076923 C22.8070603,7.45735444 22.1558868,7.57682392 21.5480769,7.82196923 C21.1014363,8.01629886 20.8441326,8.48943844 20.9237692,8.96996923 C20.9506345,9.40061789 21.2528358,9.76449101 21.6712308,9.86996923 C22.247515,10.0306205 22.8566131,10.0317266 23.4334769,9.87316923 C23.5659692,9.84356923 23.5932615,9.75636923 23.5909231,9.63076923 C23.5846769,9.31076923 23.5885846,8.98996923 23.5885846,8.66923077 M24.8855077,8.22523077 C24.8855077,8.91883077 24.8808923,9.61163077 24.8885846,10.3044308 C24.9127653,10.4448111 24.8258977,10.5804632 24.6882769,10.6172308 C23.5302857,11.0695329 22.2561581,11.1307783 21.0601231,10.7916308 C20.5544259,10.6636225 20.1224232,10.3356784 19.8631865,9.88300623 C19.6039498,9.43033407 19.5397213,8.89177264 19.6852308,8.39083077 C19.8242706,7.74614805 20.2900956,7.22099438 20.9135846,7.00603077 C21.6839024,6.71613634 22.4975828,6.55818944 23.3204154,6.53883077 C23.5370923,6.52203077 23.5963231,6.47163077 23.5947692,6.24683077 C23.5862,5.40683077 23.2424615,5.01323077 22.4193846,4.96043077 C21.8008753,4.9276783 21.183089,5.03714862 20.6134923,5.28043077 C20.3913538,5.37083077 20.3196462,5.31483077 20.2752154,5.10923077 C20.2569338,5.04186259 20.2340177,4.97583858 20.2066308,4.91163077 C20.0156769,4.38683077 20.0148923,4.38283077 20.5550308,4.21643077 C21.3179961,3.96021168 22.1282199,3.87606534 22.9275538,3.97003077 C23.500194,3.97705348 24.04232,4.22934632 24.4164494,4.66292822 C24.7905789,5.09651011 24.9607752,5.66973385 24.8838769,6.23723077 C24.8916769,6.90043077 24.8854154,7.56283077 24.8854154,8.22523077" id="Fill-12" fill="#FFFFFF"></path>
                <path d="M32.3615385,4.95407692 C31.8596811,4.98815395 31.3935252,5.22576316 31.0710915,5.61184412 C30.7486578,5.99792509 30.5979338,6.49896574 30.6538462,6.99886154 C30.6671077,7.13646154 30.7271231,7.13646154 30.8245385,7.12286154 C31.7723128,6.98607179 32.7203385,6.85061026 33.6686154,6.71647692 C33.7660462,6.70286154 33.8221538,6.68367692 33.8284,6.55801538 C33.8658679,6.14610238 33.7281605,5.73745112 33.4490308,5.4322253 C33.1699011,5.12699949 32.7751516,4.95341377 32.3615385,4.95401538 M32.7793077,10.99 C31.8464585,11.0760755 30.9245833,10.7365679 30.2703846,10.0660154 C29.8116615,9.55762593 29.5280954,8.91550808 29.4613538,8.23401538 C29.2546492,7.13983219 29.4767964,6.00806443 30.0817692,5.0732 C30.6014443,4.37397743 31.411531,3.94980118 32.2822458,3.92099001 C33.1529607,3.89217884 33.9893159,4.26187583 34.5540769,4.92521538 C35.0138271,5.62635749 35.2165321,6.46509876 35.1277231,7.29881538 C35.1231077,7.45961538 35.0123385,7.462 34.9063692,7.47727692 C33.6195538,7.66047692 32.3335231,7.85087692 31.0451692,8.02127692 C30.7941846,8.05406154 30.7162462,8.11726154 30.7801692,8.38767692 C30.9402725,9.2376558 31.6723006,9.86035181 32.5369538,9.88207692 C33.1549012,9.93306004 33.775687,9.82654161 34.3412923,9.57247692 C34.5712154,9.46847692 34.6172154,9.55166154 34.6748769,9.73401538 C34.7178025,9.89844653 34.7789773,10.057563 34.8572615,10.2084 C35.0186,10.4828 34.9016923,10.6004154 34.6515077,10.6684 C34.3592,10.7476 34.0692769,10.8420154 33.7738769,10.9020154 C33.4472401,10.972072 33.1132168,11.0016228 32.7793538,10.99" id="Fill-14" fill="#FFFFFF"></path>
                <path d="M6.95343077,1.04598462 C5.93162564,2.06118462 4.90929744,3.07611795 3.88644615,4.09078462 C2.79839487,5.16518462 1.70773846,6.23691795 0.614476923,7.30598462 C0.612138462,5.97318462 0.595,4.63958462 0.612138462,3.30752308 C0.656481568,2.1073345 1.59667625,1.1326811 2.79449231,1.04518462 C4.18029231,1.01718462 5.5668,1.04364615 6.95343077,1.04598462" id="Fill-16" fill="#D9C8A2"></path>
                <path d="M46.3913538,2.11063077 C46.8504308,2.11063077 47.2705385,2.12023077 47.6898154,2.10583077 C47.8652,2.10023077 47.8963538,2.22263077 47.9493538,2.33543077 C48.4824821,3.46183077 49.0148205,4.58798462 49.5463692,5.71389231 C49.5837846,5.79235385 49.6274308,5.86829231 49.6936769,5.99469231 C49.9960923,5.35623077 50.2790154,4.76029231 50.5603846,4.16349231 C50.8534462,3.54195385 51.1472769,2.92029231 51.4348923,2.29549231 C51.4894462,2.17703077 51.5432308,2.10269231 51.6905385,2.10669231 C52.1005077,2.11789231 52.5112615,2.11069231 52.9438308,2.11069231 C52.8958013,2.30422354 52.817392,2.48891617 52.7115231,2.65789231 C51.9562821,4.18429231 51.1973949,5.70909231 50.4348615,7.23229231 C50.3812322,7.35063496 50.3568997,7.48015504 50.3639231,7.60989231 C50.3639231,8.60349231 50.3593077,9.59789231 50.3685385,10.5914308 C50.3700769,10.7922308 50.3326923,10.8794308 50.1152308,10.8642308 C49.832114,10.845164 49.5480444,10.8448968 49.2648923,10.8634308 C49.0606923,10.8770308 49.0014615,10.8122308 49.0038,10.5994308 C49.0147077,9.62583077 49.0061385,8.65223077 49.0108,7.67789231 C49.0130197,7.48884667 48.968299,7.30220397 48.8806462,7.13469231 C48.0770769,5.53229231 47.2828462,3.92509231 46.4855231,2.31869231 C46.4598,2.26589231 46.4371846,2.21229231 46.3912,2.11069231" id="Fill-18" fill="#FFFFFF"></path>
                <path d="M27.672,2.11863077 C27.672,2.67383077 27.6860308,3.22503077 27.6657538,3.77543077 C27.6564,4.02423077 27.7405846,4.07783077 27.9596,4.06343077 C28.2316154,4.04496923 28.5067385,4.06823077 28.7803231,4.05543077 C28.9533385,4.04743077 29.0149231,4.09389231 29.0180308,4.28663077 C29.0305077,5.12509231 29.0375231,5.12509231 28.2316154,5.12509231 C27.672,5.12509231 27.672,5.12509231 27.672,5.70029231 L27.672,8.74029231 C27.672,9.48989231 28.0578,9.84183077 28.7694,9.69629231 C29.0086923,9.64749231 29.0289538,9.71949231 29.0156923,9.91783077 C28.9963205,10.0976057 28.9968364,10.2789689 29.0172308,10.4586308 C29.064,10.7594308 28.9322769,10.8706308 28.6633846,10.9082308 C28.3161142,10.9685612 27.9606654,10.9639499 27.6150769,10.8946308 C26.783925,10.693215 26.2381644,9.89778457 26.3493231,9.04983077 C26.3430769,7.84583077 26.3415231,6.64183077 26.3532154,5.43863077 C26.3555538,5.19863077 26.3126923,5.10983077 26.0554769,5.11783077 C25.4498769,5.13783077 25.4498769,5.12263077 25.4498769,4.49863077 C25.4540474,4.42854136 25.4535334,4.3582517 25.4483385,4.28823077 C25.4210462,4.09543077 25.5068,4.05063077 25.6813692,4.05383077 C25.8933846,4.05863077 26.1724,4.15303077 26.3017846,4.01303077 C26.4405231,3.86263077 26.3345231,3.57456923 26.3477692,3.34743077 C26.3641385,3.06896923 26.2378769,2.71783077 26.3960923,2.53143077 C26.5504154,2.34903077 26.8879077,2.32583077 27.149,2.24663077 C27.3136813,2.17130644 27.4911457,2.12787347 27.672,2.11863077" id="Fill-20" fill="#FFFFFF"></path>
            </g>
        </g>
    </g>
</svg>