<?xml version="1.0" encoding="UTF-8"?>
<svg width="60px" height="40px" viewBox="0 0 60 40" version="1.1" xmlns="http://www.w3.org/2000/svg" xmlns:xlink="http://www.w3.org/1999/xlink">
    <!-- Generator: Sketch 51.3 (57544) - http://www.bohemiancoding.com/sketch -->
    <title>visadankort</title>
    <desc>Created with Sketch.</desc>
    <defs>
        <polygon id="path-1" points="0 0 0 40 61.5384615 40"></polygon>
    </defs>
    <g id="visadankort" stroke="none" stroke-width="1" fill="none" fill-rule="evenodd">
        <g transform="translate(-1.000000, 0.000000)">
            <polygon id="Fill-1" fill="#E92127" points="0 40.0004615 61.5384615 40.0004615 61.5384615 0.000461538462 0 0.000461538462"></polygon>
            <path d="M61.5384615,7.20830769 L53.2430769,7.22984615 C53.1,7.28830769 53.0107692,7.50523077 52.8415385,7.63292308 C51.6553846,9.10215385 50.4692308,10.5929231 49.2415385,12.0206154 C49.3892308,10.4452308 49.4569231,8.82061538 49.6692308,7.24523077 L42.6123077,7.22984615 C42.5646154,8.64523077 42.4846154,10.0406154 42.4015385,11.3806154 C42.0523077,9.69753846 40.86,8.31292308 39.2461538,7.71907692 C38.5261538,7.47446154 37.78,7.32369231 37.0215385,7.27292308 L24.8246154,7.31446154 C24.8246154,7.336 24.7815385,7.336 24.6153846,7.31446154 L24.6153846,18.3436923 L36.7261538,18.2806154 C38.5892308,18.1436923 40.2861538,17.1529231 41.32,15.5975385 C41.6907692,14.9898462 42.0030769,14.3483077 42.2523077,13.6821538 C42.1261538,15.2144615 42.0615385,16.7898462 41.8923077,18.3436923 C44.1584615,18.3236923 48.9015385,18.3436923 48.9015385,18.3436923 C48.9430769,16.4283077 49.0507692,14.4267692 49.1769231,12.5313846 L52.8830769,17.9175385 C53.0215385,18.3867692 53.4184615,18.2806154 53.7938462,18.2806154 L61.5384615,18.2806154 L61.5384615,18.1529231 C59.9276923,16.2452308 58.4169231,14.2544615 57.0138462,12.1898462 L57.0338462,12.1052308 C58.4461538,10.4421538 59.9507692,8.856 61.5384615,7.35753846 L61.5384615,7.20830769 Z M35.2015385,13.6590769 C34.2261538,14.4052308 32.7969231,14.0483077 31.5384615,14.1067692 L31.7707692,11.2113846 C33.0353846,11.3067692 35.4707692,10.7744615 35.9,12.4252308 C35.8723077,12.9236923 35.6138462,13.3806154 35.2015385,13.6590769 Z" id="Fill-2" fill="#FFFFFF"></path>
            <g id="Group-11" transform="translate(0.000000, 0.000462)">
                <mask id="mask-2" fill="white">
                    <use xlink:href="#path-1"></use>
                </mask>
                <g id="Clip-5"></g>
                <polygon id="Fill-4" fill="#FFFFFF" mask="url(#mask-2)" points="0 40 61.5384615 40 61.5384615 0 0 0"></polygon>
                <path d="M40,38.2541538 L37.1261538,38.2541538 C37.0261538,37.8172308 36.9107692,37.3926154 36.8415385,36.9633846 C36.8461538,36.6910769 36.6307692,36.4695385 36.36,36.4633846 C36.3246154,36.4633846 36.2907692,36.4664615 36.2569231,36.4726154 C35.1907692,36.4956923 34.1230769,36.4587692 33.0569231,36.5003077 C32.8138462,36.5510769 32.6061538,36.7033846 32.4876923,36.9203077 C32.2861538,37.3572308 32.1123077,37.8064615 31.9646154,38.2664615 L28.7107692,38.2664615 C28.8,38.0233846 28.8676923,37.8126154 28.9538462,37.6095385 C30.4046154,34.2018462 31.8692308,30.8018462 33.3,27.388 C33.5353846,26.6310769 34.2707692,26.148 35.0584615,26.2310769 C35.8446154,26.2572308 36.6323077,26.2356923 37.4538462,26.2356923 C38.3046154,30.2618462 39.1476923,34.2356923 40,38.2541538" id="Fill-6" fill="#29327F" mask="url(#mask-2)"></path>
                <path d="M0.788,26.3206154 C0.966461538,26.276 1.148,26.2452308 1.33261538,26.2298462 C2.88953846,26.2236923 4.448,26.2236923 6.008,26.2283077 C6.81107692,26.1083077 7.55876923,26.6636923 7.67876923,27.4667692 C7.68492308,27.5083077 7.68953846,27.5529231 7.69261538,27.5944615 C8.10953846,29.696 8.50338462,31.8021538 8.908,33.9067692 C8.92646154,34.0036923 8.95415385,34.0990769 9.01261538,34.3406154 C9.14953846,34.0683077 9.23723077,33.9190769 9.30030769,33.7621538 C10.2387692,31.4390769 11.1818462,29.1206154 12.0987692,26.7913846 C12.2572308,26.3867692 12.4341538,26.1898462 12.9156923,26.216 C13.7833846,26.2621538 14.6556923,26.2283077 15.6295385,26.2283077 C15.1449231,27.3836923 14.6956923,28.4652308 14.2372308,29.5406154 C13.0741538,32.2713846 11.8956923,34.9944615 10.7572308,37.7344615 C10.6541538,38.1267692 10.2649231,38.3729231 9.86492308,38.2990769 C8.99261538,38.2606154 8.11723077,38.2867692 7.17261538,38.2867692 C6.81723077,36.9436923 6.46030769,35.6129231 6.10953846,34.2806154 C5.63415385,32.4713846 5.13723077,30.6667692 4.70184615,28.8498462 C4.58184615,28.1467692 4.07723077,27.5713846 3.39569231,27.3621538 C2.53415385,27.0698462 1.66646154,26.7929231 0.801846154,26.5083077 L0.788,26.3206154 Z" id="Fill-7" fill="#29327F" mask="url(#mask-2)"></path>
                <path d="M29.3584615,26.5910769 C29.1846154,27.3956923 29.0184615,28.1710769 28.8461538,28.9664615 C28.1461538,28.7787692 27.4323077,28.6387692 26.7123077,28.548 C26.1215385,28.5049231 25.5292308,28.5849231 24.9723077,28.7864615 C24.1907692,29.088 24.14,29.8049231 24.8107692,30.3033846 C25.2169231,30.5756923 25.6384615,30.8233846 26.0723077,31.0464615 C26.3846154,31.2249231 26.7015385,31.3972308 27.0169231,31.5741538 C28.6646154,32.4741538 29.2723077,34.5387692 28.3723077,36.1864615 C28.06,36.7587692 27.5892308,37.2295385 27.0169231,37.5418462 C25.4476923,38.3926154 23.6353846,38.6818462 21.8784615,38.3649231 C21.3076923,38.2926154 20.7446154,38.1649231 20.1984615,37.9864615 C20.0061538,37.8849231 19.88,37.6910769 19.8646154,37.4726154 C19.9769231,36.7510769 20.1630769,36.0403077 20.3107692,35.3818462 C21.2892308,35.5833846 22.2246154,35.8356923 23.1784615,35.948 C23.7076923,35.9941538 24.24,35.9187692 24.7353846,35.728 C25.2569231,35.6218462 25.5938462,35.1126154 25.4876923,34.5910769 C25.4276923,34.3018462 25.24,34.0556923 24.9753846,33.9233846 C24.6584615,33.7095385 24.3292308,33.5172308 23.9892308,33.3433846 C23.4446154,33.0587692 22.9153846,32.7433846 22.4061538,32.3972308 C21.0015385,31.4264615 20.6492308,29.5003077 21.6215385,28.0941538 C21.7430769,27.9156923 21.8846154,27.7526154 22.0415385,27.6033846 C22.7830769,26.8603077 23.7369231,26.3664615 24.7707692,26.1864615 C26.3076923,25.8741538 27.9,26.0141538 29.3584615,26.5910769" id="Fill-8" fill="#29327F" mask="url(#mask-2)"></path>
                <path d="M17.5653846,38.2572308 L14.4192308,38.2572308 C15.2915385,34.2418462 16.1576923,30.2649231 17.0269231,26.2649231 L20.1684615,26.2649231 C19.2961538,30.2864615 18.4330769,34.2603077 17.5653846,38.2572308" id="Fill-9" fill="#29327F" mask="url(#mask-2)"></path>
                <path d="M35.296,29.71 C35.5929231,31.1238462 35.8913846,32.5361538 36.2006154,33.9992308 L33.5467692,33.9992308 C34.0913846,32.5223077 34.616,31.0976923 35.1390769,29.6761538 L35.296,29.71 Z" id="Fill-10" fill="#FFFFFF" mask="url(#mask-2)"></path>
            </g>
        </g>
    </g>
</svg>