<?xml version="1.0" encoding="UTF-8"?>
<svg width="60px" height="40px" viewBox="0 0 60 40" version="1.1" xmlns="http://www.w3.org/2000/svg" xmlns:xlink="http://www.w3.org/1999/xlink">
    <!-- Generator: Sketch 51.3 (57544) - http://www.bohemiancoding.com/sketch -->
    <title>wechatpay</title>
    <desc>Created with Sketch.</desc>
    <defs>
        <path d="M12.8571429,0.00285714286 C5.75571429,0.00285714286 0,4.83571429 0,10.7957143 C0.08,14.0728571 1.73428571,17.11 4.44285714,18.9557143 C4.66857143,19.1185714 4.80142857,19.3814286 4.80142857,19.6585714 C4.79857143,19.7528571 4.78428571,19.8457143 4.75714286,19.9342857 C4.54,20.7485714 4.19285714,22.0514286 4.17714286,22.1114286 C4.14142857,22.2128571 4.11714286,22.3185714 4.10857143,22.4285714 C4.10714286,22.6657143 4.29857143,22.8571429 4.53714286,22.8585714 C4.62571429,22.8557143 4.71,22.8285714 4.78428571,22.78 L7.59857143,21.1428571 C7.80571429,21.0142857 8.04,20.9471429 8.28142857,20.9414286 C8.40857143,20.9414286 8.53857143,20.9628571 8.66,21 C10.0242857,21.3928571 11.4371429,21.5928571 12.8571429,21.5928571 C19.9571429,21.5928571 25.7142857,16.7585714 25.7142857,10.7957143 C25.7071429,9.02428571 25.2,7.29142857 24.25,5.79428571 L9.44571429,14.4071429 L9.35142857,14.46 C9.23142857,14.5214286 9.1,14.5542857 8.96571429,14.5542857 C8.65428571,14.5528571 8.36857143,14.3842857 8.21714286,14.1114286 L8.16285714,13.9871429 L5.82142857,8.81285714 C5.79571429,8.75571429 5.78142857,8.69428571 5.78,8.63142857 C5.77857143,8.39428571 5.96857143,8.20142857 6.20571429,8.19857143 C6.3,8.19857143 6.39142857,8.22857143 6.46571429,8.28571429 L9.22714286,10.2671429 C9.56571429,10.4914286 9.99,10.54 10.3685714,10.3985714 L23.36,4.57285714 C20.7571429,1.66142857 17.0385714,0 13.1428571,0 C13.0485714,0 12.9514286,0 12.8571429,0.00285714286 Z" id="path-1"></path>
    </defs>
    <g id="wechatpay" stroke="none" stroke-width="1" fill="none" fill-rule="evenodd">
        <rect fill="#F3F6F9" x="0" y="0" width="60" height="40"></rect>
        <g id="Group-5">
            <polygon id="Fill-1" fill="#16AA16" points="0 39.9998571 60 39.9998571 60 0 0 0"></polygon>
            <g id="Group-4" transform="translate(17.714286, 8.931571)">
                <mask id="mask-2" fill="white">
                    <use xlink:href="#path-1"></use>
                </mask>
                <g id="Clip-3"></g>
                <polygon id="Fill-2" fill="#FFFFFF" mask="url(#mask-2)" points="-8.08571429 29.74 31.9142857 29.74 31.9142857 -7.40285714 -8.08571429 -7.40285714"></polygon>
            </g>
        </g>
    </g>
</svg>