<?xml version="1.0" encoding="UTF-8"?>
<svg width="126px" height="79px" viewBox="0 0 126 79" version="1.1" xmlns="http://www.w3.org/2000/svg" xmlns:xlink="http://www.w3.org/1999/xlink">
    <!-- Generator: Sketch 50.2 (55047) - http://www.bohemiancoding.com/sketch -->
    <title>shopify@2x</title>
    <desc>Created with Sketch.</desc>
    <defs></defs>
    <g id="Page-1" stroke="none" stroke-width="1" fill="none" fill-rule="evenodd">
        <g id="shopify" fill-rule="nonzero">
            <rect id="Rectangle-path" fill="#8BB43F" x="0" y="0" width="125.43" height="78.39" rx="4.18"></rect>
            <path d="M26,42.9 C26.8954123,43.3832981 27.8927389,43.6471955 28.91,43.67 C29.91,43.67 30.46,43.13 30.46,42.46 C30.46,41.79 30.07,41.38 28.99,40.76 C27.6706384,40.1800128 26.7732265,38.9259372 26.65,37.49 C26.65,34.99 28.78,33.21 31.9,33.21 C32.933187,33.1585781 33.9632324,33.3611537 34.9,33.8 L34.08,36.33 C33.3834511,36.0101008 32.6264899,35.8430238 31.86,35.84 C30.86,35.84 30.21,36.3 30.21,37.03 C30.21,37.59 30.68,38.03 31.58,38.49 C32.97,39.29 34.13,40.38 34.13,41.89 C34.13,44.73 31.84,46.33 28.64,46.3 C27.4173705,46.3206789 26.2106524,46.0207233 25.14,45.43 L26,42.9 Z" id="Shape" fill="#FFFFFF"></path>
            <path d="M34.88,46.07 L38.33,27.9 L41.89,27.9 L40.53,35 C41.4246581,33.823691 42.8122135,33.126223 44.29,33.11 C46.15,33.11 47.2,34.33 47.2,36.34 C47.2079875,37.1411596 47.1410293,37.9413105 47,38.73 L45.6,46.07 L42.05,46.07 L43.39,39 C43.4894224,38.4825714 43.5396463,37.9568938 43.54,37.43 C43.54,36.65 43.23,36.11 42.43,36.11 C41.3,36.11 40.09,37.55 39.62,39.9 L38.44,46.11 L34.88,46.07 Z" id="Shape" fill="#FFFFFF"></path>
            <path d="M60.11,38.16 C60.11,42.57 57.28,46.33 53.11,46.33 C51.7698918,46.409456 50.4610529,45.9046063 49.5214256,44.9458029 C48.5817983,43.9869995 48.1034901,42.6682298 48.21,41.33 C48.21,37.02 51.05,33.15 55.32,33.15 C58.62,33.18 60.11,35.61 60.11,38.16 Z M51.81,41.28 C51.81,42.57 52.33,43.6 53.54,43.6 C55.42,43.6 56.48,40.25 56.48,38.05 C56.48,37.05 56.07,35.92 54.8,35.92 C52.87,35.92 51.81,39.24 51.81,41.28 Z" id="Shape" fill="#FFFFFF"></path>
            <path d="M59.26,51.12 L61.74,38.12 C62.02,36.65 62.3,34.69 62.46,33.4 L65.6,33.4 L65.4,35.31 C66.2355263,34.0355574 67.6370921,33.2453129 69.16,33.19 C71.76,33.19 72.82,35.33 72.82,37.73 C72.82,42.06 70.09,46.34 65.91,46.34 C65.1894153,46.3597644 64.4750508,46.20178 63.83,45.88 L63.8,45.88 L62.8,51.13 L59.26,51.12 Z M64.34,43.12 C64.7491335,43.4686367 65.2726485,43.6538257 65.81,43.64 C67.81,43.64 69.16,40.37 69.16,38.07 C69.16,37.12 68.82,36.07 67.74,36.07 C66.5,36.07 65.34,37.54 64.93,39.76 L64.34,43.12 Z" id="Shape" fill="#FFFFFF"></path>
            <path d="M73,46.07 L75.4,33.47 L79,33.47 L76.58,46.07 L73,46.07 Z M77.62,31.92 C77.1527582,31.9331227 76.7021184,31.7462463 76.3812848,31.4063155 C76.0604512,31.0663846 75.8999135,30.605704 75.94,30.14 C75.9237701,29.5992492 76.127297,29.0749897 76.5041432,28.6868381 C76.8809895,28.2986864 77.3990058,28.0797565 77.94,28.08 C78.4187982,28.0568844 78.8851035,28.236985 79.2240593,28.5759407 C79.563015,28.9148965 79.7431156,29.3812018 79.72,29.86 C79.7372866,30.4167379 79.5216167,30.9554638 79.124917,31.3464692 C78.7282174,31.7374747 78.1864298,31.9453336 77.63,31.92 L77.62,31.92 Z" id="Shape" fill="#FFFFFF"></path>
            <path d="M79.62,46.07 L81.5,36.07 L79.86,36.07 L80.37,33.39 L82,33.39 L82.1,32.8 C82.3090089,31.2703159 83.0360892,29.8585096 84.16,28.8 C85.1398972,27.9990911 86.3748713,27.5767868 87.64,27.61 C88.3127896,27.6081404 88.9791686,27.7407363 89.6,28 L88.9,30.79 C88.5373995,30.6608537 88.1548972,30.5965392 87.77,30.6 C86.58,30.6 85.86,31.69 85.65,32.9 L85.52,33.49 L88,33.49 L87.51,36.17 L85.06,36.17 L83.18,46.17 L79.62,46.07 Z" id="Shape" fill="#FFFFFF"></path>
            <path d="M92.41,33.47 L93,39.14 C93.16,40.4 93.26,41.3 93.31,42.14 C93.6,41.29 93.86,40.49 94.37,39.14 L96.53,33.5 L100.25,33.5 L95.91,42.8 C94.7839152,45.4114322 93.2026591,47.8019392 91.24,49.86 C90.2616198,50.7816009 89.0690344,51.4449121 87.77,51.79 L86.77,48.79 C87.480812,48.5534305 88.1542572,48.2167079 88.77,47.79 C89.5776284,47.2440469 90.2400673,46.5095292 90.7,45.65 C90.8046996,45.4720163 90.8335239,45.2594377 90.78,45.06 L88.67,33.47 L92.41,33.47 Z" id="Shape" fill="#FFFFFF"></path>
        </g>
    </g>
</svg>