<svg xmlns="http://www.w3.org/2000/svg" xmlns:xlink="http://www.w3.org/1999/xlink" viewBox="0 0 126 79"><defs><path id="a" d="M0 0h42.977v42.97H0z"/></defs><g fill="none" fill-rule="evenodd"><rect fill="#F90" fill-rule="nonzero" width="125.43" height="78.39" rx="4.18"/><g transform="matrix(1 0 0 -1 41 62)"><mask id="b" fill="#fff"><use xlink:href="#a"/></mask><g mask="url(#b)"><path fill="#1A5493" d="M7.21 42.976h28.648l.371-.007.362-.03.36-.046.353-.062.346-.08.342-.097.332-.112.325-.13.317-.142.309-.158.3-.174.291-.186.28-.199.27-.215.262-.226.246-.236.24-.25.223-.257.215-.272.198-.281.185-.291.172-.3.16-.31.145-.317.125-.324.113-.333.096-.34.081-.347.062-.353.046-.356.029-.365.009-.37V7.163l-.01-.368-.028-.362-.046-.36-.062-.352-.08-.346-.097-.341-.113-.33-.125-.326-.146-.32-.16-.305-.171-.301-.185-.29-.198-.282-.215-.269-.224-.26-.239-.25-.246-.236-.262-.226-.27-.212-.28-.199-.29-.185-.301-.172-.309-.159-.317-.145-.325-.126-.332-.113-.342-.096-.346-.08-.353-.063-.36-.045-.362-.03-.371-.008H7.209l-.37.008-.363.03-.36.045-.352.062-.349.08-.338.097-.334.113-.325.126-.32.145-.308.159-.298.172-.293.185-.28.199-.27.212-.261.226-.247.236-.24.25-.223.26-.212.269-.201.282-.186.29-.171.3-.159.307-.145.32-.126.324-.113.33-.097.342-.08.346-.062.352-.046.36-.03.362-.007.368V35.81l.008.37.03.365.045.356.062.353.08.346.097.341.113.333.126.324.145.318.159.308.171.3.186.292.201.281.212.272.223.258.24.249.247.236.26.226.272.215.279.199.293.186.298.174.309.158.32.143.324.129.334.112.338.096.35.081.351.062.36.045.363.03z"/><path fill="#FFF212" d="M3.623 7.169h3.342v14.325H3.623zm18.316 11.049h-.191l-.189-.006-.186-.008-.179-.011-.177-.01-.174-.017-.172-.019-.17-.019-.164-.024-.16-.024-.16-.026-.155-.03-.15-.03-.149-.031-.145-.036-.142-.035-.137-.037-.134-.038-.13-.04-.126-.04-.124-.04-.117-.044-.115-.043-.112-.045-.107-.043-.104-.046-.1-.045-.097-.046-.09-.045-.09-.046-.083-.047-.08-.045.629-2.11.072.042.076.043.077.043.08.04.084.041.086.04.089.041.09.037.095.038.097.038.097.037.098.035.1.032.103.035.103.032.105.03.108.03.107.026.11.027.108.024.11.024.113.021.11.02.113.018.11.017.114.012.112.014.11.008.113.009.11.007.113.003h.11l.177-.003.172-.007.16-.014.151-.017.146-.024.137-.026.13-.032.12-.035.116-.04.107-.044.099-.045.09-.048.087-.052.08-.053.076-.057.067-.055.062-.06.059-.062.051-.06.046-.061.04-.065.038-.062.032-.06.029-.062.025-.062.018-.06.016-.059.014-.055.01-.057.007-.053.005-.052v-.163l-.401-.004-.392-.01-.382-.02-.37-.026-.36-.035-.35-.046-.34-.05-.328-.062-.317-.067-.304-.078-.295-.086-.282-.094-.268-.102-.258-.11-.248-.119-.234-.126-.22-.134-.207-.142-.196-.15-.18-.162-.169-.166-.153-.175-.14-.185-.13-.191-.109-.199-.099-.21-.083-.214-.067-.226-.054-.23-.04-.24-.022-.25-.008-.255.003-.153.01-.153.019-.153.027-.15.035-.15.04-.15.048-.149.057-.145.062-.142.072-.14.078-.137.084-.134.09-.131.1-.127.108-.123.113-.118.12-.113.126-.108.135-.102.14-.096.147-.092.156-.086.162-.077.169-.07.174-.065.18-.056.19-.049.194-.04.201-.032.208-.024.214-.014.22-.005.134.003.133.005.13.005.128.011.125.014.127.016.123.018.124.022.12.027.12.027.117.03.116.031.113.035.112.038.11.043.108.043.104.046.105.048.103.048.1.054.096.056.093.057.095.061.089.062.088.065.086.067.083.07.079.072.077.073.076.075.072.078.07.08h.037l.366-1.114h2.719v6.349l-.004.241-.013.237-.019.233-.026.232-.036.227-.045.224-.05.217-.063.213-.073.208-.077.202-.092.196-.099.191-.11.185-.119.178-.131.172-.14.163-.15.156-.164.147-.175.14-.185.132-.196.124-.21.112-.22.105-.234.093-.244.086-.26.074-.272.064-.285.053-.298.04-.312.03-.325.019-.337.006zm1.906-7.088v-.064l-.003-.067-.005-.068-.005-.07-.009-.067-.007-.07-.012-.067-.015-.067-.006-.024-.01-.035-.008-.032-.009-.022-.01-.026-.011-.027-.03-.067-.032-.065-.034-.064-.038-.065-.04-.061-.044-.065-.045-.062-.048-.059-.052-.059-.05-.059-.057-.056-.059-.057-.059-.053-.062-.051-.067-.052-.067-.048-.07-.046-.07-.045-.075-.04-.076-.04-.077-.038-.08-.033-.082-.032-.086-.03-.086-.023-.085-.025-.091-.018-.091-.017-.093-.013-.096-.008-.097-.008h-.182l-.084.005-.08.006-.081.01-.078.014-.075.013-.075.019-.073.022-.067.021-.07.027-.064.03-.062.032-.062.032-.056.037-.057.04-.05.041-.052.046-.046.048-.045.048-.04.054-.038.056-.037.057-.033.062-.03.061-.023.065-.024.07-.02.07-.015.072-.014.078-.008.078-.005.08-.003.084.003.094.008.088.013.089.016.086.021.08.028.08.032.076.035.075.04.073.043.067.048.067.053.065.057.061.062.057.065.056.07.054.073.054.074.048.081.046.084.045.085.043.092.04.09.038.098.035.101.035.102.03.105.029.11.03.11.024.117.024.115.021.12.02.113.015.118.016.119.014.124.013.122.008.13.011.128.005.133.006.08.003.08.002.084.003h.416V11.13zm12.287 6.773v-6.386l-.005-.091-.009-.09-.013-.085-.014-.086-.019-.08-.024-.081-.029-.075-.024-.062-.03-.062-.032-.062-.032-.061-.035-.06-.037-.061-.04-.062-.044-.059-.045-.06-.046-.058-.052-.06-.05-.056-.053-.053-.057-.054-.06-.051-.062-.051-.064-.049-.065-.048-.07-.043-.069-.043-.076-.037-.074-.038-.078-.035-.081-.03-.083-.029-.085-.024-.09-.022-.091-.016-.091-.016-.098-.008-.096-.008h-.102l-.124.003-.12.008-.119.013-.112.022-.108.024-.105.032-.098.038-.095.043-.091.045-.086.054-.084.06-.078.064-.072.067-.072.075-.065.078-.061.083-.06.089-.053.094-.05.099-.047.102-.04.107-.041.113-.034.118-.03.121-.027.126-.024.13-.02.134-.016.14-.012.142-.01.147-.004.15-.003.157v5.68h-3.261v-6.436l.005-.153.006-.148.008-.148.011-.145.013-.142.016-.137.017-.137.021-.131.022-.13.024-.126.029-.123.03-.121.032-.118.033-.116.036-.11.038-.11.043-.107.04-.105.046-.102.046-.1.045-.096.052-.094.05-.094.051-.089.054-.088.057-.086.059-.08.059-.081.062-.078.062-.076.064-.072.067-.073.07-.067.07-.067.07-.062.075-.061.073-.06.077-.056.079-.054.08-.05.08-.049.083-.046.084-.045.086-.04.088-.04.089-.036.092-.035.094-.032.09-.03.098-.029.094-.024.1-.024.096-.022.1-.021.102-.016.1-.017.103-.013.105-.01.105-.011.108-.009.107-.002.11-.005h.207l.094.002.09.003.092.005.092.008.089.008.088.008.086.014.084.01.083.017.083.013.08.019.078.016.079.021.077.022.076.021.144.049.143.05.134.054.131.054.127.06.12.058.116.065.11.064.105.068.102.067.098.07.093.07.089.072.083.075.078.075.075.078.072.075.068.075.061.073.06.07.056.067.05.067.046.062.043.064.42-1.525h2.648v10.734h-3.31zM10.1 21.494v-3.586H8.577v-2.446H10.1v-4.367l.002-.134.003-.132.003-.131.005-.126.008-.127.011-.123.01-.121.014-.121.014-.115.016-.116.019-.113.021-.11.022-.107.024-.108.024-.102.027-.102.03-.1.031-.096.033-.094.035-.091.037-.091.038-.086.04-.086.043-.08.043-.081.046-.078.048-.076.051-.075.051-.07.054-.067.056-.067.057-.062.054-.053.053-.054.057-.051.056-.051.062-.048.062-.049.067-.048.067-.046.067-.045.073-.043.072-.04.075-.044.078-.037.078-.038.083-.037.081-.033.086-.035.086-.03.089-.029.088-.027.092-.026.094-.022L12.73 7l.097-.02.096-.018.1-.016.098-.01.103-.011.102-.011.105-.006.105-.002.107-.003.177.003.164.005.154.008.139.01.131.014.122.016.115.02.105.02.102.022.094.024.088.027.088.027.167.06.165.06v2.496l-.043-.016-.057-.016-.067-.017-.084-.013-.093-.013-.105-.008-.113-.008-.12-.003-.108.003-.1.005-.096.01-.091.017-.086.019-.081.021-.079.027-.072.032-.067.035-.064.038-.062.045-.054.046-.053.05-.049.055-.045.059-.04.064-.038.065-.036.072-.031.073-.03.078-.025.083-.024.083-.019.091-.019.092-.012.096-.014.102-.01.103-.01.107-.004.113-.005.113-.003.118v3.926h2.073v2.446h-2.073v3.586H10.1zm24.8.002l-2.016-2.895h2.331l2.84 2.895H34.9z"/></g></g></g></svg>